<svg xmlns="http://www.w3.org/2000/svg" width="78.051" height="11.76" viewBox="0 0 78.051 11.76">
  <path id="Union_80" data-name="Union 80" d="M-3359.71,5.881A5.88,5.88,0,0,1-3353.83,0a5.88,5.88,0,0,1,5.881,5.88,5.88,5.88,0,0,1-5.881,5.88A5.88,5.88,0,0,1-3359.71,5.881Zm2.4,0a3.48,3.48,0,0,0,3.479,3.48,3.48,3.48,0,0,0,3.48-3.48,3.48,3.48,0,0,0-3.48-3.48A3.48,3.48,0,0,0-3357.31,5.881Zm-18.97,0A5.88,5.88,0,0,1-3370.4,0a5.881,5.881,0,0,1,5.881,5.88,5.881,5.881,0,0,1-5.881,5.88A5.88,5.88,0,0,1-3376.28,5.881Zm2.4,0a3.481,3.481,0,0,0,3.48,3.48,3.48,3.48,0,0,0,3.48-3.48,3.48,3.48,0,0,0-3.48-3.48A3.48,3.48,0,0,0-3373.88,5.881Zm-18.969,0A5.88,5.88,0,0,1-3386.97,0a5.88,5.88,0,0,1,5.88,5.88,5.88,5.88,0,0,1-5.88,5.88A5.88,5.88,0,0,1-3392.85,5.881Zm2.4,0a3.481,3.481,0,0,0,3.48,3.48,3.48,3.48,0,0,0,3.48-3.48,3.48,3.48,0,0,0-3.48-3.48A3.48,3.48,0,0,0-3390.45,5.881Zm-18.969,0A5.88,5.88,0,0,1-3403.54,0a5.88,5.88,0,0,1,5.88,5.88,5.88,5.88,0,0,1-5.88,5.88A5.88,5.88,0,0,1-3409.42,5.881Zm2.4,0a3.481,3.481,0,0,0,3.48,3.48,3.481,3.481,0,0,0,3.48-3.48,3.481,3.481,0,0,0-3.48-3.48A3.481,3.481,0,0,0-3407.02,5.881Zm-18.98,0A5.881,5.881,0,0,1-3420.12,0a5.88,5.88,0,0,1,5.88,5.88,5.88,5.88,0,0,1-5.88,5.88A5.881,5.881,0,0,1-3426,5.881Zm2.4,0a3.48,3.48,0,0,0,3.48,3.48,3.48,3.48,0,0,0,3.479-3.48,3.48,3.48,0,0,0-3.479-3.48A3.48,3.48,0,0,0-3423.6,5.881Z" transform="translate(3426 -0.001)" fill="#745fea" opacity="0.55"/>
</svg>
