<svg xmlns="http://www.w3.org/2000/svg" width="119.969" height="59.047" viewBox="0 0 119.969 59.047">
  <g id="Group_750" data-name="Group 750" transform="translate(16886.338 1088.572)">
    <path id="path1699" d="M-426.966,248.439c-.109,0,.075-.012,0,0-.3.045.115.951,0,1-.226.1-.875-.078-1,0-.25.158-.733-.2-1,0-.533.41-.422,1.457-1,2-4.291,4.023-9.362,11.9-4,15a18.767,18.767,0,0,1,6-12h0a33.075,33.075,0,0,0,2,4c.156.311-.165-.3,0,0l3-3a17.312,17.312,0,0,1-1-4c-.1-.382.08-.719,0-1-.04-.139-.962.115-1,0-.019-.059.033.085,0,0-.019-.043.04.085,0,0-.021-.043.047-.92,0-1s0,0,0,0h-1s.151-.974,0-1S-426.86,248.437-426.966,248.439Zm13,17-2,3a18.61,18.61,0,0,1,6,8c1.679,4.181,1.441,8.527,0,13a40.628,40.628,0,0,1-3,6,18.756,18.756,0,0,1-13,8c-.83.1-4.281-.867-5-1-2.025-.37-4.354-.165-6-1-2.6-1.321-4.312-3.873-6-6-1.563,2.709-.077,6.929,4,9a26.9,26.9,0,0,0,7,2c1.811.33,5.163,1.224,7,1,6.43-.781,12.154-4.666,16-10a24.236,24.236,0,0,0,3-6,23.609,23.609,0,0,0-1-16A24.261,24.261,0,0,0-413.966,265.439Z" transform="translate(-16361.372 -1337)" fill="#fa9720"/>
    <text id="text1703" transform="translate(-16886.338 -1049.561)" fill="#fff" font-size="23" font-family="Montserrat-Bold, Montserrat" font-weight="700"><tspan x="0" y="0">Deals</tspan></text>
    <text id="text1707" transform="translate(-16812.338 -1048.561)" fill="#fa9720" font-size="23" font-family="Montserrat-Bold, Montserrat" font-weight="700"><tspan x="0" y="0">Jn.</tspan></text>
    <path id="path1709" d="M-417.759,251.9l-11,11h6l-5,9,12-13h-6Z" transform="translate(-16358.579 -1336.459)" fill="#fff"/>
  </g>
</svg>
