<svg xmlns="http://www.w3.org/2000/svg" width="35.999" height="23.001" viewBox="0 0 35.999 23.001">
  <g id="Group_725" data-name="Group 725" transform="translate(0.121 -0.249)">
    <path id="Path_13559" data-name="Path 13559" d="M258.739,151.469v3h6a5.645,5.645,0,0,1-6,5c-3.991,0-8-3.018-8-7s4.009-7,8-7c1.693-.036,2.772.837,4,2l3-3a9.467,9.467,0,0,0-7-3c-6.322,0-12,4.692-12,11a12.424,12.424,0,0,0,12,12c6.6,0,11-5.474,11-12,0-.636-.886-.375-1-1Z" transform="translate(-246.86 -141.219)" fill="#fff"/>
    <path id="Path_13560" data-name="Path 13560" d="M295.135,154.582h-3v-4h-3v4h-4v3h4v3h3v-3h3Z" transform="translate(-259.256 -144.333)" fill="#fff"/>
  </g>
</svg>
