<svg xmlns="http://www.w3.org/2000/svg" width="30" height="24.339" viewBox="0 0 30 24.339">
  <path id="Path_13558" data-name="Path 13558" d="M54.831,144.262c-1.123.5-2.78-.14-4,0,1.286-.763,2.537-1.581,3-3a14.161,14.161,0,0,1-4,2c-1.726-1.844-4.649-2.93-7-2a6.622,6.622,0,0,0-4,6,3.24,3.24,0,0,0,0,1,15.683,15.683,0,0,1-12-6,5.991,5.991,0,0,0-1,3,6.231,6.231,0,0,0,3,5,7.371,7.371,0,0,1-3-1h0a6.191,6.191,0,0,0,5,6c-.526.144-1.454,1-2,1-.389,0-.617-.929-1-1,.813,2.517,3.35,4.979,6,5-2.18,1.705-5.23,2-8,2a5.431,5.431,0,0,1-1,0,16.306,16.306,0,0,0,9,3c11.277-.014,18-9.876,18-18h0A11.69,11.69,0,0,0,54.831,144.262Z" transform="translate(-24.831 -140.923)" fill="#fff"/>
</svg>
