<svg xmlns="http://www.w3.org/2000/svg" xmlns:xlink="http://www.w3.org/1999/xlink" width="47" height="23" viewBox="0 0 47 23">
  <defs>
    <filter id="Rectangle_176">
      <feOffset dx="1" dy="1" input="SourceAlpha"/>
      <feGaussianBlur stdDeviation="0.5" result="blur"/>
      <feFlood flood-opacity="0.302" result="color"/>
      <feComposite operator="out" in="SourceGraphic" in2="blur"/>
      <feComposite operator="in" in="color"/>
      <feComposite operator="in" in2="SourceGraphic"/>
    </filter>
  </defs>
  <g id="Group_609" data-name="Group 609" transform="translate(-49 -144)">
    <g id="Group_834" data-name="Group 834">
      <g data-type="innerShadowGroup">
        <rect id="Rectangle_176-2" data-name="Rectangle 176" width="47" height="23" rx="11.5" transform="translate(49 144)" fill="#4936b7"/>
        <g transform="matrix(1, 0, 0, 1, 49, 144)" filter="url(#Rectangle_176)">
          <rect id="Rectangle_176-3" data-name="Rectangle 176" width="47" height="23" rx="11.5" fill="#fff"/>
        </g>
      </g>
      <g id="Group_809" data-name="Group 809" transform="translate(60.453 148.729)">
        <path id="Path_14105" data-name="Path 14105" d="M1.739.106l.352.706a.176.176,0,0,0,.132.1l.789.115a.177.177,0,0,1,.116.068.171.171,0,0,1,.033.129.175.175,0,0,1-.051.1l-.572.554a.167.167,0,0,0-.051.152l.141.78a.176.176,0,0,1-.141.2.185.185,0,0,1-.113-.018l-.7-.367a.185.185,0,0,0-.166,0l-.7.367a.181.181,0,0,1-.242-.071A.179.179,0,0,1,.54,2.807l.141-.78A.167.167,0,0,0,.63,1.875L.058,1.321a.171.171,0,0,1,0-.247.172.172,0,0,1,.1-.05L.948.909a.176.176,0,0,0,.132-.1L1.42.106a.175.175,0,0,1,.161-.1H1.6A.176.176,0,0,1,1.739.106Z" transform="translate(-0.004 -0.007)" fill="#fff"/>
        <path id="Path_14106" data-name="Path 14106" d="M1.581,2.593a.192.192,0,0,0-.087.024l-.7.366A.184.184,0,0,1,.554,2.91.173.173,0,0,1,.535,2.8l.141-.778a.174.174,0,0,0-.051-.154L.052,1.315a.172.172,0,0,1,0-.247.18.18,0,0,1,.1-.05L.944.9a.171.171,0,0,0,.132-.1L1.421.09A.176.176,0,0,1,1.582,0C1.581.049,1.581,2.561,1.581,2.593Z" transform="translate(0 0)" fill="#fff"/>
      </g>
      <g id="Group_810" data-name="Group 810" transform="translate(64.551 161.998)">
        <path id="Path_14105-2" data-name="Path 14105" d="M1.739.106l.352.706a.176.176,0,0,0,.132.1l.789.115a.177.177,0,0,1,.116.068.171.171,0,0,1,.033.129.175.175,0,0,1-.051.1l-.572.554a.167.167,0,0,0-.051.152l.141.78a.176.176,0,0,1-.141.2.185.185,0,0,1-.113-.018l-.7-.367a.185.185,0,0,0-.166,0l-.7.367a.181.181,0,0,1-.242-.071A.179.179,0,0,1,.54,2.807l.141-.78A.167.167,0,0,0,.63,1.875L.058,1.321a.171.171,0,0,1,0-.247.172.172,0,0,1,.1-.05L.948.909a.176.176,0,0,0,.132-.1L1.42.106a.175.175,0,0,1,.161-.1H1.6A.176.176,0,0,1,1.739.106Z" transform="translate(-0.004 -0.007)" fill="#fff"/>
        <path id="Path_14106-2" data-name="Path 14106" d="M1.581,2.593a.192.192,0,0,0-.087.024l-.7.366A.184.184,0,0,1,.554,2.91.173.173,0,0,1,.535,2.8l.141-.778a.174.174,0,0,0-.051-.154L.052,1.315a.172.172,0,0,1,0-.247.18.18,0,0,1,.1-.05L.944.9a.171.171,0,0,0,.132-.1L1.421.09A.176.176,0,0,1,1.582,0C1.581.049,1.581,2.561,1.581,2.593Z" transform="translate(0 0)" fill="#fff"/>
      </g>
      <g id="Group_811" data-name="Group 811" transform="translate(69.34 145.727)">
        <path id="Path_14105-3" data-name="Path 14105" d="M1.739.106l.352.706a.176.176,0,0,0,.132.1l.789.115a.177.177,0,0,1,.116.068.171.171,0,0,1,.033.129.175.175,0,0,1-.051.1l-.572.554a.167.167,0,0,0-.051.152l.141.78a.176.176,0,0,1-.141.2.185.185,0,0,1-.113-.018l-.7-.367a.185.185,0,0,0-.166,0l-.7.367a.181.181,0,0,1-.242-.071A.179.179,0,0,1,.54,2.807l.141-.78A.167.167,0,0,0,.63,1.875L.058,1.321a.171.171,0,0,1,0-.247.172.172,0,0,1,.1-.05L.948.909a.176.176,0,0,0,.132-.1L1.42.106a.175.175,0,0,1,.161-.1H1.6A.176.176,0,0,1,1.739.106Z" transform="translate(-0.004 -0.007)" fill="#fff"/>
        <path id="Path_14106-3" data-name="Path 14106" d="M1.581,2.593a.192.192,0,0,0-.087.024l-.7.366A.184.184,0,0,1,.554,2.91.173.173,0,0,1,.535,2.8l.141-.778a.174.174,0,0,0-.051-.154L.052,1.315a.172.172,0,0,1,0-.247.18.18,0,0,1,.1-.05L.944.9a.171.171,0,0,0,.132-.1L1.421.09A.176.176,0,0,1,1.582,0C1.581.049,1.581,2.561,1.581,2.593Z" transform="translate(0 0)" fill="#fff"/>
      </g>
      <g id="Group_812" data-name="Group 812" transform="translate(69.34 155.5)">
        <path id="Path_14105-4" data-name="Path 14105" d="M1.739.106l.352.706a.176.176,0,0,0,.132.1l.789.115a.177.177,0,0,1,.116.068.171.171,0,0,1,.033.129.175.175,0,0,1-.051.1l-.572.554a.167.167,0,0,0-.051.152l.141.78a.176.176,0,0,1-.141.2.185.185,0,0,1-.113-.018l-.7-.367a.185.185,0,0,0-.166,0l-.7.367a.181.181,0,0,1-.242-.071A.179.179,0,0,1,.54,2.807l.141-.78A.167.167,0,0,0,.63,1.875L.058,1.321a.171.171,0,0,1,0-.247.172.172,0,0,1,.1-.05L.948.909a.176.176,0,0,0,.132-.1L1.42.106a.175.175,0,0,1,.161-.1H1.6A.176.176,0,0,1,1.739.106Z" transform="translate(-0.004 -0.007)" fill="#fff"/>
        <path id="Path_14106-4" data-name="Path 14106" d="M1.581,2.593a.192.192,0,0,0-.087.024l-.7.366A.184.184,0,0,1,.554,2.91.173.173,0,0,1,.535,2.8l.141-.778a.174.174,0,0,0-.051-.154L.052,1.315a.172.172,0,0,1,0-.247.18.18,0,0,1,.1-.05L.944.9a.171.171,0,0,0,.132-.1L1.421.09A.176.176,0,0,1,1.582,0C1.581.049,1.581,2.561,1.581,2.593Z" transform="translate(0 0)" fill="#fff"/>
      </g>
      <path id="Path_14107" data-name="Path 14107" d="M4.911,1.8a6.074,6.074,0,1,0,8.266,8.266A6.073,6.073,0,0,1,4.911,1.8Z" transform="translate(51.374 146.929)" fill="#fff"/>
    </g>
    <ellipse id="Ellipse_735" data-name="Ellipse 735" cx="8.5" cy="8" rx="8.5" ry="8" transform="translate(76 147)" fill="#fff"/>
  </g>
</svg>
