<svg xmlns="http://www.w3.org/2000/svg" width="11" height="11" viewBox="0 0 11 11">
  <g id="Group_647" data-name="Group 647" transform="translate(365 -327)">
    <circle id="Ellipse_402" data-name="Ellipse 402" cx="5.5" cy="5.5" r="5.5" transform="translate(-365 327)" fill="#ecb751"/>
    <path id="Path_5493" data-name="Path 5493" d="M-358.72,328a5.28,5.28,0,0,0-5.28,5.28,5.281,5.281,0,0,0,.178,1.348l6.447-6.447A5.278,5.278,0,0,0-358.72,328Zm1.81.327-6.765,6.765a5.281,5.281,0,0,0,.287.648l7.129-7.129A5.281,5.281,0,0,0-356.91,328.327Zm3.169,3.214-6.718,6.718a5.272,5.272,0,0,0,.575.167l6.308-6.308A5.282,5.282,0,0,0-353.741,331.541Z" transform="translate(-0.78 -0.78)" fill="#fdefb4"/>
    <circle id="Ellipse_403" data-name="Ellipse 403" cx="3.5" cy="3.5" r="3.5" transform="translate(-363 329)" fill="#fad461"/>
    <path id="Path_5494" data-name="Path 5494" d="M-347.028,334.449a4.18,4.18,0,0,1,1.747,3.395,4.18,4.18,0,0,1-4.18,4.18,4.18,4.18,0,0,1-1.6-.319,4.18,4.18,0,0,0,2.433.786,4.18,4.18,0,0,0,4.18-4.18,4.18,4.18,0,0,0-2.583-3.861Z" transform="translate(-10.874 -5.81)" fill="#ecb751"/>
    <path id="Path_5495" data-name="Path 5495" d="M-359.5,327a5.5,5.5,0,0,0-5.5,5.5,5.5,5.5,0,0,0,5.5,5.5,5.5,5.5,0,0,0,5.5-5.5A5.5,5.5,0,0,0-359.5,327Zm0,.44a5.057,5.057,0,0,1,5.06,5.06,5.057,5.057,0,0,1-5.06,5.06,5.057,5.057,0,0,1-5.06-5.06A5.057,5.057,0,0,1-359.5,327.44Zm0,.66a4.4,4.4,0,0,0-4.4,4.4,4.384,4.384,0,0,0,.873,2.631.22.22,0,0,0,.308.045.22.22,0,0,0,.045-.308,3.939,3.939,0,0,1-.785-2.368,3.957,3.957,0,0,1,3.96-3.96,3.957,3.957,0,0,1,3.96,3.96,3.957,3.957,0,0,1-3.96,3.96,3.94,3.94,0,0,1-1.774-.419.22.22,0,0,0-.3.1.22.22,0,0,0,.1.3,4.385,4.385,0,0,0,1.972.465,4.4,4.4,0,0,0,4.4-4.4A4.4,4.4,0,0,0-359.5,328.1Zm0,1.762a.22.22,0,0,0-.217.223v.4c-.028.005-.057.007-.085.014h0a1.142,1.142,0,0,0-.891,1.088,1.141,1.141,0,0,0,.886,1.085c.306.093.489.054.7.141a.651.651,0,0,1,.342.756.749.749,0,0,1-.732.512.749.749,0,0,1-.733-.512.22.22,0,0,0-.273-.15.22.22,0,0,0-.15.273,1.169,1.169,0,0,0,.935.808v.413a.22.22,0,0,0,.22.22.22.22,0,0,0,.22-.22V334.5a1.168,1.168,0,0,0,.936-.809,1.1,1.1,0,0,0-.563-1.273l-.018-.008a4.064,4.064,0,0,0-.763-.16l-.012,0a.7.7,0,0,1-.557-.66.7.7,0,0,1,.557-.66.8.8,0,0,1,.859.324.22.22,0,0,0,.3.07.22.22,0,0,0,.07-.3,1.194,1.194,0,0,0-.813-.538v-.4a.22.22,0,0,0-.065-.159.22.22,0,0,0-.159-.064Zm3.277,3.385a.11.11,0,0,0-.1.084,3.281,3.281,0,0,1-.967,1.6.11.11,0,0,0-.036.106.11.11,0,0,0,.075.083.11.11,0,0,0,.109-.026,3.5,3.5,0,0,0,1.032-1.7.11.11,0,0,0-.017-.094.11.11,0,0,0-.085-.045Zm-1.435,1.99a.11.11,0,0,0-.059.018q-.068.044-.14.085a.11.11,0,0,0-.04.15.11.11,0,0,0,.15.04c.051-.029.1-.06.149-.091a.11.11,0,0,0,.047-.125A.11.11,0,0,0-357.661,335.237Zm-4.583.189a.22.22,0,0,0-.212.141.22.22,0,0,0,.063.247q.085.074.173.144a.22.22,0,0,0,.309-.036.22.22,0,0,0-.037-.309q-.08-.063-.156-.13A.22.22,0,0,0-362.245,335.426Z" fill="#2d3a66"/>
    <ellipse id="Ellipse_404" data-name="Ellipse 404" cx="1.169" cy="1.654" rx="1.169" ry="1.654" transform="translate(-361.625 329.178) rotate(30)" fill="#fdefb4"/>
    <ellipse id="Ellipse_405" data-name="Ellipse 405" cx="0.65" cy="0.49" rx="0.65" ry="0.49" transform="translate(-362.635 333.151)" fill="#fdefb4"/>
    <path id="Path_5496" data-name="Path 5496" d="M-344.879,343.541a1.111,1.111,0,0,0-.561.95,1.053,1.053,0,0,0,.1.442,2.323,2.323,0,0,0,.169-.252,2.07,2.07,0,0,0,.291-1.14Z" transform="translate(-15.257 -12.902)" fill="#8d8d81"/>
    <path id="Path_5497" data-name="Path 5497" d="M-344.879,343.541a1.111,1.111,0,0,0-.561.95,1.053,1.053,0,0,0,.1.442,2.323,2.323,0,0,0,.169-.252,2.07,2.07,0,0,0,.291-1.14Z" transform="translate(-15.257 -12.902)" fill="#8d8d81"/>
  </g>
</svg>