<svg xmlns="http://www.w3.org/2000/svg" width="16.061" height="13.976" viewBox="0 0 16.061 13.976">
  <path id="Path_5445" data-name="Path 5445" d="M24.059,13.118a3.005,3.005,0,0,1-2.946,3.06,2.826,2.826,0,0,1-1.43-.4c.146,1.636.97,4.022,3.99,6.454a1.034,1.034,0,0,1,.172,1.412.957.957,0,0,1-.766.39.937.937,0,0,1-.594-.212c-3.706-2.99-4.632-6.062-4.756-8.114-.212-2.624.584-4,1.312-4.724a2.479,2.479,0,0,1,.2-.208,3.07,3.07,0,0,1,.466-.33c.006,0,.01-.01.016-.012a.188.188,0,0,1,.03-.012,2.671,2.671,0,0,1,.34-.162l-.01.024a2.686,2.686,0,0,1,1.028-.226A3,3,0,0,1,24.059,13.118Zm-9.7,0a3,3,0,0,1-2.946,3.06,2.826,2.826,0,0,1-1.43-.4c.146,1.636.97,4.022,3.99,6.454a1.032,1.032,0,0,1,.172,1.412.957.957,0,0,1-.766.39.937.937,0,0,1-.594-.212c-3.706-2.99-4.632-6.062-4.756-8.114-.212-2.624.586-4,1.312-4.724a2.864,2.864,0,0,1,.2-.208,3.07,3.07,0,0,1,.466-.33l.016-.012a.188.188,0,0,1,.03-.012,3.067,3.067,0,0,1,.34-.162l-.01.024a2.7,2.7,0,0,1,1.028-.226,3,3,0,0,1,2.944,3.06Z" transform="translate(-7.998 -10.058)" fill="gray"/>
</svg>
