<svg xmlns="http://www.w3.org/2000/svg" xmlns:xlink="http://www.w3.org/1999/xlink" width="535" height="404" viewBox="0 0 535 404">
  <defs>
    <clipPath id="clip-path">
      <rect id="Rectangle_170" data-name="Rectangle 170" width="535" height="404" rx="30" transform="translate(1048 1406)" fill="#1b1b1b"/>
    </clipPath>
  </defs>
  <g id="Mask_Group_4" data-name="Mask Group 4" transform="translate(-1048 -1406)" clip-path="url(#clip-path)">
    <path id="Subtraction_2" data-name="Subtraction 2" d="M180.861,44H.688a.627.627,0,0,1-.506-.3L13.384,22,.181.3A.626.626,0,0,1,.688,0H180.861c.379,0,.688.411.688.917V43.084C181.55,43.589,181.241,44,180.861,44ZM0,19.888H0V.917C0,.9,0,.891,0,.879Z" transform="translate(1229.549 1450.001) rotate(180)" fill="#fd0"/>
    <text id="Recommended" transform="translate(1087.467 1432)" fill="#fff" font-size="13" font-family="Poppins-Regular, Poppins"><tspan x="0" y="0">Recommended</tspan></text>
  </g>
</svg>
