<svg xmlns="http://www.w3.org/2000/svg" width="19.461" height="21" viewBox="0 0 19.461 21">
  <path id="Path_5423" data-name="Path 5423" d="M25.3,565.059a3.964,3.964,0,0,0-3.077,1.465l-4.672-2.754a3.956,3.956,0,0,0,0-2.532l4.671-2.754a3.968,3.968,0,1,0-.683-1.23L16.874,560a3.972,3.972,0,1,0,0,5l4.669,2.752a3.972,3.972,0,1,0,3.761-2.7Zm0-11.645a2.562,2.562,0,1,1-2.562,2.562A2.562,2.562,0,0,1,25.3,553.413ZM13.791,565.065a2.562,2.562,0,1,1,2.562-2.562A2.562,2.562,0,0,1,13.791,565.065ZM25.3,571.594a2.563,2.563,0,1,1,2.562-2.562A2.562,2.562,0,0,1,25.3,571.594Z" transform="translate(-9.817 -552.003)" fill="#745fea"/>
</svg>
