<svg xmlns="http://www.w3.org/2000/svg" width="40.3" height="33.381" viewBox="0 0 40.3 33.381">
  <path id="Union_64" data-name="Union 64" d="M5.51,33.381A5.517,5.517,0,0,1,0,27.871V5.514A5.518,5.518,0,0,1,5.51,0H34.791A5.516,5.516,0,0,1,40.3,5.514V27.871a5.515,5.515,0,0,1-5.51,5.51ZM2.707,5.514V27.871a2.808,2.808,0,0,0,2.8,2.8H34.791v0a2.806,2.806,0,0,0,2.8-2.8V22.957H30.485a6.263,6.263,0,1,1,0-12.525h7.108V5.514a2.808,2.808,0,0,0-2.8-2.8H5.51A2.808,2.808,0,0,0,2.707,5.514ZM26.929,16.7a3.555,3.555,0,0,0,3.556,3.555h7.108V13.139H30.485A3.556,3.556,0,0,0,26.929,16.7Zm1.919,1.349a1.353,1.353,0,1,1,0-2.707H32.4a1.353,1.353,0,1,1,0,2.707Z" fill="gray"/>
</svg>
