<svg xmlns="http://www.w3.org/2000/svg" width="40.299" height="39.164" viewBox="0 0 40.299 39.164">
  <path id="Path_5480" data-name="Path 5480" d="M40.3,843.892c-.329-3.531-5.364-5.03-6.98-5.422.519-3.308.645-5.78.653-5.92a1.353,1.353,0,0,0-1.353-1.42H8.737a1.353,1.353,0,0,0-1.353,1.42c.008.14.131,2.567.639,5.833a1.341,1.341,0,0,0-.579-.009c-.719.15-7.041,1.549-7.409,5.519-.344,3.711,4.6,7.519,15.555,11.976a1.508,1.508,0,0,0,.177.057v11.663H12.412a1.353,1.353,0,1,0,0,2.707H28.942a1.353,1.353,0,1,0,0-2.707H25.59V855.516C35.955,851.206,40.636,847.5,40.3,843.892Zm-2.692.247c.062.662-.451,2.838-7.938,6.564a32.9,32.9,0,0,0,2.886-8.218q.158-.677.29-1.353C34.567,841.579,37.474,842.725,37.609,844.139Zm-34.887,0c.131-1.414,3.213-2.7,5.256-3.117a1.356,1.356,0,0,0,.468-.193c.107.543.223,1.1.35,1.654a31.106,31.106,0,0,0,3.274,8.9C3.249,847.241,2.664,844.841,2.722,844.139Zm20.15,23.444h-4.4V854.609a1.353,1.353,0,0,0-.762-1.218c-5.062-2.457-7.042-13.869-7.526-19.559H31.172c-.484,5.69-2.457,17.1-7.526,19.559l-.017.009a1.627,1.627,0,0,0-.15.087h0a1.319,1.319,0,0,0-.134.1l-.027.026a1.574,1.574,0,0,0-.11.113l-.009.012a1.255,1.255,0,0,0-.1.135l-.021.035c-.023.039-.045.08-.065.12,0,.012-.011.023-.015.033a1.142,1.142,0,0,0-.057.15l-.009.033a1.35,1.35,0,0,0-.03.14v.035a1.383,1.383,0,0,0-.012.176v12.977Z" transform="translate(-0.018 -831.13)" fill="gray"/>
</svg>
