<svg xmlns="http://www.w3.org/2000/svg" width="37.638" height="37.104" viewBox="0 0 37.638 37.104">
  <path id="Union_67" data-name="Union 67" d="M.389,36.7A1.353,1.353,0,0,1,.4,34.786L32.978,2.716a1.125,1.125,0,0,0-.174-.009H23.89A1.353,1.353,0,1,1,23.89,0H32.8a4.812,4.812,0,0,1,4.834,4.786v8.773a1.353,1.353,0,1,1-2.707,0V4.786c0-.065-.009-.128-.009-.191L2.3,36.715A1.353,1.353,0,0,1,.389,36.7Zm20.188-4.475a7.671,7.671,0,0,1,0-10.96,7.925,7.925,0,0,1,11.07,0,7.671,7.671,0,0,1,0,10.96,7.924,7.924,0,0,1-11.07,0Zm1.9-9.038a4.96,4.96,0,0,0,0,7.1,5.2,5.2,0,0,0,7.271,0,4.962,4.962,0,0,0,0-7.1,5.2,5.2,0,0,0-7.271,0ZM10.5,19.1a7.863,7.863,0,0,1-5.535-2.256,7.667,7.667,0,0,1,0-10.957,7.919,7.919,0,0,1,11.069,0,7.667,7.667,0,0,1,0,10.957A7.864,7.864,0,0,1,10.525,19.1ZM6.868,7.825a4.962,4.962,0,0,0,0,7.1,5.2,5.2,0,0,0,7.271,0,4.962,4.962,0,0,0,0-7.1,5.206,5.206,0,0,0-7.271,0Z" fill="gray"/>
</svg>
