<svg xmlns="http://www.w3.org/2000/svg" width="29.231" height="39.534" viewBox="0 0 29.231 39.534">
  <path id="Path_5466" data-name="Path 5466" d="M890.5,593.4a3.528,3.528,0,0,1-2.159-.741h0l-8.4-6.484a.835.835,0,0,0-1.021,0l-8.4,6.484a3.541,3.541,0,0,1-5.705-2.8V558.983a5.113,5.113,0,0,1,5.113-5.113h19.006a5.113,5.113,0,0,1,5.113,5.113v30.876A3.55,3.55,0,0,1,890.5,593.4Zm-.505-2.884a.835.835,0,0,0,1.344-.662V558.983a2.406,2.406,0,0,0-2.406-2.406H869.923a2.406,2.406,0,0,0-2.406,2.406v30.876a.835.835,0,0,0,1.344.662l8.4-6.484a3.546,3.546,0,0,1,4.329,0Z" transform="translate(-864.81 -553.87)" fill="gray"/>
</svg>
