<svg xmlns="http://www.w3.org/2000/svg" width="39.362" height="39.362" viewBox="0 0 39.362 39.362">
  <path id="Path_14042" data-name="Path 14042" d="M8.2,7.734a41.3,41.3,0,0,1,5.091-.223A6.241,6.241,0,0,1,19.511,1.75h3.84a6.241,6.241,0,0,1,6.222,5.761,41.3,41.3,0,0,1,5.091.223A7.138,7.138,0,0,1,39,9.619a7.138,7.138,0,0,1,1.885,4.339,52.676,52.676,0,0,1,.224,6.407v7.891a52.678,52.678,0,0,1-.224,6.407A7.137,7.137,0,0,1,39,39a7.137,7.137,0,0,1-4.339,1.885,52.678,52.678,0,0,1-6.407.224H14.605A52.677,52.677,0,0,1,8.2,40.889,7.137,7.137,0,0,1,3.859,39a7.137,7.137,0,0,1-1.885-4.339,52.646,52.646,0,0,1-.224-6.407V20.366a52.644,52.644,0,0,1,.224-6.407A7.138,7.138,0,0,1,3.859,9.619,7.138,7.138,0,0,1,8.2,7.734ZM26.677,7.51H16.185a3.361,3.361,0,0,1,3.326-2.88h3.84A3.361,3.361,0,0,1,26.677,7.51ZM8.582,38.034A4.329,4.329,0,0,1,5.9,36.967,4.329,4.329,0,0,1,4.828,34.28a51.581,51.581,0,0,1-.2-6.129V21.679c7.082,2.974,11.217,4.6,15.572,4.8q1.228.057,2.458,0c4.355-.2,8.49-1.827,15.572-4.8v6.472a51.611,51.611,0,0,1-.2,6.129,4.329,4.329,0,0,1-1.067,2.686,4.329,4.329,0,0,1-2.686,1.067,51.611,51.611,0,0,1-6.129.2H14.711A51.609,51.609,0,0,1,8.582,38.034ZM38.229,18.556c-7.92,3.331-11.729,4.862-15.7,5.047q-1.094.051-2.19,0c-3.973-.185-7.783-1.716-15.7-5.047a34.887,34.887,0,0,1,.195-4.214A4.329,4.329,0,0,1,5.9,11.656a4.329,4.329,0,0,1,2.686-1.067,51.579,51.579,0,0,1,6.129-.2H28.152a51.581,51.581,0,0,1,6.129.2,4.329,4.329,0,0,1,2.686,1.067,4.329,4.329,0,0,1,1.067,2.686A34.925,34.925,0,0,1,38.229,18.556Z" transform="translate(-1.75 -1.75)" fill="gray" fill-rule="evenodd"/>
</svg>
