<svg xmlns="http://www.w3.org/2000/svg" width="40.3" height="40.3" viewBox="0 0 40.3 40.3">
  <path id="Union_72" data-name="Union 72" d="M0,20.149A20.15,20.15,0,1,1,20.15,40.3,20.173,20.173,0,0,1,0,20.149Zm2.707,0A17.444,17.444,0,1,0,20.15,2.707,17.444,17.444,0,0,0,2.707,20.149Zm23.169-.007a3.169,3.169,0,1,1,3.169,3.169A3.169,3.169,0,0,1,25.876,20.142Zm-8.894,0a3.168,3.168,0,1,1,3.169,3.169A3.169,3.169,0,0,1,16.982,20.142Zm-8.894,0a3.168,3.168,0,1,1,3.169,3.169A3.169,3.169,0,0,1,8.088,20.142Z" fill="gray"/>
</svg>
