<svg xmlns="http://www.w3.org/2000/svg" width="37.725" height="36.033" viewBox="0 0 37.725 36.033">
  <path id="Path_5456" data-name="Path 5456" d="M41.181,36.047h-27.5A5.245,5.245,0,0,1,8.569,30.7V16.561a5.413,5.413,0,0,1,2.256-4.434L24.589.963c.027-.023.054-.044.083-.063a4.919,4.919,0,0,1,5.651.015c.027.02.056.041.083.063L44.059,12.134a5.413,5.413,0,0,1,2.235,4.419V30.7A5.242,5.242,0,0,1,41.181,36.047ZM26.249,3.1,12.485,14.262c-.026.021-.054.042-.083.062a2.707,2.707,0,0,0-1.126,2.239V30.7a2.536,2.536,0,0,0,2.406,2.645h27.5A2.537,2.537,0,0,0,43.587,30.7V16.553a2.707,2.707,0,0,0-1.119-2.235c-.029-.02-.056-.041-.083-.063L28.737,3.105a2.233,2.233,0,0,0-2.489,0Z" transform="translate(-8.569 -0.014)" fill="#ffa31a"/>
</svg>
