<svg xmlns="http://www.w3.org/2000/svg" width="40.305" height="40.3" viewBox="0 0 40.305 40.3">
  <path id="Union_69" data-name="Union 69" d="M18.725,40.3a3.183,3.183,0,0,1-3.173-3.187V35.429A15.778,15.778,0,0,1,12.6,34.207L11.412,35.4a3.181,3.181,0,0,1-4.495,0L4.894,33.387a3.183,3.183,0,0,1,0-4.5L6.085,27.7a15.8,15.8,0,0,1-1.22-2.947H3.179A3.183,3.183,0,0,1,0,21.573V18.716a3.184,3.184,0,0,1,3.179-3.171h1.68A15.885,15.885,0,0,1,6.08,12.6L4.889,11.405a3.18,3.18,0,0,1,0-4.494L6.907,4.893a3.181,3.181,0,0,1,4.495,0l1.193,1.192a15.864,15.864,0,0,1,2.947-1.222V3.179A3.182,3.182,0,0,1,18.72,0h2.857a3.183,3.183,0,0,1,3.179,3.171V4.856A15.838,15.838,0,0,1,27.7,6.078l1.192-1.193a3.184,3.184,0,0,1,4.5,0L35.407,6.9a3.183,3.183,0,0,1,0,4.5l-1.191,1.191a15.758,15.758,0,0,1,1.222,2.949h1.683A3.182,3.182,0,0,1,40.3,18.72v2.857a3.183,3.183,0,0,1-3.179,3.179H35.443A15.838,15.838,0,0,1,34.221,27.7l1.191,1.192a3.183,3.183,0,0,1,0,4.5l-2.017,2.016a3.182,3.182,0,0,1-4.5,0l-1.192-1.193a15.781,15.781,0,0,1-2.947,1.223v1.684A3.183,3.183,0,0,1,21.582,40.3ZM13.1,31.368a13.119,13.119,0,0,0,4.1,1.7,1.351,1.351,0,0,1,1.052,1.32v2.726a.479.479,0,0,0,.473.472h2.857a.478.478,0,0,0,.472-.472V34.387a1.353,1.353,0,0,1,1.053-1.32,13.124,13.124,0,0,0,4.1-1.7,1.354,1.354,0,0,1,1.677.188l1.929,1.929a.478.478,0,0,0,.667,0l2.017-2.017a.476.476,0,0,0,0-.667l-1.928-1.929a1.353,1.353,0,0,1-.186-1.684,13.125,13.125,0,0,0,1.7-4.094,1.351,1.351,0,0,1,1.32-1.052h2.726a.479.479,0,0,0,.472-.473l.011-2.855a.479.479,0,0,0-.473-.472H34.407a1.355,1.355,0,0,1-1.32-1.053,13.144,13.144,0,0,0-1.7-4.092,1.353,1.353,0,0,1,.185-1.683L33.5,9.484a.477.477,0,0,0,0-.668L31.487,6.8a.478.478,0,0,0-.667,0L28.89,8.73a1.354,1.354,0,0,1-1.677.187,13.169,13.169,0,0,0-4.1-1.7A1.353,1.353,0,0,1,22.06,5.9V3.171a.478.478,0,0,0-.473-.472H18.73a.478.478,0,0,0-.472.472V5.9a1.353,1.353,0,0,1-1.052,1.32,13.134,13.134,0,0,0-4.1,1.7,1.354,1.354,0,0,1-1.678-.187L9.493,6.8a.481.481,0,0,0-.668,0L6.808,8.813a.48.48,0,0,0,0,.667L8.737,11.41a1.355,1.355,0,0,1,.188,1.68,13.079,13.079,0,0,0-1.7,4.1,1.354,1.354,0,0,1-1.32,1.052H3.179a.478.478,0,0,0-.472.472v2.857a.479.479,0,0,0,.472.473H5.907a1.353,1.353,0,0,1,1.3.973c.009.029.016.058.023.086a13.105,13.105,0,0,0,1.7,4.092,1.355,1.355,0,0,1-.188,1.68L6.8,30.8a.478.478,0,0,0,0,.667l2.018,2.017a.478.478,0,0,0,.667,0l1.928-1.928a1.354,1.354,0,0,1,1.678-.189ZM11.674,20.141a8.477,8.477,0,1,1,8.477,8.477A8.477,8.477,0,0,1,11.674,20.141Zm2.708,0a5.769,5.769,0,1,0,5.769-5.769A5.769,5.769,0,0,0,14.382,20.141Z" fill="gray"/>
</svg>
