<svg xmlns="http://www.w3.org/2000/svg" width="40.3" height="35.717" viewBox="0 0 40.3 35.717">
  <path id="Union_65" data-name="Union 65" d="M1.463,35.325A2.923,2.923,0,0,1,0,32.781V4.361A4.361,4.361,0,0,1,4.36,0H35.939A4.361,4.361,0,0,1,40.3,4.361v20.6a4.361,4.361,0,0,1-4.361,4.361H12.723a1.449,1.449,0,0,0-.658.158l-7.519,5.74a1.17,1.17,0,0,1-.15.1,2.924,2.924,0,0,1-2.935.006ZM2.707,4.364V32.784a.227.227,0,0,0,.093.18A.224.224,0,0,0,3,33l7.493-5.721a1.377,1.377,0,0,1,.15-.1,4.148,4.148,0,0,1,2.073-.555H35.939a1.654,1.654,0,0,0,1.655-1.654V4.364a1.655,1.655,0,0,0-1.655-1.655H4.36A1.654,1.654,0,0,0,2.707,4.364ZM18.228,20.625a1.923,1.923,0,1,1,1.923,1.923A1.923,1.923,0,0,1,18.228,20.625ZM18.8,15.65V7.688a1.353,1.353,0,0,1,2.707,0V15.65a1.353,1.353,0,0,1-2.707,0Z" fill="gray"/>
</svg>
