<svg xmlns="http://www.w3.org/2000/svg" width="40.303" height="37.956" viewBox="0 0 40.303 37.956">
  <path id="Union_66" data-name="Union 66" d="M22.39,34.369H17.162a3.167,3.167,0,0,1-3.172-2.9,3.124,3.124,0,0,1,.912-2.444,2.99,2.99,0,0,1,.672-.5,1.639,1.639,0,0,0,.74-.986l.988-3.4a37.229,37.229,0,0,0,.827-3.854,9.143,9.143,0,0,1,18.022,0,37.5,37.5,0,0,0,.831,3.868l.992,3.414a1.625,1.625,0,0,0,.721.972,3.114,3.114,0,0,1-1.525,5.838h-5.28a4.939,4.939,0,0,1-9.5,0Zm4.751.883a2.226,2.226,0,0,0,1.774-.883H25.367A2.228,2.228,0,0,0,27.141,35.251ZM20.8,20.738a39.97,39.97,0,0,1-.893,4.137l-.992,3.416a4.306,4.306,0,0,1-2.027,2.6.3.3,0,0,0-.074.051.411.411,0,0,0-.123.331.451.451,0,0,0,.472.389H37.169a.437.437,0,0,0,.431-.418.452.452,0,0,0-.24-.357,4.3,4.3,0,0,1-1.98-2.568l-.994-3.427a40.106,40.106,0,0,1-.9-4.155,6.436,6.436,0,0,0-12.686,0ZM4.562,32.432A4.567,4.567,0,0,1,0,27.87V7.419A4.567,4.567,0,0,1,4.562,2.857h3.9v-1.5a1.353,1.353,0,1,1,2.707,0v1.5H25.787v-1.5a1.354,1.354,0,0,1,2.708,0v1.5h3.9a4.567,4.567,0,0,1,4.562,4.562v2.793a1.353,1.353,0,0,1-2.707,0V7.419a1.857,1.857,0,0,0-1.855-1.855h-3.9V7.505a1.354,1.354,0,0,1-2.708,0V5.564H11.168V7.505a1.353,1.353,0,0,1-2.707,0V5.559h-3.9A1.857,1.857,0,0,0,2.707,7.415V27.866a1.858,1.858,0,0,0,1.855,1.86H9.224a1.353,1.353,0,0,1,0,2.707Z" fill="gray"/>
</svg>
