<svg xmlns="http://www.w3.org/2000/svg" width="40.263" height="40.3" viewBox="0 0 40.263 40.3">
  <path id="Union_68" data-name="Union 68" d="M29.8,40.3a1.354,1.354,0,0,1-1.354-1.354v-16.3A1.353,1.353,0,0,1,29.8,21.3h2.415a4.361,4.361,0,0,1,4.361,4.368V35.939A4.361,4.361,0,0,1,32.219,40.3Zm1.353-2.715h1.062a1.654,1.654,0,0,0,1.655-1.654V25.656A1.654,1.654,0,0,0,32.219,24H31.157ZM8.043,40.3a4.361,4.361,0,0,1-4.361-4.361V25.656A4.361,4.361,0,0,1,8.043,21.3h2.415a1.352,1.352,0,0,1,1.353,1.353v16.3A1.353,1.353,0,0,1,10.458,40.3ZM6.389,25.656V35.931a1.654,1.654,0,0,0,1.655,1.654H9.1V24H8.043A1.654,1.654,0,0,0,6.389,25.656Zm31.167,5.853v-11c0-9.651-7.98-17.806-17.425-17.806S2.707,10.861,2.707,20.512v11a1.353,1.353,0,0,1-2.707,0v-11A20.58,20.58,0,0,1,5.883,6.1a19.7,19.7,0,0,1,28.5-.007,20.576,20.576,0,0,1,5.884,14.419v11a1.353,1.353,0,0,1-2.707,0Z" fill="gray"/>
</svg>
