<svg xmlns="http://www.w3.org/2000/svg" width="91.712" height="14" viewBox="0 0 91.712 14">
  <g id="Group_358" data-name="Group 358" transform="translate(-372 -5802)">
    <path id="Path_4179" data-name="Path 4179" d="M16.674,8.065a.687.687,0,0,0-.587-.807L11.9,6.671,10,2.856A.573.573,0,0,0,9.7,2.562a.742.742,0,0,0-1.027.293L6.842,6.671,2.66,7.258a.444.444,0,0,0-.44.22.709.709,0,0,0,0,1.027L5.228,11.44l-.734,4.182a.931.931,0,0,0,.073.44.742.742,0,0,0,1.027.293l3.742-1.981,3.742,1.981a.55.55,0,0,0,.367.073h.147a.761.761,0,0,0,.587-.88l-.734-4.182,3.008-2.935A.4.4,0,0,0,16.674,8.065Z" transform="translate(370 5799.541)" fill="#ffe600"/>
    <path id="Path_4180" data-name="Path 4180" d="M16.674,8.065a.687.687,0,0,0-.587-.807L11.9,6.671,10,2.856A.573.573,0,0,0,9.7,2.562a.742.742,0,0,0-1.027.293L6.842,6.671,2.66,7.258a.444.444,0,0,0-.44.22.709.709,0,0,0,0,1.027L5.228,11.44l-.734,4.182a.931.931,0,0,0,.073.44.742.742,0,0,0,1.027.293l3.742-1.981,3.742,1.981a.55.55,0,0,0,.367.073h.147a.761.761,0,0,0,.587-.88l-.734-4.182,3.008-2.935A.4.4,0,0,0,16.674,8.065Z" transform="translate(389.521 5799.541)" fill="#ffe600"/>
    <path id="Path_4181" data-name="Path 4181" d="M16.674,8.065a.687.687,0,0,0-.587-.807L11.9,6.671,10,2.856A.573.573,0,0,0,9.7,2.562a.742.742,0,0,0-1.027.293L6.842,6.671,2.66,7.258a.444.444,0,0,0-.44.22.709.709,0,0,0,0,1.027L5.228,11.44l-.734,4.182a.931.931,0,0,0,.073.44.742.742,0,0,0,1.027.293l3.742-1.981,3.742,1.981a.55.55,0,0,0,.367.073h.147a.761.761,0,0,0,.587-.88l-.734-4.182,3.008-2.935A.4.4,0,0,0,16.674,8.065Z" transform="translate(408.067 5799.541)" fill="#ffe600"/>
    <path id="Path_4183" data-name="Path 4183" d="M16.674,8.065a.687.687,0,0,0-.587-.807L11.9,6.671,10,2.856A.573.573,0,0,0,9.7,2.562a.742.742,0,0,0-1.027.293L6.842,6.671,2.66,7.258a.444.444,0,0,0-.44.22.709.709,0,0,0,0,1.027L5.228,11.44l-.734,4.182a.931.931,0,0,0,.073.44.742.742,0,0,0,1.027.293l3.742-1.981,3.742,1.981a.55.55,0,0,0,.367.073h.147a.761.761,0,0,0,.587-.88l-.734-4.182,3.008-2.935A.4.4,0,0,0,16.674,8.065Z" transform="translate(427.588 5799.541)" fill="#ffe600"/>
    <path id="Union_8" data-name="Union 8" d="M2.51,13.261a.682.682,0,0,1,.01-.121l.71-4.165L.22,6.025A.736.736,0,0,1,.629,4.772l4.155-.608L6.641.381a.763.763,0,0,1,1.321,0L9.818,4.164l4.155.608a.735.735,0,0,1,.409,1.252l-3.01,2.951.71,4.165a.735.735,0,0,1-1.069.773L7.3,11.951,3.588,13.913A.728.728,0,0,1,3.244,14,.736.736,0,0,1,2.51,13.261Zm4.963-2.052,3.885,2.054-.743-4.354a.369.369,0,0,1,.106-.324L13.869,5.5,9.52,4.865a.371.371,0,0,1-.277-.2L7.3.705V11.168h0A.372.372,0,0,1,7.473,11.209Z" transform="translate(449.109 5802)" fill="#ffe600"/>
  </g>
</svg>
