<svg xmlns="http://www.w3.org/2000/svg" xmlns:xlink="http://www.w3.org/1999/xlink" width="277.999" height="153.829" viewBox="0 0 277.999 153.829">
  <defs>
    <filter id="Path_5417" x="0" y="0" width="275.999" height="151.829" filterUnits="userSpaceOnUse">
      <feOffset dx="-4" dy="-4" input="SourceAlpha"/>
      <feGaussianBlur stdDeviation="5" result="blur"/>
      <feFlood flood-color="#3a3a3a" flood-opacity="0.702"/>
      <feComposite operator="in" in2="blur"/>
      <feComposite in="SourceGraphic"/>
    </filter>
    <filter id="Path_5419" x="14" y="14" width="263.999" height="139.829" filterUnits="userSpaceOnUse">
      <feOffset dx="4" dy="4" input="SourceAlpha"/>
      <feGaussianBlur stdDeviation="3" result="blur-2"/>
      <feFlood flood-opacity="0.702"/>
      <feComposite operator="in" in2="blur-2"/>
      <feComposite in="SourceGraphic"/>
    </filter>
  </defs>
  <g id="Group_466" data-name="Group 466" transform="translate(-407.001 -453.598)">
    <g transform="matrix(1, 0, 0, 1, 407, 453.6)" filter="url(#Path_5417)">
      <path id="Path_5417-2" data-name="Path 5417" d="M202.363,120.248,245.2,63.3a3.975,3.975,0,0,0,0-4.775L202.363,1.581A3.975,3.975,0,0,0,199.194,0H.362A.356.356,0,0,0,.075.575l44.07,58.6a2.888,2.888,0,0,1,0,3.488l-44.07,58.6a.356.356,0,0,0,.288.575H199.194A3.975,3.975,0,0,0,202.363,120.248Z" transform="translate(19 19)" fill="#1b1b1b"/>
    </g>
    <g transform="matrix(1, 0, 0, 1, 407, 453.6)" filter="url(#Path_5419)">
      <path id="Path_5419-2" data-name="Path 5419" d="M202.363,120.248,245.2,63.3a3.975,3.975,0,0,0,0-4.775L202.363,1.581A3.975,3.975,0,0,0,199.194,0H.362A.356.356,0,0,0,.075.575l44.07,58.6a2.888,2.888,0,0,1,0,3.488l-44.07,58.6a.356.356,0,0,0,.288.575H199.194A3.975,3.975,0,0,0,202.363,120.248Z" transform="translate(19 19)" fill="#1b1b1b"/>
    </g>
    <path id="Path_5418" data-name="Path 5418" d="M122.66,120.248,165.493,63.3a3.956,3.956,0,0,0,0-4.775L122.66,1.581A3.975,3.975,0,0,0,119.491,0H.362A.356.356,0,0,0,.075.575l44.07,58.6a2.888,2.888,0,0,1,0,3.488l-44.07,58.6a.356.356,0,0,0,.288.575H119.491A3.975,3.975,0,0,0,122.66,120.248Z" transform="translate(426.001 472.598)" fill="#ffa31a"/>
    <text id="_03" data-name="03" transform="translate(495.966 546.974)" fill="#fff" font-size="43" font-family="Poppins-SemiBold, Poppins" font-weight="600" letter-spacing="-0.02em"><tspan x="0" y="0">03</tspan></text>
  </g>
</svg>
