<svg xmlns="http://www.w3.org/2000/svg" width="37" height="36.992" viewBox="0 0 37 36.992">
  <g id="_3" data-name="3" transform="translate(-9.888 -9.94)">
    <path id="Path_14049" data-name="Path 14049" d="M46.888,29.808v.867a.707.707,0,0,0-.1.134A1.745,1.745,0,0,1,45,32a.628.628,0,0,0-.756.518,3.1,3.1,0,0,1-1.544,1.7,3.906,3.906,0,0,0,.74.388,3.486,3.486,0,0,1,2.853,3.64V46.92c-.107.005-.178.011-.248.011H11.738A1.782,1.782,0,0,1,9.9,45.083c0-2.974-.023-5.948.006-8.921a7.017,7.017,0,0,1,2.94-5.755c.071-.054.135-.116.207-.179a5.738,5.738,0,0,1-1.954-4.3c-.015-2.613-.049-5.226.012-7.837a8.268,8.268,0,0,1,6.257-7.884c.376-.1.752-.179,1.128-.268h1.8c.036.023.07.062.107.065a8.307,8.307,0,0,1,7.117,6.216c.145.587.213,1.193.318,1.8a7.2,7.2,0,0,1,10.7,5.825,9.443,9.443,0,0,1,1.182-.168c1.191-.023,2.384-.021,3.575-.005a3.676,3.676,0,0,1,3.428,2.576c.055.176.109.353.164.526V28A1.5,1.5,0,0,0,46.888,29.808ZM25.815,34.841a1.748,1.748,0,0,0-.4,1.364q.011,4.551,0,9.1v.4h2.371c.006-.083.014-.141.014-.2,0-3.141.023-6.284-.011-9.425a5.738,5.738,0,0,0-2.07-4.4,5.647,5.647,0,0,0-2.8-1.342c-.21,1.255-.417,2.484-.63,3.746-.134-.059-.241-.1-.345-.15-.743-.369-1.489-.73-2.223-1.115a.532.532,0,0,0-.563.007c-.746.389-1.5.755-2.255,1.128-.089.044-.184.075-.3.128-.213-1.268-.42-2.5-.627-3.724-3.053.349-5.452,3.85-4.83,7.016h2.339c-.093-.87.242-1.775-.4-2.547l.82-.821c1.022.942.716,2.194.782,3.383H15.7a1.206,1.206,0,0,1,1.353,1.36V45.7h7.157V35.968a2.622,2.622,0,0,1,.752-1.947Zm-6.373-4.169c.544-.408,1.07-.789,1.579-1.2a.614.614,0,0,0,.205-.4c.023-.54.009-1.082.009-1.629.2-.085.39-.156.572-.247a3.954,3.954,0,0,0,2.383-3.516c.066-1.454.023-2.913,0-4.37a8.066,8.066,0,0,0-.158-1.086l-.132-.062-.946,1.1-1.128-1.684-1.2,1.778-1.194-1.776-1.385,2.065A5.817,5.817,0,0,0,15.933,16.1a4.9,4.9,0,0,0-1.258,3.236c-.021,1.4-.011,2.793,0,4.19a3.608,3.608,0,0,0,.1.821,4.014,4.014,0,0,0,2.531,2.932.453.453,0,0,1,.346.526,11.427,11.427,0,0,0,0,1.264.543.543,0,0,0,.156.364C18.336,29.856,18.881,30.251,19.442,30.672Zm15.825,3.452A4.024,4.024,0,0,1,32.828,37.1,3.929,3.929,0,0,1,29,36.608v9.108h8.308a.533.533,0,0,0,.032-.116c0-2.972.019-5.944-.011-8.916a2.742,2.742,0,0,0-2.063-2.561Zm-8.742-14.4a20.238,20.238,0,0,0-.013-2.379,7.118,7.118,0,0,0-9.673-5.713c-3.325,1.343-4.919,4.427-4.521,8.109a4.453,4.453,0,0,1,.827-.226c.283-.026.348-.15.359-.41a6.2,6.2,0,0,1,2.289-4.542,6.62,6.62,0,0,1,2.564,2.486l1.086-1.62,1.191,1.777,1.194-1.777L23.158,17.4l1.175-1.334a7.022,7.022,0,0,1,1.089,3.352ZM34.1,33.817c-.066-.038-.138-.075-.207-.121A2.626,2.626,0,0,1,32.567,31.4a.477.477,0,0,1,.316-.517,3.36,3.36,0,0,0,1.977-2.59c.15-1.147.1-2.32.134-3.5-.35-.044-.633-.086-.917-.116a6.739,6.739,0,0,1-3.415-1.137,1.4,1.4,0,0,0-1.8-.056A1.9,1.9,0,0,0,27.8,25.23c.005.677.016,1.349,0,2.022a3.748,3.748,0,0,0,2.188,3.709c.087.044.2.168.191.249a5.918,5.918,0,0,1-.143,1.246,2.507,2.507,0,0,1-1.318,1.533,2.687,2.687,0,0,0,2.6,2.195A2.765,2.765,0,0,0,34.1,33.817Zm10.54,2.7-.113.012a4.2,4.2,0,0,1-2.706,1.945,4.248,4.248,0,0,1-3.275-.615v7.849h6.532c0-2.659.02-5.292-.02-7.923A4.356,4.356,0,0,0,44.64,36.519ZM37.288,25.5a18.846,18.846,0,0,0-.01-1.966,5.974,5.974,0,0,0-8.795-4.5,1.123,1.123,0,0,0-.7,1.206c.061.807.015,1.624.015,2.474l1.094-.577-.381-.507.948-.705a6.57,6.57,0,0,0,2.344,1.92,7.358,7.358,0,0,0,2.98.684,2.011,2.011,0,0,0-1.212-1.109l.4-1.173a9.479,9.479,0,0,1,1.061.658,2.9,2.9,0,0,1,1.1,2.33v1.2ZM43.5,35.858l-.346-.08a2.005,2.005,0,0,1-1.636-2.043.4.4,0,0,1,.334-.477A1.984,1.984,0,0,0,43.3,31.251c.007-.457,0-.914,0-1.372,0-.677-.168-.843-.855-.86a7.227,7.227,0,0,1-2.661-.574c-.414-.176-.814-.384-1.235-.585,0,1.246-.043,2.47.014,3.69a1.867,1.867,0,0,0,1.363,1.694l.376.138c.063,1.42-.368,1.984-1.861,2.473.059.566.965,1.287,1.841,1.463A2.948,2.948,0,0,0,43.5,35.858ZM41.527,24.877v.01c-.677,0-1.349-.026-2.021.007-.827.041-.971.235-.991,1.043a.686.686,0,0,0,.334.652A6.858,6.858,0,0,0,42.7,27.845a1.915,1.915,0,0,1,1.194.434.711.711,0,0,0,.376.15,6.9,6.9,0,0,0,.977,0,.384.384,0,0,0,.274-.195,2.454,2.454,0,0,0-2.184-3.355C42.731,24.86,42.129,24.877,41.527,24.877ZM14.111,45.711h1.734V38.6H11.1v1.235a2.9,2.9,0,0,1,3.441,2.151A4.922,4.922,0,0,1,14.111,45.711ZM12.286,24.02c0,.708-.037,1.419.008,2.125a4.575,4.575,0,0,0,1.661,3.283.5.5,0,0,0,.552.082c.526-.165,1.066-.277,1.6-.425.127-.035.345-.137.34-.189-.028-.26.185-.575-.174-.775a5.256,5.256,0,0,1-2.7-3.645.354.354,0,0,0-.213-.219C13.015,24.166,12.664,24.1,12.286,24.02ZM26.6,23.968c-.2.075-.346.14-.493.182a1.574,1.574,0,0,1-.457.089c-.242-.006-.322.1-.371.324a5.031,5.031,0,0,1-2.435,3.413.729.729,0,0,0-.423.86.376.376,0,0,0,.226.238q.9.248,1.809.451a.555.555,0,0,0,.411-.065,4.564,4.564,0,0,0,1.378-1.815c.513-1.177.295-2.411.356-3.678ZM13.491,43.394c-.014-.31-.01-.588-.041-.861a1.769,1.769,0,0,0-1.668-1.56.575.575,0,0,0-.681.574q-.024,1.8,0,3.6a.566.566,0,0,0,.635.584,1.762,1.762,0,0,0,1.7-1.475C13.48,43.96,13.476,43.658,13.491,43.394ZM37.326,29.025c-.376,0-.725.015-1.07-.005a.376.376,0,0,0-.441.3,4.712,4.712,0,0,1-1.678,2.2c-.112.083-.226.162-.334.238a1.466,1.466,0,0,0,1.228,1.082,1.767,1.767,0,0,1,.387.075.547.547,0,0,0,.639-.165A4.129,4.129,0,0,0,37.326,29.025Zm-9.149,3.852.143.047c.193-.274.4-.54.576-.827.128-.205.066-.356-.15-.5a4.409,4.409,0,0,1-1.463-1.562c-.165-.294-.3-.605-.451-.909l-.99,1.135A7.5,7.5,0,0,1,28.178,32.877ZM13.46,20.718a1.158,1.158,0,0,0,0,2.315Zm11.967,2.338a1.184,1.184,0,0,0,1.16-1.346,1.1,1.1,0,0,0-1.16-.977ZM36.956,33.578l1.038,1.14c.361-.126.827-.08,1-.463l-1.376-1.428Zm-.8-5.739c.425-.009.883.138,1.106-.328a.734.734,0,0,0-.056-.621c-.256-.376-.667-.243-1.052-.234ZM21.684,30.485,20.1,31.676l1.278.638c.1-.613.195-1.179.3-1.829Zm-4.17,1.83,1.278-.64-1.579-1.185c.1.639.193,1.2.3,1.826Zm27.008-1.489c.4-.044.857.141,1.082-.319a.738.738,0,0,0-.026-.6c-.243-.414-.672-.244-1.057-.265Z" fill="#030202"/>
    <path id="Path_14050" data-name="Path 14050" d="M40.011,285.8l-.857-.819a2.625,2.625,0,0,0-.752,1.947v9.737H31.249v-6.956a1.2,1.2,0,0,0-1.353-1.36H28.874c-.066-1.191.24-2.444-.782-3.383l-.82.819c.646.773.311,1.677.4,2.547H25.336c-.622-3.166,1.778-6.667,4.83-7.016.207,1.227.413,2.456.627,3.724.117-.05.212-.083.3-.128.752-.376,1.51-.74,2.255-1.128a.532.532,0,0,1,.563-.007c.734.386,1.48.746,2.223,1.116.1.052.211.095.345.15.213-1.262.419-2.491.63-3.746a5.647,5.647,0,0,1,2.8,1.342,5.738,5.738,0,0,1,2.07,4.4c.035,3.141.011,6.284.011,9.425,0,.059-.008.117-.014.2H39.611v-.4q0-4.551,0-9.1A1.748,1.748,0,0,1,40.011,285.8Zm-5.788-.427a.592.592,0,0,0-.577-.611.6.6,0,0,0-.023,1.2.592.592,0,0,0,.6-.587Zm0,2.375a.594.594,0,0,0-.589-.6.6.6,0,0,0,0,1.2.592.592,0,0,0,.592-.6Z" transform="translate(-14.196 -250.962)" fill="#fd816d"/>
    <path id="Path_14051" data-name="Path 14051" d="M78.174,106.508c-.562-.421-1.107-.816-1.634-1.234a.543.543,0,0,1-.156-.364,11.425,11.425,0,0,1,0-1.264.452.452,0,0,0-.346-.526,4.017,4.017,0,0,1-2.531-2.932,3.608,3.608,0,0,1-.1-.821c-.011-1.4-.02-2.793,0-4.19a4.9,4.9,0,0,1,1.258-3.238,5.819,5.819,0,0,1,2.125,3.544l1.386-2.064L79.365,95.2l1.2-1.778L81.688,95.1,82.634,94l.132.062a8.578,8.578,0,0,1,.158,1.086c.019,1.457.062,2.916,0,4.37a3.957,3.957,0,0,1-2.383,3.516c-.182.091-.376.162-.572.247,0,.546.014,1.088-.009,1.629a.614.614,0,0,1-.205.4C79.245,105.719,78.719,106.1,78.174,106.508Zm1.287-6.664a1.405,1.405,0,0,1-2.575,0l-1.013.51a2.493,2.493,0,0,0,4.6,0Zm-2.579-1.221,1.621.81.53-1.058a2.935,2.935,0,0,0-.426-.226c-.3-.093-.331-.259-.245-.543.15-.5.256-1.017.387-1.549l-1.154-.28c-.241.96-.473,1.887-.712,2.845Zm-1.1-3.3a.6.6,0,1,0,.588.6.594.594,0,0,0-.587-.6Zm4.736,1.2a.6.6,0,1,0-.5-.629A.6.6,0,0,0,80.521,96.515Z" transform="translate(-58.731 -75.836)" fill="#edcdb2"/>
    <path id="Path_14052" data-name="Path 14052" d="M270.455,331.67a2.74,2.74,0,0,1,2.063,2.561c.03,2.971.011,5.944.011,8.916a.533.533,0,0,1-.032.116H264.19v-9.108a3.923,3.923,0,0,0,3.825.492A4.021,4.021,0,0,0,270.455,331.67Z" transform="translate(-235.187 -297.546)" fill="#b5b5b5" opacity="0.5"/>
    <path id="Path_14053" data-name="Path 14053" d="M55.645,34.253l-1.1-.3A7.022,7.022,0,0,0,53.453,30.6l-1.175,1.334-1.331-1.975-1.192,1.775-1.192-1.775-1.09,1.618a6.605,6.605,0,0,0-2.564-2.486,6.187,6.187,0,0,0-2.289,4.542c-.011.259-.071.381-.359.41a5.181,5.181,0,0,0-.827.226c-.4-3.683,1.2-6.765,4.521-8.111a7.119,7.119,0,0,1,9.673,5.713A19.519,19.519,0,0,1,55.645,34.253Z" transform="translate(-29.12 -14.528)" fill="#646c77"/>
    <path id="Path_14054" data-name="Path 14054" d="M254.41,196.74a2.766,2.766,0,0,1-2.781,2.366,2.687,2.687,0,0,1-2.6-2.195,2.507,2.507,0,0,0,1.318-1.533,5.908,5.908,0,0,0,.143-1.246c0-.08-.1-.2-.191-.249a3.746,3.746,0,0,1-2.188-3.709c.018-.677.008-1.348,0-2.022a1.9,1.9,0,0,1,1.059-1.745,1.4,1.4,0,0,1,1.8.056,6.74,6.74,0,0,0,3.415,1.137c.284.029.568.075.917.116-.037,1.18.017,2.354-.134,3.5a3.36,3.36,0,0,1-1.977,2.59.479.479,0,0,0-.316.517,2.625,2.625,0,0,0,1.326,2.294C254.271,196.662,254.344,196.7,254.41,196.74Zm-1.954-5.181c-.619.526-.839.526-1.536.023l-.82.8a1.984,1.984,0,0,0,3.157-.021Zm-1.962-2.605a.6.6,0,1,0-.583.6A.594.594,0,0,0,250.493,188.953Zm3.567.028a.588.588,0,1,0-.6.576.571.571,0,0,0,.6-.573Z" transform="translate(-220.31 -162.923)" fill="#b5b5b5" opacity="0.5"/>
    <path id="Path_14055" data-name="Path 14055" d="M397.281,363.53a4.457,4.457,0,0,1,.422,1.267c.039,2.631.02,5.262.02,7.923H391.19v-7.849a4.235,4.235,0,0,0,5.981-1.33Z" transform="translate(-352.641 -327.011)" fill="#b5b5b5" opacity="0.5"/>
    <path id="Path_14056" data-name="Path 14056" d="M257.466,128.3l-1.15-.06v-1.2a2.907,2.907,0,0,0-1.1-2.33,9.551,9.551,0,0,0-1.061-.658c-.15.437-.269.793-.4,1.173a2.011,2.011,0,0,1,1.212,1.109,7.333,7.333,0,0,1-2.98-.684,6.569,6.569,0,0,1-2.344-1.92l-.948.705.381.507-1.094.577c0-.85.046-1.666-.015-2.474a1.122,1.122,0,0,1,.7-1.206,5.973,5.973,0,0,1,8.795,4.5A19.176,19.176,0,0,1,257.466,128.3Z" transform="translate(-220.178 -102.799)" fill="#b5b5b5" opacity="0.5"/>
    <path id="Path_14057" data-name="Path 14057" d="M394.833,256.347a2.948,2.948,0,0,1-3.212,1.461c-.876-.176-1.782-.9-1.841-1.463,1.493-.489,1.924-1.052,1.861-2.473l-.376-.138a1.867,1.867,0,0,1-1.363-1.694c-.057-1.22-.014-2.444-.014-3.69.421.2.821.409,1.235.585a7.227,7.227,0,0,0,2.661.574c.688.017.854.184.855.86,0,.458.005.915,0,1.372a1.984,1.984,0,0,1-1.451,2.006.4.4,0,0,0-.335.477,2,2,0,0,0,1.636,2.043Z" transform="translate(-351.337 -220.489)" fill="#b5b5b5" opacity="0.5"/>
    <path id="Path_14058" data-name="Path 14058" d="M393.719,208.56c.6,0,1.2-.017,1.8,0a2.454,2.454,0,0,1,2.184,3.355.384.384,0,0,1-.274.195,6.9,6.9,0,0,1-.977,0,.711.711,0,0,1-.376-.15,1.915,1.915,0,0,0-1.194-.434,6.859,6.859,0,0,1-3.848-1.258.686.686,0,0,1-.334-.652c.022-.8.172-1,.994-1.04.672-.033,1.347-.007,2.021-.007Z" transform="translate(-352.192 -183.683)" fill="#b5b5b5" opacity="0.5"/>
    <path id="Path_14059" data-name="Path 14059" d="M29.087,398.294a4.922,4.922,0,0,0,.434-3.728,2.9,2.9,0,0,0-3.441-2.151V391.18h4.741v7.114Z" transform="translate(-14.975 -352.583)" fill="#dfe2e6"/>
    <path id="Path_14060" data-name="Path 14060" d="M41.616,197.26c.376.081.729.145,1.073.238a.354.354,0,0,1,.213.219,5.273,5.273,0,0,0,2.7,3.645c.359.2.147.515.174.775.005.052-.213.15-.34.189-.526.15-1.072.259-1.6.425a.493.493,0,0,1-.552-.082,4.577,4.577,0,0,1-1.663-3.283C41.579,198.679,41.616,197.968,41.616,197.26Z" transform="translate(-29.33 -173.24)" fill="#646b76"/>
    <path id="Path_14061" data-name="Path 14061" d="M180.55,196.56c-.061,1.267.158,2.5-.357,3.676a4.564,4.564,0,0,1-1.378,1.815.555.555,0,0,1-.411.065q-.91-.2-1.809-.451a.376.376,0,0,1-.226-.238.729.729,0,0,1,.423-.86,5.027,5.027,0,0,0,2.435-3.413c.049-.226.129-.33.371-.324a1.574,1.574,0,0,0,.457-.089C180.2,196.7,180.347,196.636,180.55,196.56Z" transform="translate(-153.95 -172.592)" fill="#636b76"/>
    <path id="Path_14062" data-name="Path 14062" d="M28.268,425.185c-.015.267-.011.569-.053.865a1.758,1.758,0,0,1-1.7,1.475.567.567,0,0,1-.635-.584q-.022-1.8,0-3.6a.576.576,0,0,1,.681-.574,1.769,1.769,0,0,1,1.669,1.557C28.258,424.594,28.253,424.873,28.268,425.185Z" transform="translate(-14.776 -381.791)" fill="#eccdb1"/>
    <path id="Path_14063" data-name="Path 14063" d="M331.564,263.754a4.127,4.127,0,0,1-1.27,3.728.548.548,0,0,1-.639.165,1.77,1.77,0,0,0-.387-.075,1.466,1.466,0,0,1-1.228-1.082c.107-.075.222-.156.334-.238a4.712,4.712,0,0,0,1.678-2.2.38.38,0,0,1,.441-.3C330.839,263.766,331.186,263.754,331.564,263.754Z" transform="translate(-294.238 -234.729)" fill="#b5b5b5" opacity="0.5"/>
    <path id="Path_14064" data-name="Path 14064" d="M224.475,268.986a7.5,7.5,0,0,0-2.335-2.614l.985-1.132c.15.3.286.615.451.909a4.409,4.409,0,0,0,1.463,1.562c.22.143.282.294.15.5-.177.283-.383.55-.576.827Z" transform="translate(-196.298 -236.11)" fill="#b5b5b5" opacity="0.5"/>
    <path id="Path_14065" data-name="Path 14065" d="M43.168,153.32v2.315a1.158,1.158,0,1,1,0-2.315Z" transform="translate(-29.708 -132.602)" fill="#e3c5ab"/>
    <path id="Path_14066" data-name="Path 14066" d="M216.62,155.776v-2.323a1.1,1.1,0,0,1,1.16.977A1.184,1.184,0,0,1,216.62,155.776Z" transform="translate(-191.193 -132.721)" fill="#ecccb1"/>
    <path id="Path_14067" data-name="Path 14067" d="M359.26,233.13v-1.183c.383-.009.794-.143,1.052.234a.734.734,0,0,1,.056.621C360.142,233.268,359.685,233.121,359.26,233.13Z" transform="translate(-323.111 -205.291)" fill="#b5b5b5" opacity="0.5"/>
    <path id="Path_14068" data-name="Path 14068" d="M147.238,283.26c-.11.649-.206,1.215-.31,1.829l-1.278-.638Z" transform="translate(-125.557 -252.775)" fill="#f0694d"/>
    <path id="Path_14069" data-name="Path 14069" d="M107.591,285.146c-.1-.628-.2-1.187-.3-1.826l1.579,1.185Z" transform="translate(-90.081 -252.831)" fill="#f26a4e"/>
    <path id="Path_14070" data-name="Path 14070" d="M470.59,272.97v-1.188c.385.021.814-.15,1.057.265a.738.738,0,0,1,.026.6C471.448,273.111,470.992,272.926,470.59,272.97Z" transform="translate(-426.072 -242.144)" fill="#b5b5b5" opacity="0.5"/>
    <path id="Path_14071" data-name="Path 14071" d="M130,327.955a.592.592,0,0,1-.6.587.6.6,0,1,1,.6-.587Z" transform="translate(-109.976 -293.542)" fill="#080403"/>
    <path id="Path_14072" data-name="Path 14072" d="M130.309,359.721a.589.589,0,1,1-1.179,0,.6.6,0,0,1,.589-.6.594.594,0,0,1,.589.6Z" transform="translate(-110.279 -322.933)" fill="#080403"/>
    <path id="Path_14073" data-name="Path 14073" d="M109.988,197.081l1.012.509a2.493,2.493,0,0,1-4.6,0l1.013-.51A1.4,1.4,0,0,0,109.988,197.081Z" transform="translate(-89.258 -173.073)" fill="#050404"/>
    <path id="Path_14074" data-name="Path 14074" d="M119.82,145.845c.24-.958.471-1.885.712-2.845l1.155.283c-.131.532-.236,1.048-.387,1.549-.086.283-.058.451.245.543a2.422,2.422,0,0,1,.426.226l-.53,1.058Z" transform="translate(-101.669 -123.058)" fill="#040303"/>
    <path id="Path_14075" data-name="Path 14075" d="M98.625,136.91a.6.6,0,1,1-.538.6A.6.6,0,0,1,98.625,136.91Z" transform="translate(-81.57 -117.426)" fill="#070605"/>
    <path id="Path_14076" data-name="Path 14076" d="M162.044,138.114a.6.6,0,1,1,.575-.565A.6.6,0,0,1,162.044,138.114Z" transform="translate(-140.252 -117.435)" fill="#070605"/>
    <path id="Path_14077" data-name="Path 14077" d="M276.979,258.66l.8.8a1.984,1.984,0,0,1-3.157.021l.825-.8C276.141,259.187,276.361,259.188,276.979,258.66Z" transform="translate(-244.833 -230.024)" fill="#b5b5b5" opacity="0.5"/>
    <path id="Path_14078" data-name="Path 14078" d="M265.111,216.958a.6.6,0,1,1-.615-.572A.6.6,0,0,1,265.111,216.958Z" transform="translate(-234.927 -190.927)" fill="#b5b5b5" opacity="0.5"/>
    <path id="Path_14079" data-name="Path 14079" d="M312.9,217.01a.588.588,0,1,1-.575-.6.574.574,0,0,1,.575.6Z" transform="translate(-279.146 -190.948)" fill="#b5b5b5" opacity="0.5"/>
  </g>
</svg>
