<svg xmlns="http://www.w3.org/2000/svg" width="119.5" height="93.911" viewBox="0 0 119.5 93.911">
    <path id="XMLID_1732_" d="M119.24,32.172l-13.9,43.773a7.366,7.366,0,0,1-7.014,5.2H44.683a7.66,7.66,0,0,1-7.144-4.806L17.016,21.391H5.2A5.2,5.2,0,0,1,5.2,11H20.653a5.319,5.319,0,0,1,4.936,3.507L46.761,70.75H96.12L107.16,35.679H45.982a5.2,5.2,0,0,1,0-10.391H114.3a5.164,5.164,0,0,1,4.157,2.208,5.037,5.037,0,0,1,.779,4.676ZM47.28,88.026a8.426,8.426,0,1,0,5.975,2.468A8.566,8.566,0,0,0,47.28,88.026Zm46.631,0a8.443,8.443,0,1,0,5.975,14.418c1.559-1.559,2.468-5.975,2.468-5.975s-.909-4.416-2.468-5.975A8.566,8.566,0,0,0,93.911,88.026Z" transform="translate(0 -11)" fill="#fff"/>
  </svg>
  