<svg id="Layer_2" data-name="Layer 2" xmlns="http://www.w3.org/2000/svg" width="115.579" height="111" viewBox="0 0 115.579 111">
  <g id="Layer_1" data-name="Layer 1" transform="translate(0 0)">
    <path id="Path_13592" data-name="Path 13592" d="M115.543,55.666v86.218c-1.583,3.811-2.979,4.725-7.212,4.725H6.663c-4.408,0-6.688-2.261-6.688-6.649V62.1c0-1.809-.024-3.618,0-5.427a5.672,5.672,0,0,1,4.167-5.427,10.134,10.134,0,0,1,2.566-.256q49.54-.018,99.072,0c1.242,0,2.485-.018,3.724,0a5.785,5.785,0,0,1,5.813,4.279A2.458,2.458,0,0,0,115.543,55.666ZM17.572,108.254v14.9c0,1.869.627,2.491,2.506,2.491H36.215c1.875,0,2.545-.642,2.545-2.482V93.483c0-1.839-.669-2.5-2.536-2.506H20.09c-1.894,0-2.515.63-2.518,2.5Q17.569,100.864,17.572,108.254Zm50.792,0V93.585c0-1.954-.624-2.605-2.536-2.608H49.69c-1.875,0-2.524.654-2.524,2.5v29.676c0,1.845.654,2.485,2.533,2.485H65.834c1.869,0,2.527-.645,2.527-2.491Q68.37,115.7,68.364,108.254ZM87.61,125.64c2.819,0,5.638.015,8.458,0a1.885,1.885,0,0,0,2.111-1.963c-.03-1.17-.874-1.866-2.228-1.869H82.641c-1.577,0-1.779-.19-1.782-1.719v-8.12c0-1.508.184-1.7,1.676-1.7H95.842c1.649,0,2.34-.7,2.343-2.331q.018-7.333,0-14.663c0-1.583-.666-2.237-2.274-2.28-.751-.021-1.508,0-2.255,0H79.333c-1.438,0-2.307.763-2.31,1.915s.886,1.888,2.31,1.939H92.754c1.387,0,1.586.2,1.589,1.553v8.343c0,1.468-.205,1.667-1.713,1.667H79.321c-1.6,0-2.3.672-2.307,2.249q-.03,7.327,0,14.66c0,1.64.712,2.313,2.364,2.319C82.119,125.649,84.863,125.643,87.61,125.64ZM52.461,70.763H42.309c-1.453,0-2.322.7-2.358,1.851S40.835,74.6,42.3,74.6H62.385c1.468,0,2.391-.8,2.355-1.984s-.9-1.851-2.352-1.854c-3.314,0-6.631.009-9.926.009Zm20.4,0h-.675a1.915,1.915,0,1,0-.051,3.829,9.171,9.171,0,0,0,1.809-.03,1.906,1.906,0,0,0-.172-3.79c-.308-.012-.609.009-.911.009Z" transform="translate(0.036 -35.608)" fill="#fff"/>
    <path id="Path_13593" data-name="Path 13593" d="M84.574,5.85c0,1.167.021,2.331,0,3.5-.027,1.357-.766,2.171-1.918,2.18s-1.909-.781-1.918-2.15q-.027-3.618,0-7.218A1.926,1.926,0,0,1,82.548.007a2.013,2.013,0,0,1,2.008,2.111C84.6,3.369,84.574,4.611,84.574,5.85Z" transform="translate(-56.374 -0.004)" fill="#fff"/>
    <path id="Path_13594" data-name="Path 13594" d="M293.63,5.949c0,1.206.027,2.412,0,3.618a1.831,1.831,0,0,1-1.869,1.963,1.854,1.854,0,0,1-1.945-1.909q-.072-3.835,0-7.671A1.9,1.9,0,1,1,293.621,2C293.661,3.317,293.63,4.634,293.63,5.949Z" transform="translate(-202.394 0)" fill="#fff"/>
    <path id="Path_13595" data-name="Path 13595" d="M71.075,209.89V198.04c0-1.366.2-1.574,1.562-1.58H83.018c1.3,0,1.544.238,1.544,1.508v23.923c0,1.248-.286,1.508-1.529,1.508-3.5,0-7-.018-10.493,0-1.058,0-1.49-.389-1.48-1.462C71.1,217.934,71.075,213.909,71.075,209.89Z" transform="translate(-49.623 -137.223)" fill="#fff"/>
    <path id="Path_13596" data-name="Path 13596" d="M169.25,209.841V198.009c0-1.372.214-1.6,1.55-1.6q5.237,0,10.481-.015c1.043,0,1.49.4,1.486,1.468-.021,8,0,16-.015,24,0,1.236-.271,1.489-1.55,1.493H170.836c-1.339,0-1.583-.241-1.586-1.568Q169.24,215.82,169.25,209.841Z" transform="translate(-118.203 -137.174)" fill="#fff"/>
  </g>
</svg>
