<svg id="Group_754" data-name="Group 754" xmlns="http://www.w3.org/2000/svg" width="111" height="111" viewBox="0 0 111 111">
  <g id="Group_753" data-name="Group 753" transform="translate(0 0)">
    <path id="Path_13590" data-name="Path 13590" d="M45.248,6.487A5.885,5.885,0,0,1,45.8,8.312l1.545,22.977h0l.767,11.549a11.868,11.868,0,0,0,.553,3.5,5.787,5.787,0,0,0,5.58,3.5l36.948-2.417a6.1,6.1,0,0,1,4.3,1.664,5.885,5.885,0,0,1,1.773,3.379l.065.777A48.185,48.185,0,0,1,59.121,96.632,49.153,49.153,0,0,1,5.887,72.972a45.589,45.589,0,0,1-5.53-17.46,33.4,33.4,0,0,1-.352-5.475C-.028,27.339,16.136,7.716,38.763,2.985A6.055,6.055,0,0,1,45.248,6.487Z" transform="translate(0 13.247)" fill="#45c9a5"/>
    <path id="Path_13591" data-name="Path 13591" d="M14.733,0C40.041.648,61.31,18.847,65.4,43.358l-.039.181h0l-.112.263.016.722a4.442,4.442,0,0,1-1.063,2.62,4.593,4.593,0,0,1-2.566,1.506l-.608.083L18.4,51.5a5.087,5.087,0,0,1-3.884-1.258,4.9,4.9,0,0,1-1.6-2.982L10.058,4.69a.676.676,0,0,1,0-.444,4.355,4.355,0,0,1,1.434-3.079A4.525,4.525,0,0,1,14.733,0Z" transform="translate(45.595 0)" fill="gray"/>
  </g>
  <text id="_70_" data-name="70%" transform="translate(41 86)" fill="#fff" font-size="20" font-family="Poppins-Regular, Poppins"><tspan x="-19.33" y="0">70%</tspan></text>
</svg>
