<svg xmlns="http://www.w3.org/2000/svg" xmlns:xlink="http://www.w3.org/1999/xlink" width="93.517" height="108.814" viewBox="0 0 93.517 108.814">
  <defs>
    <linearGradient id="linear-gradient" x1="0.5" x2="0.5" y2="1" gradientUnits="objectBoundingBox">
      <stop offset="0" stop-color="#b86e00"/>
      <stop offset="1" stop-color="#feb12e"/>
    </linearGradient>
    <linearGradient id="linear-gradient-3" x1="0.5" y1="0.041" x2="0.5" y2="0.793" gradientUnits="objectBoundingBox">
      <stop offset="0" stop-color="#ffa31a"/>
      <stop offset="1" stop-color="#ffb840"/>
    </linearGradient>
  </defs>
  <g id="Group_690" data-name="Group 690" transform="translate(-1361.15 -3355.224)">
    <g id="Group_689" data-name="Group 689" transform="translate(1361.15 3355.224)">
      <path id="Path_5505" data-name="Path 5505" d="M1790.175,35.3c1.739-.1,3.85,5.712,5.354,13.8h-9.088a31.285,31.285,0,0,1,.91-7.342c.667-2.7,1.573-6.389,2.822-6.461Z" transform="translate(-1702.011 -35.291)" fill="url(#linear-gradient)"/>
      <path id="Path_5506" data-name="Path 5506" d="M1419.913,35.3c-1.739-.1-3.85,5.712-5.353,13.8h9.088a31.3,31.3,0,0,0-.91-7.342c-.667-2.7-1.573-6.389-2.822-6.461Z" transform="translate(-1414.56 -35.291)" fill="url(#linear-gradient)"/>
      <path id="Path_5507" data-name="Path 5507" d="M1521.081,35.289c-.148-.007-.3-.009-.456-.009s-.3,0-.438.007h-80.912c-.141,0-.288-.007-.438-.007s-.309,0-.456.009c.613,1.194,1.04,2.2,1.31,2.872a31.224,31.224,0,0,1,2.373,11.056c0,.856,0,1.71-.009,2.565h.009v55.972h0v33.825a2.5,2.5,0,0,0,4.538,1.455c7.932-11.243,20.079-21.191,32.87-21.375,13.188-.191,25.359,9.8,33.387,21.311a2.5,2.5,0,0,0,4.543-1.448V51.783h.009q0-1.284-.009-2.565a31.226,31.226,0,0,1,2.372-11.056c.27-.674.7-1.68,1.31-2.872Z" transform="translate(-1432.972 -35.28)" fill="url(#linear-gradient-3)"/>
    </g>
    <text id="Upto_50_Off" data-name="Upto
50%
Off" transform="translate(1407.908 3382.126)" fill="#fff" font-size="20" font-family="Poppins-Regular, Poppins"><tspan x="-23.55" y="0">Upto</tspan><tspan x="-20.15" y="25">50%</tspan><tspan x="-14.44" y="50">Off</tspan></text>
  </g>
</svg>
