<svg xmlns="http://www.w3.org/2000/svg" width="56" height="70" viewBox="0 0 56 70">
  <path id="Union_16" data-name="Union 16" d="M39,69,33,51H23L18,69c-.186.55-1.419,1-2,1-.148,0,.139-.949,0-1a.9.9,0,0,0-.468.056c-.227.069-.436.139-.532-.056a1.159,1.159,0,0,1,0-1l6-17H4c-2.01,0-4-.99-4-3V9A4.285,4.285,0,0,1,4,5H21c.652-3.14,3.793-5,7-5s6.349,1.859,7,5H53c2.01,0,3,1.99,3,4V48c0,2.01-.99,3-3,3H36l5,17c.237.712-.289.763-1,1-.139.051.149,1,0,1C39.419,70,39.186,69.549,39,69ZM49,29V49h4a1.06,1.06,0,0,0,1-1V9a1.06,1.06,0,0,0-1-1H4A1.06,1.06,0,0,0,3,9V48a1.06,1.06,0,0,0,1,1H8V43c-.05-.515-.439-.727,0-1a2.546,2.546,0,0,1,2,0c.439.274,1.05.486,1,1v6h3V42a2.713,2.713,0,0,1,2-2c.75,0,1,1.25,1,2v7h3V41c0-.75.25-1,1-1s2,.25,2,1v8h4V34c0-.751.249-1,1-1s1,.25,1,1V49h4V38c0-.751.249-2,1-2a2.712,2.712,0,0,1,2,2V49h3V33c0-.75,1.25-1,2-1s1,.25,1,1V49h4V29c0-.751,1.25-1,2-1S49,28.249,49,29ZM24,5h8c-.585-1.616-2.281-2.011-4-2h-.089C26.222,3,24.573,3.409,24,5ZM10,39c-.36,0-.745.257-1,0a1.469,1.469,0,0,1,0-2l5-5a1.467,1.467,0,0,1,2,0l2,3L28,25c.247-.259.643-.006,1,0,.363-.01.751-.263,1,0l3,3L44,17H42c-.515.05-.727-.561-1-1a.713.713,0,0,1,0-1c.273-.439.485-1.05,1-1h7v7c0,.751-.25,1-1,1s-2-.249-2-1V19L34,31c-.255.256-.639,0-1,0s-.745.256-1,0l-3-3L19,38c-.253.258-.638,0-1,0s-.747.258-1,0l-2-3-4,4a.384.384,0,0,1-.3.119C10.49,39.119,10.239,39.006,10,39ZM8,26a2.712,2.712,0,0,1,2-2c.751,0,1,1.249,1,2s-.249,1-1,1S8,26.75,8,26Zm0-6c0-.751,1.25-1,2-1s1,.249,1,1-.249,2-1,2A2.712,2.712,0,0,1,8,20Zm1-4c-.391-.388-1.21-1.491-1-2a2.853,2.853,0,0,1,2-1c.359,0,.745.748,1,1s0,.641,0,1c.005.55-.492.786-1,1a2.024,2.024,0,0,1-.6.23C9.284,16.23,9.169,16.167,9,16Zm40-.983v0ZM49,14v0Zm0,0h0c0-.011.005-.005.005,0s0,.006,0,.006S49,14,49,14Z" fill="#f7971e"/>
</svg>
