<svg width="31" height="112" viewBox="0 0 31 112" fill="none" xmlns="http://www.w3.org/2000/svg">
<path d="M14.0875 110.182L14.3355 1.64007C14.337 0.959218 14.7907 0.407674 15.3481 0.408947C15.9055 0.410221 16.3566 0.963833 16.3551 1.64469L16.1071 110.187C16.1055 110.869 15.6519 111.419 15.0944 111.418C14.537 111.417 14.0859 110.864 14.0875 110.182Z" fill="white"/>
<path d="M0.0484163 92.9524C0.0491378 92.6366 0.148813 92.3211 0.346261 92.081C0.742171 91.5996 1.38033 91.6011 1.77403 92.0843L15.1016 108.441L28.5038 92.1454C28.8997 91.664 29.5379 91.6655 29.9316 92.1486C30.3253 92.6318 30.3235 93.4113 29.9276 93.8927L15.8095 111.058C15.4136 111.54 14.7755 111.538 14.3818 111.055L0.342276 93.8251C0.14492 93.5829 0.0476947 93.2681 0.0484163 92.9524Z" fill="white"/>
</svg>
