<svg width="138" height="41" viewBox="0 0 138 41" fill="none" xmlns="http://www.w3.org/2000/svg">
<path fill-rule="evenodd" clip-rule="evenodd" d="M113.743 6.71772V0H120.461V6.71772H113.743ZM96.5134 20.1532L103.233 13.4354V6.71772H109.949V13.4354L103.233 20.1532H96.5134ZM6.71772 20.1532H6.73166V33.3315H13.4494V13.4354H6.71772V20.1532ZM0 40.3094V0H6.71772V6.71772H20.1532V26.874V33.3315H20.3235V40.3094L0 40.3094ZM31.2038 20.1532H37.9215V13.4354H31.2038V20.1532ZM24.3885 40.3094V33.3316H24.4861V6.71773H44.6392V26.874H31.2038V33.3316H37.666H44.712V40.3094H24.3885ZM61.7928 40.3094H55.2811H55.0751H55.0101H48.3574H48.235V33.3316H48.3574V26.874V20.1532V13.4354V6.71773V1e-05H55.0751V6.71773H61.7928V13.4354H55.0751V20.1532V26.874V33.3316H55.2811H62.0561V40.3094H61.7928ZM72.5709 33.3315H79.2871V26.874H72.5709V33.3315ZM65.8625 40.3094V33.3316V20.1532H79.2979V13.4354H65.8516V6.71773H86.0048V26.874L86.0187 33.3316H86.1875V40.3094H65.8625ZM96.5134 40.3094H89.7957H89.6966V33.3316H89.7957V26.874V20.1532V13.4354V6.71773H96.5134V13.4354V20.1532V26.874V33.3316H96.7411V40.3094H96.5134ZM109.949 40.3094H103.233H102.974V33.3316H103.233V26.874V20.1532H109.949V26.874V33.3316H110.02V40.3094H109.949ZM120.461 40.3094H113.743H113.543V33.3316H113.743V26.874V20.1532V13.4354H120.461V20.1532V26.874V33.3316H120.589V40.3094H120.461ZM137.563 40.3094H130.886H130.845H130.615H124.128H124.111V33.3316H124.128V26.874V20.1532V13.4354V6.71773V1e-05H130.845V6.50403H137.566V13.55H130.845V20.1532V26.874V33.3316H130.886H137.566V40.3094L137.563 40.3094Z" fill="#808080"/>
</svg>
