<svg width="82" height="82" viewBox="0 0 82 82" fill="none" xmlns="http://www.w3.org/2000/svg">
<path opacity="0.34" d="M0 41C0 32.891 2.40461 24.9641 6.90975 18.2216C11.4149 11.4792 17.8182 6.22415 25.31 3.12096C32.8018 0.0177646 41.0455 -0.794172 48.9987 0.787822C56.9519 2.36982 64.2574 6.27469 69.9914 12.0086C75.7253 17.7426 79.6302 25.0481 81.2122 33.0013C82.7942 40.9545 81.9823 49.1983 78.8791 56.69C75.7759 64.1818 70.5208 70.5851 63.7784 75.0903C57.036 79.5954 49.109 82 41 82C30.1347 81.972 19.7225 77.6434 12.0395 69.9605C4.3566 62.2775 0.0279823 51.8653 0 41ZM3 41C2.95828 46.0019 3.9127 50.962 5.8076 55.5912C7.70251 60.2204 10.5 64.4261 14.037 67.9631C17.5739 71.5 21.7796 74.2975 26.4088 76.1924C31.038 78.0873 35.9981 79.0417 41 79C46.0019 79.0417 50.962 78.0873 55.5912 76.1924C60.2204 74.2975 64.4261 71.5 67.963 67.9631C71.5 64.4261 74.2975 60.2204 76.1924 55.5912C78.0873 50.962 79.0417 46.0019 79 41C78.972 19.776 62.224 2.02802 41 2.00002C19.765 2.00002 3 19.765 3 41ZM8 41C8 34.4732 9.93542 28.093 13.5615 22.6662C17.1876 17.2394 22.3415 13.0097 28.3714 10.512C34.4014 8.0143 41.0366 7.36079 47.438 8.6341C53.8394 9.90742 59.7194 13.0504 64.3345 17.6655C68.9497 22.2806 72.0926 28.1607 73.3659 34.562C74.6392 40.9634 73.9857 47.5986 71.488 53.6286C68.9903 59.6585 64.7606 64.8124 59.3338 68.4385C53.907 72.0646 47.5268 74 41 74C32.256 73.9736 23.8776 70.4884 17.6946 64.3054C11.5116 58.1224 8.02638 49.744 8 41ZM11 41C10.9573 44.9515 11.7041 48.8718 13.1966 52.5309C14.6891 56.1899 16.8973 59.5141 19.6916 62.3084C22.4859 65.1027 25.8101 67.3109 29.4692 68.8034C33.1282 70.2959 37.0485 71.0427 41 71C57.822 71 72 57.822 72 41C71.8913 32.8121 68.5903 24.9902 62.8001 19.2C57.0098 13.4097 49.1879 10.1088 41 10C24.178 10 11 24.178 11 41ZM16 41C16 26.9 26.9 15 41 15C47.8679 15.0891 54.4295 17.857 59.2862 22.7138C64.143 27.5705 66.9109 34.1321 67 41C66.986 55.084 55.084 65.984 41 66C37.7034 66.0491 34.4306 65.436 31.3753 64.197C28.32 62.958 25.5446 61.1183 23.2133 58.787C20.8821 56.4557 19.0425 53.6801 17.8037 50.6248C16.5648 47.5695 15.9518 44.2966 16.001 41H16ZM18 41C18 45.549 19.3489 49.9958 21.8762 53.7781C24.4035 57.5605 27.9956 60.5084 32.1983 62.2492C36.401 63.9901 41.0255 64.4455 45.4871 63.5581C49.9486 62.6706 54.0469 60.4801 57.2635 57.2635C60.4801 54.0469 62.6706 49.9487 63.5581 45.4871C64.4455 41.0255 63.99 36.401 62.2492 32.1983C60.5084 27.9956 57.5604 24.4035 53.7781 21.8762C49.9958 19.3489 45.549 18 41 18H40.992C37.969 17.9894 34.9738 18.5772 32.179 19.7294C29.3842 20.8816 26.845 22.5755 24.7078 24.7135C22.5706 26.8514 20.8776 29.3912 19.7263 32.1864C18.5751 34.9816 17.9884 37.977 18 41ZM22 41C22 35.9609 24.0018 31.1282 27.565 27.565C31.1282 24.0018 35.9609 22 41 22C46.0391 22 50.8718 24.0018 54.435 27.565C57.9982 31.1282 60 35.9609 60 41C59.988 51.355 51.355 58.995 41 59C30.645 59.005 21.998 51.362 22 41ZM25 41C24.9665 43.1104 25.3575 45.206 26.1497 47.1624C26.9419 49.1187 28.1192 50.8959 29.6117 52.3883C31.1041 53.8808 32.8813 55.0581 34.8377 55.8503C36.794 56.6425 38.8896 57.0335 41 57C43.1104 57.0335 45.206 56.6425 47.1623 55.8503C49.1187 55.0581 50.8959 53.8808 52.3883 52.3883C53.8808 50.8959 55.0581 49.1187 55.8503 47.1624C56.6425 45.206 57.0335 43.1104 57 41C56.995 31.968 50.033 24.006 41 24C31.967 23.994 25.001 31.964 25.001 41H25Z" fill="#F7971E"/>
</svg>
