 <svg xmlns="http://www.w3.org/2000/svg" width="22.629" height="14.613" viewBox="0 0 22.629 14.613">
  <path id="Union_48" data-name="Union 48" d="M14.67,14.581a1.525,1.525,0,0,1-.936-2.619,3.4,3.4,0,0,0,1.132-2.723,4.905,4.905,0,0,1-2.377-5.892,4.651,4.651,0,0,1,1.139-1.827A4.942,4.942,0,0,1,18.8.269a5.506,5.506,0,0,1,3.7,4.419,8.343,8.343,0,0,1-.806,5.3.262.262,0,0,1,0,.053c-2.01,3.168-3.941,4.569-6.37,4.569A4.656,4.656,0,0,1,14.67,14.581Zm-12.236,0A1.525,1.525,0,0,1,1.5,11.962,3.4,3.4,0,0,0,2.63,9.239,4.9,4.9,0,0,1,.253,3.346,4.591,4.591,0,0,1,1.412,1.519,4.937,4.937,0,0,1,6.571.269a5.516,5.516,0,0,1,3.7,4.419,8.343,8.343,0,0,1-.8,5.3v.053c-2.017,3.168-3.942,4.569-6.377,4.569A4.7,4.7,0,0,1,2.434,14.581Z" transform="translate(22.63 14.613) rotate(180)" fill="gray"/>
</svg>