<svg xmlns="http://www.w3.org/2000/svg" width="22.412" height="15.182" viewBox="0 0 22.412 15.182">
  <path id="Union_47" data-name="Union 47" d="M14.63,15c-.6-.049-.8-.435-1-1h0c-.043-.027-.064-.109-.07-.216-.176-.579-.31-1.417.071-1.785a3.888,3.888,0,0,0,1-3,4.869,4.869,0,0,1-2-6V3h0c.227-.674.472-.5.969-.969l.053-.053q.138-.143.283-.283L14.629,1h.106a4.188,4.188,0,0,1,3.894-1,6.7,6.7,0,0,1,4,5,7.575,7.575,0,0,1-1,5c-2.011,3.169-3.571,5-6,5-.14,0-.43.014-.68.014A2.656,2.656,0,0,1,14.63,15Zm-12,0c.081.011.085.014.062.014C2.647,15.015,2.494,15,2.63,15Zm0,0c-.6-.049-1.8-.436-2-1s.569-1.583,1-2a3.885,3.885,0,0,0,1-3,4.863,4.863,0,0,1-2-6c.235-.692.473-.492,1-1,1.33-1.384,3.184-2.622,5-2a6.717,6.717,0,0,1,4,5,7.565,7.565,0,0,1-1,5c-2.016,3.169-4.564,5-7,5Zm19-5v0Z" transform="translate(-0.318 0.167)" fill="gray"/>
</svg>
