<svg width="80" height="19" viewBox="0 0 80 19" fill="none" xmlns="http://www.w3.org/2000/svg">
<path opacity="0.4" d="M79.642 1.63293H79.589C79.5848 2.0628 79.418 2.47514 79.122 2.78693L72.522 9.51293L79.122 16.2269C79.4139 16.5304 79.5807 16.9329 79.589 17.3539C79.5909 17.6747 79.4981 17.989 79.3222 18.2573C79.1462 18.5255 78.895 18.7359 78.6 18.8619C78.3065 18.9854 77.9827 19.0175 77.6707 18.9542C77.3587 18.8909 77.0731 18.735 76.851 18.5069L70.266 11.8129L63.7 18.5069C63.5534 18.658 63.378 18.7782 63.1842 18.8602C62.9903 18.9423 62.782 18.9845 62.5715 18.9845C62.361 18.9845 62.1526 18.9423 61.9588 18.8602C61.7649 18.7782 61.5895 18.658 61.443 18.5069C61.1412 18.1984 60.9722 17.784 60.9722 17.3524C60.9722 16.9209 61.1412 16.5064 61.443 16.1979L68.013 9.51893L61.388 2.78592C61.0855 2.47795 60.9161 2.06357 60.9161 1.63193C60.9161 1.20028 61.0855 0.785896 61.388 0.477926C61.5345 0.326815 61.7099 0.206673 61.9038 0.124628C62.0976 0.0425835 62.306 0.000307083 62.5165 0.000307083C62.727 0.000307083 62.9353 0.0425835 63.1292 0.124628C63.323 0.206673 63.4984 0.326815 63.645 0.477926L70.272 7.22093L76.9 0.478926C77.1221 0.250853 77.4077 0.0949898 77.7197 0.0316658C78.0317 -0.0316582 78.3555 0.000492096 78.649 0.123926C78.9425 0.249693 79.1926 0.458897 79.3682 0.725563C79.5439 0.992229 79.6373 1.30461 79.637 1.62393L79.642 1.63293ZM50.599 1.63293C50.6004 2.0641 50.4324 2.47857 50.131 2.78693L43.531 9.50093L50.131 16.2269C50.4285 16.5269 50.5965 16.9315 50.599 17.3539C50.6027 17.5679 50.5632 17.7804 50.4828 17.9787C50.4024 18.177 50.2827 18.357 50.131 18.5079C49.9845 18.659 49.8092 18.7791 49.6154 18.8612C49.4217 18.9432 49.2134 18.9855 49.003 18.9855C48.7926 18.9855 48.5843 18.9432 48.3905 18.8612C48.1968 18.7791 48.0214 18.659 47.875 18.5079L41.269 11.7979L34.669 18.5079C34.5212 18.6592 34.3446 18.7793 34.1497 18.8614C33.9548 18.9434 33.7455 18.9857 33.534 18.9857C33.3225 18.9857 33.1132 18.9434 32.9182 18.8614C32.7233 18.7793 32.5468 18.6592 32.399 18.5079C32.0972 18.1994 31.9282 17.785 31.9282 17.3534C31.9282 16.9219 32.0972 16.5074 32.399 16.1989L39 9.49293L32.4 2.78592C32.0983 2.47758 31.9293 2.06333 31.9293 1.63193C31.9293 1.20052 32.0983 0.786268 32.4 0.477926C32.5478 0.326681 32.7243 0.206501 32.9192 0.124451C33.1142 0.0424004 33.3235 0.000133514 33.535 0.000133514C33.7465 0.000133514 33.9558 0.0424004 34.1507 0.124451C34.3456 0.206501 34.5222 0.326681 34.67 0.477926L41.265 7.19393L47.877 0.477926C48.101 0.257149 48.3852 0.107306 48.6939 0.0471268C49.0026 -0.013052 49.3223 0.019104 49.6128 0.139574C49.9034 0.260044 50.152 0.463486 50.3276 0.724466C50.5031 0.985447 50.5979 1.29239 50.6 1.60693L50.599 1.63293ZM18.671 1.63293C18.6655 2.063 18.4972 2.47501 18.2 2.78592L11.6 9.50093L18.2 16.2269C18.4927 16.5299 18.6596 16.9327 18.667 17.3539C18.669 17.6746 18.5764 17.9888 18.4006 18.2571C18.2249 18.5253 17.9738 18.7357 17.679 18.8619C17.3855 18.9854 17.0617 19.0175 16.7497 18.9542C16.4377 18.8909 16.1521 18.735 15.93 18.5069L9.32998 11.8009L2.73998 18.5069C2.5921 18.658 2.41553 18.7781 2.22063 18.8601C2.02573 18.9421 1.81642 18.9843 1.60498 18.9843C1.39354 18.9843 1.18423 18.9421 0.989329 18.8601C0.794427 18.7781 0.617858 18.658 0.469979 18.5069C0.168665 18.1982 0 17.7838 0 17.3524C0 16.921 0.168665 16.5067 0.469979 16.1979L7.06998 9.49193L0.469979 2.78592C0.168728 2.47733 9.0643e-05 2.06318 9.0643e-05 1.63193C9.0643e-05 1.20067 0.168728 0.786516 0.469979 0.477926C0.617874 0.326651 0.794505 0.206453 0.9895 0.12439C1.18449 0.042326 1.39392 5.34058e-05 1.60548 5.34058e-05C1.81704 5.34058e-05 2.02646 0.042326 2.22146 0.12439C2.41645 0.206453 2.59308 0.326651 2.74098 0.477926L9.33098 7.19093L15.931 0.478926C16.1531 0.250853 16.4387 0.0949898 16.7507 0.0316658C17.0627 -0.0316582 17.3865 0.000492096 17.68 0.123926C17.9735 0.249693 18.2236 0.458897 18.3992 0.725563C18.5749 0.992229 18.6683 1.30461 18.668 1.62393L18.671 1.63293Z" fill="#745FEA"/>
</svg>
