<svg width="110" height="91" viewBox="0 0 110 91" fill="none" xmlns="http://www.w3.org/2000/svg">
<path opacity="0.69" fill-rule="evenodd" clip-rule="evenodd" d="M104.946 0C107.201 0 109.029 1.8252 109.029 4.077C109.029 6.3279 107.201 8.1531 104.946 8.1531C102.691 8.1531 100.863 6.3279 100.863 4.077C100.863 1.8252 102.691 0 104.946 0ZM104.946 23.4279C107.201 23.4279 109.029 25.2522 109.029 27.504C109.029 29.7549 107.201 31.5801 104.946 31.5801C102.691 31.5801 100.863 29.7549 100.863 27.504C100.863 25.2522 102.691 23.4279 104.946 23.4279ZM104.946 35.1342C107.201 35.1342 109.029 36.9585 109.029 39.2103C109.029 41.4612 107.201 43.2864 104.946 43.2864C102.691 43.2864 100.863 41.4612 100.863 39.2103C100.863 36.9585 102.691 35.1342 104.946 35.1342ZM104.946 58.5612C107.201 58.5612 109.029 60.3864 109.029 62.6373C109.029 64.8882 107.201 66.7134 104.946 66.7134C102.691 66.7134 100.863 64.8882 100.863 62.6373C100.863 60.3864 102.691 58.5612 104.946 58.5612ZM104.946 81.9882C107.201 81.9882 109.029 83.8134 109.029 86.0643C109.029 88.3152 107.201 90.1404 104.946 90.1404C102.691 90.1404 100.863 88.3152 100.863 86.0643C100.863 83.8134 102.691 81.9882 104.946 81.9882ZM100.863 15.7824C100.863 13.5315 102.691 11.7063 104.946 11.7063C107.201 11.7063 109.029 13.5315 109.029 15.7824C109.029 18.0342 107.201 19.8594 104.946 19.8594C103.861 19.863 102.821 19.4346 102.054 18.6696C101.291 17.9069 100.863 16.8737 100.863 15.7959C100.863 15.7914 100.863 15.787 100.863 15.7824ZM103.373 47.1546C104.898 46.5192 106.657 46.8639 107.828 48.0285C108.999 49.1931 109.351 50.9481 108.72 52.4727C108.089 53.9973 106.598 54.9927 104.946 54.9927C102.697 54.9927 100.871 53.1765 100.863 50.931C100.863 50.9259 100.863 50.9205 100.863 50.9154C100.863 49.2709 101.853 47.788 103.373 47.1546V47.1546ZM103.343 70.5366C104.867 69.8877 106.633 70.2216 107.812 71.3826C108.992 72.5436 109.352 74.3013 108.723 75.8322C108.095 77.3622 106.603 78.3612 104.946 78.3621C102.713 78.3621 100.894 76.572 100.863 74.3427V74.3436C100.862 74.3243 100.862 74.3048 100.862 74.2856C100.862 72.6542 101.836 71.1779 103.343 70.5366ZM87.6885 49.4631C88.5111 47.4957 90.7746 46.5669 92.7447 47.3877C94.7148 48.2085 95.6454 50.4684 94.8228 52.4349C94.0011 54.4014 91.7376 55.3302 89.7675 54.5094C88.2838 53.8912 87.3897 52.4572 87.3896 50.9469C87.3896 50.4518 87.4856 49.9486 87.6885 49.4631ZM87.3771 15.8697C87.3771 14.3082 88.3203 12.8997 89.7666 12.3039C91.2129 11.7072 92.877 12.0402 93.9813 13.1463C95.0856 14.2533 95.4123 15.9156 94.8093 17.3565C94.2072 18.7983 92.7933 19.7343 91.2282 19.7289C90.204 19.7289 89.223 19.3212 88.5003 18.5976C87.7808 17.8763 87.3771 16.9007 87.3771 15.8833C87.3771 15.8787 87.3771 15.8743 87.3771 15.8697ZM87.3771 27.5904C87.3771 26.0289 88.3203 24.6213 89.7666 24.0246C91.2129 23.4279 92.877 23.7609 93.9813 24.8679C95.0856 25.974 95.4123 27.6363 94.8093 29.0772C94.2072 30.519 92.7933 31.455 91.2282 31.4496C90.204 31.4496 89.223 31.0419 88.5003 30.3183C87.7808 29.5979 87.3771 28.6214 87.3771 27.604C87.3771 27.5994 87.3771 27.595 87.3771 27.5904ZM89.7567 35.7201C91.2021 35.1198 92.8689 35.4492 93.9759 36.5544C95.0829 37.6596 95.4132 39.3228 94.8111 40.7655C94.209 42.2091 92.7942 43.1469 91.2282 43.1415C89.1015 43.1415 87.3771 41.4198 87.3771 39.2967C87.3771 39.2923 87.3771 39.2877 87.3771 39.2833C87.377 37.7252 88.3154 36.3196 89.7567 35.7201ZM89.7567 70.8543C91.2021 70.2531 92.8689 70.5825 93.9759 71.6877C95.0829 72.7929 95.4132 74.4561 94.8111 75.8997C94.209 77.3424 92.7942 78.2802 91.2282 78.2748C89.1015 78.2748 87.3771 76.554 87.3771 74.4309C87.3771 74.4265 87.3771 74.4219 87.3771 74.4175C87.377 72.8594 88.3154 71.4529 89.7567 70.8543ZM91.2282 58.851C93.363 58.851 95.0937 60.579 95.0937 62.7093C95.0937 64.8405 93.363 66.5685 91.2282 66.5685C89.0934 66.5685 87.3627 64.8405 87.3627 62.7093C87.3627 60.579 89.0934 58.851 91.2282 58.851ZM91.2282 82.278C93.363 82.278 95.0937 84.006 95.0937 86.1372C95.0937 88.2675 93.363 89.9955 91.2282 89.9955C89.0934 89.9955 87.3627 88.2675 87.3627 86.1372C87.3627 84.006 89.0934 82.278 91.2282 82.278ZM87.6426 2.7117C88.4652 0.7452 90.7296 -0.1836 92.6997 0.6381C94.6689 1.4598 95.5986 3.7197 94.776 5.6862C93.9534 7.6518 91.6899 8.5806 89.7198 7.7589C88.2366 7.14094 87.3431 5.70726 87.343 4.19723C87.343 3.70156 87.4393 3.19769 87.6426 2.7117ZM78.5274 23.9787C80.5263 23.9787 82.1463 25.596 82.1463 27.5904C82.1463 29.5857 80.5263 31.203 78.5274 31.203C76.5294 31.203 74.9094 29.5857 74.9094 27.5904C74.9094 25.596 76.5294 23.9787 78.5274 23.9787ZM78.5274 47.3913C80.5263 47.3913 82.1463 49.0086 82.1463 51.003C82.1463 52.9983 80.5263 54.6156 78.5274 54.6156C76.5294 54.6156 74.9094 52.9983 74.9094 51.003C74.9094 49.0086 76.5294 47.3913 78.5274 47.3913ZM78.5274 59.0976C80.5263 59.0976 82.1463 60.7149 82.1463 62.7093C82.1463 64.7046 80.5263 66.3219 78.5274 66.3219C76.5294 66.3219 74.9094 64.7046 74.9094 62.7093C74.9094 60.7149 76.5294 59.0976 78.5274 59.0976ZM78.5274 82.5246C80.5263 82.5246 82.1463 84.1419 82.1463 86.1372C82.1463 88.1316 80.5263 89.7489 78.5274 89.7489C76.5294 89.7489 74.9094 88.1316 74.9094 86.1372C74.9094 84.1419 76.5294 82.5246 78.5274 82.5246ZM74.9094 4.1634C74.9094 2.169 76.5294 0.5517 78.5274 0.5517C80.5263 0.5517 82.1463 2.169 82.1463 4.1634C82.1463 6.1587 80.5263 7.7751 78.5274 7.7751C77.5671 7.7796 76.6446 7.3998 75.9651 6.7221C75.2888 6.04669 74.9094 5.13144 74.9094 4.17692C74.9094 4.17241 74.9094 4.16791 74.9094 4.1634ZM74.9094 15.8697C74.9094 13.8753 76.5294 12.258 78.5274 12.258C80.5263 12.258 82.1463 13.8753 82.1463 15.8697C82.1463 17.865 80.5263 19.4814 78.5274 19.4814C77.5671 19.4859 76.6446 19.1061 75.9651 18.4284C75.2888 17.753 74.9094 16.8377 74.9094 15.8832C74.9094 15.8787 74.9094 15.8742 74.9094 15.8697ZM74.9094 39.2967C74.9094 37.3023 76.5294 35.685 78.5274 35.685C80.5263 35.685 82.1463 37.3023 82.1463 39.2967C82.1463 41.292 80.5263 42.9093 78.5274 42.9093C77.5671 42.9129 76.6446 42.534 75.9651 41.8554C75.2888 41.18 74.9094 40.2647 74.9094 39.3102C74.9094 39.3057 74.9094 39.3012 74.9094 39.2967ZM74.9094 74.4309C74.9094 72.4356 76.5294 70.8183 78.5274 70.8183C80.5263 70.8183 82.1463 72.4356 82.1463 74.4309C82.1463 76.4253 80.5263 78.0426 78.5274 78.0426C77.5671 78.0462 76.6446 77.6673 75.9651 76.9887C75.2888 76.3142 74.9094 75.3981 74.9094 74.4444C74.9094 74.4399 74.9094 74.4354 74.9094 74.4309ZM66.2487 12.6207C68.0865 12.6207 69.576 14.1075 69.576 15.9426C69.576 17.7768 68.0865 19.2645 66.2487 19.2645C64.4109 19.2645 62.9214 17.7768 62.9214 15.9426C62.9214 14.1075 64.4109 12.6207 66.2487 12.6207ZM66.2487 24.3414C68.0865 24.3414 69.576 25.8291 69.576 27.6633C69.576 29.4975 68.0865 30.9852 66.2487 30.9852C64.4109 30.9852 62.9214 29.4975 62.9214 27.6633C62.9214 25.8291 64.4109 24.3414 66.2487 24.3414ZM66.2487 59.4747C68.0865 59.4747 69.576 60.9624 69.576 62.7966C69.576 64.6317 68.0865 66.1185 66.2487 66.1185C64.4109 66.1185 62.9214 64.6317 62.9214 62.7966C62.9214 60.9624 64.4109 59.4747 66.2487 59.4747ZM66.2487 71.181C68.0865 71.181 69.576 72.6687 69.576 74.5029C69.576 76.338 68.0865 77.8248 66.2487 77.8248C64.4109 77.8248 62.9214 76.338 62.9214 74.5029C62.9214 72.6687 64.4109 71.181 66.2487 71.181ZM64.9491 1.1655C66.1947 0.6525 67.6275 0.9396 68.5779 1.8927C69.5283 2.8458 69.8091 4.2768 69.2898 5.517C68.7705 6.7581 67.5519 7.5636 66.2046 7.5582C64.3731 7.5501 62.8917 6.0651 62.8917 4.2363C62.8917 2.8908 63.7044 1.6794 64.9491 1.1655ZM64.9491 36.2997C66.1947 35.7858 67.6275 36.0729 68.5779 37.026C69.5283 37.9791 69.8091 39.4101 69.2898 40.6512C68.7705 41.8914 67.5519 42.6969 66.2046 42.6915C64.3731 42.6834 62.8917 41.1984 62.8917 39.3696C62.8917 38.025 63.7044 36.8127 64.9491 36.2997ZM62.8917 51.0759C62.8917 49.7313 63.7044 48.519 64.9491 48.006C66.1947 47.4921 67.6275 47.7792 68.5779 48.7323C69.5283 49.6854 69.8091 51.1164 69.2898 52.3575C68.7705 53.5977 67.5519 54.4041 66.2046 54.3978C65.3235 54.3978 64.4784 54.0477 63.8574 53.424C63.2387 52.8035 62.8917 51.9638 62.8917 51.0894C62.8917 51.0849 62.8917 51.0805 62.8917 51.0759H62.8917ZM62.8917 86.2092C62.8917 84.8646 63.7044 83.6523 64.9491 83.1393C66.1947 82.6254 67.6275 82.9125 68.5779 83.8656C69.5283 84.8187 69.8091 86.2497 69.2898 87.4908C68.7705 88.7319 67.5519 89.5374 66.2046 89.5311C65.3235 89.5311 64.4784 89.181 63.8574 88.5573C63.2387 87.9369 62.8917 87.098 62.8917 86.2228C62.8917 86.2182 62.8917 86.2138 62.8917 86.2092L62.8917 86.2092ZM54.6963 24.3702C56.4297 24.3702 57.8346 25.7733 57.8346 27.504C57.8346 29.2338 56.4297 30.6369 54.6963 30.6369C52.9629 30.6369 51.5571 29.2338 51.5571 27.504C51.5571 25.7733 52.9629 24.3702 54.6963 24.3702ZM54.6963 36.0621C56.4297 36.0621 57.8346 37.4652 57.8346 39.1959C57.8346 40.9257 56.4297 42.3288 54.6963 42.3288C52.9629 42.3288 51.5571 40.9257 51.5571 39.1959C51.5571 37.4652 52.9629 36.0621 54.6963 36.0621ZM54.6963 47.7972C56.4297 47.7972 57.8346 49.2003 57.8346 50.931C57.8346 52.6617 56.4297 54.0639 54.6963 54.0639C52.9656 54.0558 51.5652 52.6581 51.5571 50.931C51.5571 49.2003 52.9629 47.7972 54.6963 47.7972ZM54.6963 59.5035C56.4297 59.5035 57.8346 60.9066 57.8346 62.6373C57.8346 64.368 56.4297 65.7702 54.6963 65.7702C52.9629 65.7702 51.5571 64.368 51.5571 62.6373C51.5571 60.9066 52.9629 59.5035 54.6963 59.5035ZM54.6963 71.2107C56.4297 71.2107 57.8346 72.6129 57.8346 74.3436C57.8346 76.0743 56.4297 77.4765 54.6963 77.4765C52.9629 77.4765 51.5571 76.0743 51.5571 74.3436C51.5571 72.6129 52.9629 71.2107 54.6963 71.2107ZM54.6963 82.9314C56.4297 82.9314 57.8346 84.3336 57.8346 86.0643C57.8346 87.795 56.4297 89.1981 54.6963 89.1981C52.9656 89.19 51.5652 87.7914 51.5571 86.0643C51.5571 84.3336 52.9629 82.9314 54.6963 82.9314ZM53.475 12.8673C54.6468 12.3732 56.0013 12.6342 56.9049 13.5279C57.8085 14.4216 58.083 15.7716 57.5988 16.9461C57.1146 18.1206 55.968 18.8874 54.6963 18.8874C52.9737 18.8874 51.5733 17.5014 51.5571 15.7824C51.557 15.7728 51.557 15.763 51.557 15.7534C51.5569 14.4958 52.3112 13.3577 53.475 12.8673V12.8673ZM51.5571 4.077V4.0761C51.5967 2.3562 53.0196 0.99 54.7431 1.0161C56.4675 1.0431 57.8472 2.4516 57.8337 4.1724C57.8211 5.8941 56.4198 7.2819 54.6963 7.2828C53.8512 7.2828 53.0412 6.9426 52.4508 6.3396C51.8767 5.75324 51.5562 4.96746 51.5562 4.15039C51.5562 4.12594 51.5565 4.1015 51.5571 4.077ZM43.1142 1.1754C44.7198 1.1754 46.0203 2.4741 46.0203 4.0761C46.0203 5.679 44.7198 6.9777 43.1142 6.9777C41.5095 6.9777 40.2081 5.679 40.2081 4.0761C40.2081 2.4741 41.5095 1.1754 43.1142 1.1754ZM43.1142 12.8961C44.7198 12.8961 46.0203 14.1948 46.0203 15.7977C46.0203 17.3997 44.7198 18.6984 43.1142 18.6984C41.5095 18.6984 40.2081 17.3997 40.2081 15.7977C40.2081 14.1948 41.5095 12.8961 43.1142 12.8961ZM43.1142 24.6024C44.7198 24.6024 46.0203 25.9011 46.0203 27.504C46.0203 29.106 44.7198 30.4047 43.1142 30.4047C41.5095 30.4047 40.2081 29.106 40.2081 27.504C40.2081 25.9011 41.5095 24.6024 43.1142 24.6024ZM43.1142 36.2943C44.7198 36.2943 46.0203 37.593 46.0203 39.1959C46.0203 40.7979 44.7198 42.0966 43.1142 42.0966C41.5095 42.0966 40.2081 40.7979 40.2081 39.1959C40.2081 37.593 41.5095 36.2943 43.1142 36.2943ZM43.1142 48.0294C44.7198 48.0294 46.0203 49.3281 46.0203 50.931C46.0203 52.533 44.7198 53.8317 43.1142 53.8317C41.5095 53.8317 40.2081 52.533 40.2081 50.931C40.2081 49.3281 41.5095 48.0294 43.1142 48.0294ZM43.1142 59.7357C44.7198 59.7357 46.0203 61.0353 46.0203 62.6373C46.0203 64.2393 44.7198 65.538 43.1142 65.538C41.5095 65.538 40.2081 64.2393 40.2081 62.6373C40.2081 61.0353 41.5095 59.7357 43.1142 59.7357ZM43.1142 71.442C44.7198 71.442 46.0203 72.7416 46.0203 74.3436C46.0203 75.9456 44.7198 77.2443 43.1142 77.2443C41.5095 77.2443 40.2081 75.9456 40.2081 74.3436C40.2081 72.7416 41.5095 71.442 43.1142 71.442ZM43.1142 83.1636C44.7198 83.1636 46.0203 84.4623 46.0203 86.0643C46.0203 87.6663 44.7198 88.9659 43.1142 88.9659C41.5095 88.9659 40.2081 87.6663 40.2081 86.0643C40.2081 84.4623 41.5095 83.1636 43.1142 83.1636ZM30.4287 50.931C30.4368 49.4091 31.6788 48.1815 33.2043 48.1896C34.7289 48.1977 35.9583 49.4379 35.9502 50.9598C35.9421 52.4817 34.7001 53.7093 33.1746 53.7012C31.655 53.6931 30.4287 52.461 30.4287 50.946C30.4287 50.9409 30.4287 50.936 30.4287 50.931ZM32.1261 1.5183C33.1593 1.0881 34.35 1.323 35.142 2.1132C35.9331 2.9034 36.1689 4.0923 35.7378 5.1237C35.3067 6.1551 34.2942 6.8238 33.1746 6.8184C31.6581 6.8184 30.4287 5.5908 30.4287 4.0761C30.4287 4.07092 30.4286 4.06567 30.4286 4.0605C30.4286 2.94977 31.0977 1.94651 32.1261 1.5183ZM32.1261 13.239C33.1593 12.8088 34.35 13.0437 35.142 13.8339C35.9331 14.6241 36.1689 15.813 35.7378 16.8444C35.3067 17.8758 34.2942 18.5445 33.1746 18.5391C31.6617 18.531 30.4359 17.3079 30.4287 15.7977C30.4287 15.7925 30.4286 15.7873 30.4286 15.7821C30.4286 14.6705 31.0977 13.6681 32.1261 13.239ZM32.1261 24.9453C33.1593 24.5151 34.35 24.75 35.142 25.5402C35.9331 26.3304 36.1689 27.5193 35.7378 28.5507C35.3067 29.5821 34.2942 30.2508 33.1746 30.2454C31.6581 30.2454 30.4287 29.0178 30.4287 27.504C30.4287 27.4988 30.4286 27.4936 30.4286 27.4884C30.4286 26.3768 31.0977 25.3744 32.1261 24.9453ZM32.1261 36.6372C33.1593 36.207 34.35 36.4419 35.142 37.2321C35.9331 38.0223 36.1689 39.2112 35.7378 40.2426C35.3067 41.274 34.2942 41.9427 33.1746 41.9373C31.6581 41.9373 30.4287 40.7097 30.4287 39.1959C30.4287 39.1907 30.4286 39.1855 30.4286 39.1803C30.4286 38.0687 31.0977 37.0663 32.1261 36.6372ZM32.1261 60.0795C33.1593 59.6493 34.35 59.8842 35.142 60.6735C35.9331 61.4637 36.1689 62.6526 35.7378 63.684C35.3067 64.7154 34.2942 65.385 33.1746 65.3787C31.6581 65.3787 30.4287 64.1511 30.4287 62.6373C30.4287 62.6321 30.4286 62.6269 30.4286 62.6217C30.4286 61.5101 31.0977 60.5077 32.1261 60.0795V60.0795ZM32.1261 83.5065C33.1593 83.0763 34.35 83.3112 35.142 84.1014C35.9331 84.8907 36.1689 86.0805 35.7378 87.111C35.3067 88.1424 34.2942 88.812 33.1746 88.8057C31.6617 88.7976 30.4368 87.5754 30.4287 86.0643C30.4287 86.0591 30.4286 86.0539 30.4286 86.0487C30.4286 84.9371 31.0977 83.9347 32.1261 83.5065ZM30.4287 74.3436C30.4287 73.2276 31.1028 72.2214 32.136 71.7957C33.1701 71.37 34.3581 71.6085 35.1465 72.3996C35.9349 73.1907 36.168 74.3787 35.736 75.4083C35.304 76.4379 34.2933 77.1057 33.1746 77.0994C32.4438 77.0994 31.7436 76.8087 31.2279 76.2912C30.7162 75.7786 30.4287 75.0842 30.4286 74.3605C30.4286 74.3548 30.4287 74.3493 30.4287 74.3436ZM24.1512 13.2876C25.539 13.2876 26.6649 14.4117 26.6649 15.7977C26.6649 17.1837 25.539 18.3069 24.1512 18.3069C22.7625 18.3069 21.6366 17.1837 21.6366 15.7977C21.6366 14.4117 22.7625 13.2876 24.1512 13.2876ZM24.1512 48.4209C25.539 48.4209 26.6649 49.545 26.6649 50.931C26.6649 52.317 25.539 53.4402 24.1512 53.4402C22.7625 53.4402 21.6366 52.317 21.6366 50.931C21.6366 49.545 22.7625 48.4209 24.1512 48.4209ZM21.6366 4.0761C21.6366 2.691 22.7625 1.5669 24.1512 1.5669C25.539 1.5669 26.6649 2.691 26.6649 4.077C26.6649 5.4621 25.539 6.5862 24.1512 6.5862C23.4825 6.5898 22.8408 6.327 22.3692 5.8554C21.8999 5.387 21.6366 4.75161 21.6366 4.08958C21.6366 4.08506 21.6366 4.08062 21.6366 4.0761ZM21.6366 27.504C21.6366 26.118 22.7625 24.9939 24.1512 24.9939C25.539 24.9939 26.6649 26.118 26.6649 27.504C26.6649 28.89 25.539 30.0132 24.1512 30.0132C23.4825 30.0168 22.8408 29.754 22.3692 29.2824C21.8999 28.814 21.6366 28.1795 21.6366 27.5175C21.6366 27.513 21.6366 27.5085 21.6366 27.504ZM21.6366 39.1959C21.6447 37.8117 22.7742 36.6948 24.1602 36.7002C25.5471 36.7056 26.6676 37.8306 26.6649 39.2148C26.6622 40.599 25.5372 41.7195 24.1512 41.7195C23.4816 41.7195 22.8399 41.4531 22.3683 40.9797C21.899 40.5086 21.6366 39.8724 21.6366 39.2094C21.6366 39.2049 21.6366 39.2004 21.6366 39.1959ZM21.6366 62.6373C21.6366 61.2513 22.7625 60.1281 24.1512 60.1281C25.539 60.1281 26.6649 61.2513 26.6649 62.6373C26.6649 64.0233 25.539 65.1465 24.1512 65.1465C23.4825 65.151 22.8408 64.8873 22.3692 64.4157C21.8999 63.9473 21.6366 63.3128 21.6366 62.6508C21.6366 62.6463 21.6366 62.6418 21.6366 62.6373ZM21.6366 74.3436C21.669 72.9657 22.8084 71.8713 24.189 71.892C25.5696 71.9136 26.6748 73.0422 26.664 74.4201C26.6532 75.7989 25.5318 76.9104 24.1512 76.9113C23.4735 76.9113 22.8255 76.6386 22.3521 76.1553C21.8929 75.6856 21.636 75.056 21.636 74.4004C21.636 74.3815 21.6362 74.3626 21.6366 74.3436ZM23.1477 83.7054C24.0855 83.2986 25.1754 83.4984 25.9071 84.2112C26.6379 84.924 26.8638 86.0085 26.4786 86.9526C26.0925 87.8976 25.1727 88.5159 24.1512 88.5159C22.785 88.5168 21.6681 87.4278 21.6366 86.0643C21.6362 86.045 21.6359 86.0257 21.6359 86.0065C21.6359 85.0095 22.2285 84.1036 23.1477 83.7054V83.7054ZM14.7777 1.989C15.6192 1.6362 16.5903 1.8252 17.2374 2.4669C17.8845 3.1086 18.0798 4.077 17.7324 4.9194C17.3841 5.7609 16.5624 6.3108 15.6498 6.3108C15.054 6.3144 14.4807 6.0804 14.0577 5.661C13.6356 5.2416 13.3971 4.6719 13.3971 4.0761C13.3971 4.07166 13.3971 4.06715 13.3971 4.06271C13.397 3.15809 13.9412 2.34007 14.7777 1.989ZM14.7777 13.7097C15.6192 13.3569 16.5903 13.5459 17.2374 14.1876C17.8845 14.8293 18.0798 15.7977 17.7324 16.6401C17.3841 17.4816 16.5624 18.0315 15.6498 18.0315C15.054 18.0351 14.4807 17.8011 14.0577 17.3817C13.6356 16.9623 13.3971 16.3926 13.3971 15.7977C13.3971 15.7933 13.3971 15.7887 13.3971 15.7843C13.397 14.8788 13.9412 14.0608 14.7777 13.7097ZM14.7777 25.416C15.6192 25.0632 16.5903 25.2522 17.2374 25.8939C17.8845 26.5356 18.0798 27.504 17.7324 28.3464C17.3841 29.1879 16.5624 29.7378 15.6498 29.7378C15.054 29.7414 14.4807 29.5074 14.0577 29.088C13.6356 28.6695 13.3971 28.0989 13.3971 27.504C13.3971 27.4996 13.3971 27.495 13.3971 27.4906C13.397 26.5851 13.9403 25.7671 14.7777 25.416ZM14.7777 37.1079C15.6192 36.7551 16.5903 36.9441 17.2374 37.5858C17.8845 38.2275 18.0798 39.1959 17.7324 40.0383C17.3841 40.8798 16.5624 41.4297 15.6498 41.4297C15.054 41.4333 14.4807 41.1993 14.0577 40.7799C13.6356 40.3605 13.3971 39.7908 13.3971 39.1959C13.3971 39.1914 13.3971 39.1869 13.3971 39.1825C13.397 38.277 13.9403 37.459 14.7777 37.1079ZM14.7777 48.843C15.6192 48.4911 16.5903 48.6792 17.2374 49.3209C17.8845 49.9635 18.0798 50.9319 17.7324 51.7734C17.3841 52.6149 16.5624 53.1648 15.6498 53.1648C15.054 53.1684 14.4807 52.9353 14.0577 52.5159C13.6356 52.0965 13.3971 51.5259 13.3971 50.931C13.3971 50.9265 13.3971 50.922 13.3971 50.9176C13.397 50.0121 13.9403 49.1941 14.7777 48.843ZM14.7777 60.5493C15.6192 60.1974 16.5903 60.3855 17.2374 61.0281C17.8845 61.6698 18.0798 62.6382 17.7324 63.4797C17.3841 64.3221 16.5624 64.8711 15.6498 64.8711C15.054 64.8747 14.4807 64.6416 14.0577 64.2222C13.6356 63.8028 13.3971 63.2322 13.3971 62.6373C13.3971 62.6328 13.3971 62.6283 13.3971 62.6239C13.397 61.7184 13.9412 60.9004 14.7777 60.5493ZM14.7777 72.2556C15.6192 71.9037 16.5903 72.0918 17.2374 72.7344C17.8845 73.3761 18.0798 74.3445 17.7324 75.186C17.3841 76.0284 16.5624 76.5774 15.6498 76.5774C15.054 76.581 14.4807 76.3479 14.0577 75.9285C13.6356 75.5091 13.3971 74.9385 13.3971 74.3436C13.3971 74.3392 13.3971 74.3346 13.3971 74.3302C13.397 73.4247 13.9403 72.6067 14.7777 72.2556ZM14.7777 83.9772C15.6192 83.6244 16.5903 83.8125 17.2374 84.4551C17.8845 85.0968 18.0798 86.0652 17.7324 86.9067C17.3841 87.7491 16.5624 88.2981 15.6498 88.2981C15.054 88.3017 14.4807 88.0686 14.0577 87.6492C13.6356 87.2298 13.3971 86.6592 13.3971 86.0643C13.3971 86.0599 13.3971 86.0553 13.3971 86.0509C13.397 85.1454 13.9403 84.3274 14.7777 83.9772ZM8.6712 13.8933C9.73049 13.878 10.6017 14.7222 10.617 15.7797C10.6323 16.8372 9.78629 17.7066 8.727 17.7219C7.66769 17.7372 6.79649 16.893 6.7812 15.8355C6.78105 15.8261 6.78098 15.8167 6.78098 15.8073C6.78098 14.7626 7.62132 13.9085 8.6712 13.8933ZM8.6748 2.1618C9.7341 2.1618 10.5927 3.0186 10.5927 4.0761C10.5927 5.1345 9.7341 5.9913 8.6748 5.9913C7.61549 5.9913 6.7569 5.1345 6.7569 4.0761C6.7569 3.0186 7.61549 2.1618 8.6748 2.1618ZM8.6748 25.5888C9.7341 25.5888 10.5927 26.4465 10.5927 27.504C10.5927 28.5615 9.7341 29.4183 8.6748 29.4183C7.61549 29.4183 6.7569 28.5615 6.7569 27.504C6.7569 26.4465 7.61549 25.5888 8.6748 25.5888ZM8.6748 37.2807C9.7341 37.2807 10.5927 38.1384 10.5927 39.1959C10.5927 40.2534 9.7341 41.1102 8.6748 41.1102C7.61549 41.1102 6.7569 40.2534 6.7569 39.1959C6.7569 38.1384 7.61549 37.2807 8.6748 37.2807ZM8.6748 49.0158C9.7341 49.0158 10.5927 49.8735 10.5927 50.931C10.5927 51.9885 9.7341 52.8453 8.6748 52.8453C7.61909 52.8381 6.76408 51.9849 6.7569 50.931C6.7569 49.8735 7.61549 49.0158 8.6748 49.0158ZM8.6748 60.7221C9.7341 60.7221 10.5927 61.5798 10.5927 62.6373C10.5927 63.6948 9.7341 64.5516 8.6748 64.5516C7.61549 64.5516 6.7569 63.6948 6.7569 62.6373C6.7569 61.5798 7.61549 60.7221 8.6748 60.7221ZM8.6748 72.4284C9.7341 72.4284 10.5927 73.2861 10.5927 74.3436C10.5927 75.4011 9.7341 76.2588 8.6748 76.2588C7.61549 76.2588 6.7569 75.4011 6.7569 74.3436C6.7569 73.2861 7.61549 72.4284 8.6748 72.4284ZM8.6748 84.15C9.7341 84.15 10.5927 85.0068 10.5927 86.0643C10.5927 87.1218 9.7341 87.9795 8.6748 87.9795C7.61909 87.9714 6.76498 87.1182 6.7569 86.0643C6.7569 85.0068 7.61549 84.15 8.6748 84.15ZM1.7286 2.3499C2.68349 2.3499 3.4584 3.123 3.4584 4.077C3.4584 5.0301 2.68349 5.8032 1.7286 5.8032C0.773697 5.8032 -0.000305176 5.0301 -0.000305176 4.077C-0.000305176 3.123 0.773697 2.3499 1.7286 2.3499ZM1.7286 14.0715C2.68349 14.0715 3.4584 14.8437 3.4584 15.7977C3.4584 16.7508 2.68349 17.5239 1.7286 17.5239C0.773697 17.5239 -0.000305176 16.7508 -0.000305176 15.7977C-0.000305176 14.8437 0.773697 14.0715 1.7286 14.0715ZM1.7286 25.7778C2.68349 25.7778 3.4584 26.55 3.4584 27.504C3.4584 28.4571 2.68349 29.2302 1.7286 29.2302C0.773697 29.2302 -0.000305176 28.4571 -0.000305176 27.504C-0.000305176 26.55 0.773697 25.7778 1.7286 25.7778ZM1.7286 49.2048C2.68349 49.2048 3.4584 49.9779 3.4584 50.931C3.4584 51.8841 2.68349 52.6572 1.7286 52.6572C0.773697 52.6572 -0.000305176 51.8841 -0.000305176 50.931C-0.000305176 49.9779 0.773697 49.2048 1.7286 49.2048ZM1.7286 72.6174C2.68349 72.6174 3.4584 73.3905 3.4584 74.3436C3.4584 75.2967 2.68349 76.0698 1.7286 76.0698C0.773697 76.0698 -0.000305176 75.2967 -0.000305176 74.3436C-0.000305176 73.3905 0.773697 72.6174 1.7286 72.6174ZM1.06889 37.5759C1.7223 37.3023 2.47559 37.4508 2.976 37.9503C3.47639 38.4498 3.62489 39.2022 3.3513 39.8538C3.0777 40.5054 2.4369 40.9275 1.7286 40.9221C0.773697 40.9221 -0.000305176 40.149 -0.000305176 39.1959C-0.000350952 39.1907 -0.00037384 39.1855 -0.00037384 39.1803C-0.000396729 38.4791 0.421173 37.8466 1.06889 37.5759V37.5759ZM1.06889 61.0173C1.7223 60.7446 2.47559 60.8922 2.976 61.3917C3.47639 61.8912 3.62489 62.6436 3.3513 63.2952C3.0777 63.9477 2.4369 64.3689 1.7286 64.3635C0.773697 64.3635 -0.000305176 63.5904 -0.000305176 62.6373C-0.000350952 62.6321 -0.00037384 62.6269 -0.00037384 62.6217C-0.000396729 61.9214 0.421173 61.2889 1.06889 61.0173ZM1.06889 84.4443C1.7223 84.1716 2.47559 84.3192 2.976 84.8187C3.47639 85.3191 3.62489 86.0706 3.3513 86.7222C3.0777 87.3747 2.4369 87.7968 1.7286 87.7905C0.773697 87.7905 -0.000305176 87.0174 -0.000305176 86.0643C-0.000350952 86.0591 -0.00037384 86.0539 -0.00037384 86.0488C-0.000396729 85.3484 0.421173 84.7159 1.06889 84.4443V84.4443Z" fill="url(#paint0_linear_0_2483)"/>
<defs>
<linearGradient id="paint0_linear_0_2483" x1="109.034" y1="0.0047012" x2="0.00372473" y2="0.0047012" gradientUnits="userSpaceOnUse">
<stop stop-color="#FFA31A"/>
<stop offset="1" stop-color="#7D540D" stop-opacity="0.04"/>
</linearGradient>
</defs>
</svg>
