<svg width="196" height="30" viewBox="0 0 196 30" fill="none" xmlns="http://www.w3.org/2000/svg">
<path fill-rule="evenodd" clip-rule="evenodd" d="M0 6.4191V0H6.37723V6.4191H0ZM31.5101 6.4191V0H37.8873V6.4191H31.5101ZM63.0047 6.4191V0H69.3819V6.4191H63.0047ZM94.5134 6.4191V0H100.892V6.4191H94.5134ZM126.008 6.4191V0H132.385V6.4191H126.008ZM157.503 6.4191V0H163.88V6.4191H157.503ZM189.013 6.4191V0H195.39V6.4191H189.013ZM0 29.9297V23.5106H6.37723V29.9297H0ZM31.5101 29.9297V23.5106H37.8873V29.9297H31.5101ZM63.0047 29.9297V23.5106H69.3819V29.9297H63.0047ZM94.5134 29.9297V23.5106H100.892V29.9297H94.5134ZM126.008 29.9297V23.5106H132.385V29.9297H126.008ZM157.503 29.9297V23.5106H163.88V29.9297H157.503ZM189.013 29.9297V23.5106H195.39V29.9297H189.013Z" fill="url(#paint0_linear_0_2388)"/>
<defs>
<linearGradient id="paint0_linear_0_2388" x1="83.6602" y1="52.0096" x2="94.5922" y2="-9.32021" gradientUnits="userSpaceOnUse">
<stop stop-color="#033CFB"/>
<stop offset="0.01" stop-color="#745FEA" stop-opacity="0.01"/>
<stop offset="1" stop-color="#745FEA"/>
</linearGradient>
</defs>
</svg>
