<svg xmlns="http://www.w3.org/2000/svg" width="38" height="70" viewBox="0 0 38 70">
  <path id="Union_17" data-name="Union 17" d="M11,70c-.751,0-1-1.25-1-2V67a6.182,6.182,0,0,1,1-3c-4.3-.612-7.992-3.655-8-8V49a3.992,3.992,0,0,1-3-4,4.116,4.116,0,0,1,4-4H18V39H14a6.7,6.7,0,0,1-7-7V30c0-.75.249-1,1-1h5a8.366,8.366,0,0,1,5,2V27c-7.253-.721-13.361-6.72-13-14a14.038,14.038,0,0,1,28,0c.361,7.28-5.747,13.28-13,14v6a8.458,8.458,0,0,1,5-2h8c.751,0,1,1.25,1,2v3a8.376,8.376,0,0,1-2,5h2a4.116,4.116,0,0,1,4,4,3.994,3.994,0,0,1-3,4v7c-.008,4.345-3.7,7.388-8,8a6.179,6.179,0,0,1,1,3v1c0,.751-.25,2-1,2Zm2-3H25c-.225-1.267-.716-2.9-2-3H15C13.716,64.1,13.225,65.732,13,67ZM5,46c.256.256,1,.638,1,1v9a6,6,0,0,0,6,6H26a6,6,0,0,0,6-6V49H17a2.712,2.712,0,0,1-2-2c0-.751,1.25-1,2-1H34a1,1,0,0,0,0-2H4a1,1,0,0,0,0,2c.24,0,.49-.114.705-.114A.394.394,0,0,1,5,46Zm15-7v2h7c2.621,0,3.992-2.379,4-5V34H25A5.2,5.2,0,0,0,20,39Zm-6-3h4c-.007-2.623-2.378-3.993-5-4H9C9.007,34.623,11.377,35.993,14,36ZM15,4A10.985,10.985,0,0,0,8,14,11.053,11.053,0,0,0,19,25a10.985,10.985,0,0,0,10-7A10.921,10.921,0,0,0,27,6a10.257,10.257,0,0,0-7.34-2.945A12.165,12.165,0,0,0,15,4ZM9,47c0-.75,1.25-1,2-1s1,.25,1,1-.25,2-1,2A2.712,2.712,0,0,1,9,47Zm9-25c-.438-.273-.049-.485,0-1V20c-1.75-.127-3.984-1.245-4-3,0-.751,1.25-1,2-1s1,.249,1,1a1.462,1.462,0,0,0,1,1h2c.223,0-.159-.843,0-1,.074-.074.3-.029.518.016.246.05.482.1.482-.016V16c0-.223-.842-.843-1-1H18a4.372,4.372,0,0,1-4-4V10c0-1.786,2.229-2.768,4-3V6c-.049-.515-.438-.727,0-1a2.541,2.541,0,0,1,2,0c.438.273.05.485,0,1V7a2.977,2.977,0,0,1,3,3c0,.751-.25,2-1,2s-1-1.249-1-2c0-.235-.281-.157-.574-.078A1.731,1.731,0,0,1,20,10H18c-.467,0-1-.467-1,0v1a1.133,1.133,0,0,0,1,1h2c1.962,0,2.993,2.038,3,4v1c-.005,1.783-1.231,2.775-3,3v1c.05.515.438.727,0,1a2.076,2.076,0,0,1-1,.205A2.076,2.076,0,0,1,18,22Z" fill="#f7971e"/>
</svg>
