<svg xmlns="http://www.w3.org/2000/svg" width="70.205" height="69" viewBox="0 0 70.205 69">
  <path id="Union_9" data-name="Union 9" d="M62,68V64H51a25.883,25.883,0,0,1-6-1v5c0,.75-.249,1-1,1s-1-.25-1-1V62H41v1c0,.751-.249,1-1,1H25c-.207,1.77-1.218,2.993-3,3a7.121,7.121,0,0,1-2,0c-.683,1.015-1.779,1.072-3,1a3.8,3.8,0,0,1-3-2c-.373.14-.6,1.005-1,1-.978-.009-2.345-1.273-3-2-.807.414-1.141,1.29-2,1a3.919,3.919,0,0,1-2-2H1c-.751,0-1-.249-1-1s.25-2,1-2H6V51c0-2.006-.5-4.058,0-6H1c-.515.05-.727-.561-1-1a.713.713,0,0,1,0-1c.274-.439.486-1.05,1-1H7V41c-.75,0-1-.25-1-1V25c-1.7-.282-3-2.278-3-4,0-.481-.194-.56,0-1a4.194,4.194,0,0,1-2-3,3.515,3.515,0,0,1,2-3c-.133-.374,0-.6,0-1a4.359,4.359,0,0,1,1-3c-.248-.474,0-.464,0-1A3.751,3.751,0,0,1,6,6V1c0-.75.25-1,1-1S8,.25,8,1V5H19a18.238,18.238,0,0,1,5,1V1c0-.75,1.25-1,2-1s1,.25,1,1V7h2c.034-.724.276-2.008,1-2H45c.184-1.791,1.2-2.99,3-3a6.708,6.708,0,0,1,2,0C50.684.991,51.782.932,53,1a3.834,3.834,0,0,1,3,2c1.334-.482,2.06-.062,3,1,.47-.247,1.469-1,2-1a3.409,3.409,0,0,1,3,2h4a2.711,2.711,0,0,1,2,2c0,.75-1.249,1-2,1H64V18a24.614,24.614,0,0,1-1,6h5c.751,0,2,.249,2,1a2.712,2.712,0,0,1-2,2H63l-1,1h1c.751,0,1,.25,1,1V44c1.694.287,3,2.282,3,4,0,.48.186.558,0,1,1.01.682,1.068,1.784,1,3s.08,2.435-1,3c.133.379,0,.6,0,1a4.315,4.315,0,0,1-1,3c.241.476,0,.465,0,1a3.746,3.746,0,0,1-2,3v5c0,.75-.25,1-1,1S62,68.75,62,68ZM17,61v4c-.038.292-.247.842,0,1a1.111,1.111,0,0,0,1,0c.248-.158.039-.708,0-1V60c0-.751.25-1,1-1s2,.249,2,1v3c.051.4.593,1,1,1s-.051-.6,0-1V53c.04-.72,1.279-1,2-1s.966.277,1,1v4c.891-.492,2-.982,2-2V51c0-.333-.832-.712-1-1l-3-5a6.562,6.562,0,0,1-1-3V41H10L9,45a24.563,24.563,0,0,0-1,6V62c-.052.259.78.852,1,1,.22-.148,1.053-.741,1-1V60c-.05-.515-.439-.727,0-1a2.539,2.539,0,0,1,2,0c.439.273.05.485,0,1v3a1.226,1.226,0,0,0,1,1,1.222,1.222,0,0,0,1-1V61c0-.751.25-2,1-2A2.711,2.711,0,0,1,17,61Zm24-2,5,1a17.355,17.355,0,0,0,5,1H63c0-.354.355-1,0-1H61c-.75,0-2-.25-2-1a2.713,2.713,0,0,1,2-2h2c.3.039.838.257,1,0a1.089,1.089,0,0,0,0-1c-.163-.256-.7-.039-1,0H61a2.712,2.712,0,0,1-2-2c0-.751,1.25-1,2-1h4a1,1,0,1,0,0-2H61c-.75,0-2-.25-2-1s1.25-1,2-1h3c.31.04-.168-.735,0-1-.168-.264.31-1.039,0-1H53c-.75,0-1-.249-1-1s.25-2,1-2h4c-.5-.893-.978-1-2-1H51c-.329,0-.716-.168-1,0l-5,3a6.721,6.721,0,0,1-3,1H41ZM25,42c0,.5-.255.564,0,1l4,6c.411.7,0,1.189,0,2v4a5,5,0,0,1-4,5v1H39V45H30c-.515.05-.727.439-1,0a2.546,2.546,0,0,1,0-2c.273-.439.485-1.05,1-1H40c.721,0,.959,1.28,1,2h1a1.319,1.319,0,0,1,.391.054A.627.627,0,0,0,43,44l6-3c.7-.4,1.191-1,2-1h4a4.994,4.994,0,0,1,5,4h1V31H45v8c0,.751-.249,1-1,1s-1-.249-1-1V29c0-.361-.256-.744,0-1s.639,0,1,0h1V27c0-.5-.752-.562-1-1l-3-5c-.41-.695,0-2.192,0-3V15c-.019-2.55,1.528-5.375,4-6V8H31V24h8c.75,0,2,.249,2,1a2.713,2.713,0,0,1-2,2H30a2.712,2.712,0,0,1-2-2c-.5,0-1.565-.254-2,0l-5,3c-.7.406-1.191,1-2,1H15a5,5,0,0,1-5-4H8V38H24V31c0-.75,1.25-1,2-1s1,.25,1,1v9c0,.362.256.745,0,1s-.638,0-1,0H25ZM43,15v3c0,.329.833.717,1,1l3,6c.491.85-.005,1.019,0,2v1H60l1-4a24.534,24.534,0,0,0,1-6V7c-.061-.305-.688-1-1-1s-.939.695-1,1V9c0,.751-.249,1-1,1s-1-.249-1-1V6c0-.206-.856-.853-1-1a1.206,1.206,0,0,0-1,1V9c.05.515-.562.727-1,1a.714.714,0,0,1-1,0c-.438-.273-1.049-.485-1-1V4c-.41,0-1-.41-1,0V9c0,.751-1.249,1-2,1s-1-.249-1-1V6c.04-.31.264-.832,0-1a1.053,1.053,0,0,0-1,0c-.265.167-1.04.689-1,1V16c-.007.747-.253.993-1,1s-1-.25-1-1V12A4.4,4.4,0,0,0,43,15ZM15,26h4c.328,0,.715.164,1,0l5-3a6.578,6.578,0,0,1,3-1h1V10L24,9a17.706,17.706,0,0,0-5-1H7c-.354,0,0,.646,0,1H9a2.713,2.713,0,0,1,2,2c0,.751-1.25,1-2,1H7c-.3-.039-.837-.256-1,0a1.084,1.084,0,0,0,0,1c.163.257.7.039,1,0H9c.751,0,1,1.25,1,2s-.25,1-1,1H5c-.376.049-1,.62-1,1s.624.95,1,1H9c.751,0,2,.25,2,1s-1.25,1-2,1H6c-.311-.04-.832.736-1,1a1.058,1.058,0,0,0,0,1c.167.265.689.04,1,0H16c.751,0,2,.25,2,1a2.712,2.712,0,0,1-2,2H13C13.5,25.886,13.984,26,15,26ZM34,48c0-.751,1.25-1,2-1s1,.249,1,1-.249,1-1,1S34,48.749,34,48Zm-4,0c0-.751.249-1,1-1s2,.249,2,1-1.249,1-2,1S30,48.749,30,48ZM47,38c0-.751,1.249-1,2-1s1,.25,1,1-.25,1-1,1S47,38.75,47,38ZM20,35c0-.75.249-1,1-1s2,.25,2,1a2.712,2.712,0,0,1-2,2C20.249,37,20,35.75,20,35Zm27-2c0-.751,1.249-1,2-1,.361,0,.744.744,1,1,0,.75-.25,2-1,2A2.712,2.712,0,0,1,47,33Zm3,0c0-.191.073-.109.1-.027.016.045.019.091-.009.091S50.046,33.045,50,33ZM20,31c0-.75.249-1,1-1s2,.25,2,1-1.249,1-2,1S20,31.75,20,31Zm18-9c-.392-.388-1.21-.491-1-1a2.851,2.851,0,0,1,2-1c.359,0,.745-.253,1,0s0,.641,0,1a2.853,2.853,0,0,1-1,2,.4.4,0,0,1-.156.035C38.467,23.034,38.348,22.343,38,22Zm-5,0c-.392-.388-.21-.491,0-1s.449-1,1-1c.359,0,.744-.253,1,0s1,.641,1,1a2.853,2.853,0,0,1-1,2,.488.488,0,0,1-.191.035A3.683,3.683,0,0,1,33,22Z" transform="translate(0.205)" fill="#f7971e"/>
</svg>
