<svg xmlns="http://www.w3.org/2000/svg" width="69.039" height="70" viewBox="0 0 69.039 70">
  <path id="Union_15" data-name="Union 15" d="M30,65a4.192,4.192,0,0,1,3-5V53c-4.025-.288-7.954-1.352-11-4l-4,5a3.475,3.475,0,0,1,0,4,7.022,7.022,0,0,1-5,3c-1.281,0-2.1-1.089-3-2-1.759-1.687-1.456-4.045,0-6a4.43,4.43,0,0,1,6-1l4-5c-2.648-3.046-3.712-6.975-4-11H9c-.676,2.3-2.629,4.342-5,4A5.125,5.125,0,0,1,4,30a4.2,4.2,0,0,1,5,3h7a19.5,19.5,0,0,1,5-11l-5-4c-2.1,1.148-4.564-.081-6-2s-1.695-4.306,0-6,4.082-1.435,6,0,3.147,3.9,2,6l4,5a19.543,19.543,0,0,1,11-5V9a4.2,4.2,0,0,1-3-5,4.946,4.946,0,0,1,5-4c2.4,0,3.659,1.629,4,4a4.2,4.2,0,0,1-3,5v7a19.479,19.479,0,0,1,11,5l5-5a4.521,4.521,0,0,1,1-6c1.919-1.435,4.306-1.695,6,0s2.435,4.082,1,6-3.9,3.147-6,2l-5,4c2.651,3.048,3.714,6.97,4,11h7c.6-2.059,2.854-3,5-3,2.49,0,3.765,1.521,4,4s-.554,4.531-3,5-5.3-.61-6-3H53c-.288,4.026-1.352,7.955-4,11l5,5a4.511,4.511,0,0,1,6,1c1.441,1.923.7,4.3-1,6s-4.076,2.441-6,1a4.512,4.512,0,0,1-1-6l-5-5H46v1c-2.947,2.309-6.266,2.745-10,3v7a4.192,4.192,0,0,1,3,5c-.341,2.379-1.6,5-4,5S30.342,67.379,30,65Zm3,0a2,2,0,1,0,2-2A1.925,1.925,0,0,0,33,65Zm24-8c.6-.6,1.324-1.215,1-2a1.962,1.962,0,0,0-2-1c-.562,0-1.6-.394-2,0a2.131,2.131,0,0,0,0,3,3.867,3.867,0,0,0,2,1C56.561,58,56.612,57.4,57,57ZM15,57c.6-.607,1.328-1.213,1-2a1.952,1.952,0,0,0-2-1,1.962,1.962,0,0,0-2,1c-.325.785-.6,1.4,0,2a3.87,3.87,0,0,0,2,1C14.565,58,14.607,57.4,15,57Zm9-35c-6.525,5.571-7.272,16.231-2,23a16.081,16.081,0,0,0,22,3c-1.355-3.952-4.821-7.034-9-7-2.345,0-5.207,1.486-7,3-.573.485-1.516-.427-2-1s.427-1.515,1-2a10.4,10.4,0,0,1,3-2,6.547,6.547,0,0,1-2-7,6.5,6.5,0,0,1,12,0,6.207,6.207,0,0,1-1,7,15.543,15.543,0,0,1,4,2c1.576,1.244,2.2,3.157,3,5a15.83,15.83,0,0,0,0-22,17.116,17.116,0,0,0-12.388-5.526A14.657,14.657,0,0,0,24,22Zm7,13c0,2.124.877,4,3,4a4,4,0,1,0,0-8C31.877,31,31,32.876,31,35Zm32-2c-.607.6-.327,2.209,0,3a1.937,1.937,0,0,0,2,1c.56,0,.6-.606,1-1s1-.44,1-1c.005-.856-1.211-1.669-2-2a3.367,3.367,0,0,0-1.2-.358A1.087,1.087,0,0,0,63,33ZM3,33c-.608.6-.327,2.209,0,3a1.939,1.939,0,0,0,2,1c.56,0,.6-.606,1-1s1-.44,1-1a1.936,1.936,0,0,0-1-2,5.088,5.088,0,0,0-1.8-.358A1.7,1.7,0,0,0,3,33Zm9-21a2.121,2.121,0,1,0,3,0c-.394-.4-.436-1-1-1h0A3.908,3.908,0,0,0,12,12Zm42,0c-.4.393,0,1.442,0,2s-.4.6,0,1a2.232,2.232,0,0,0,3,0,2.232,2.232,0,0,0,0-3c-.39-.4-.44-1-1-1h0A3.89,3.89,0,0,0,54,12ZM34,3a1.939,1.939,0,0,0-1,2c0,.56-.394.6,0,1a3.971,3.971,0,0,0,2,1,1.937,1.937,0,0,0,2-1c.331-.789-.4-2.392-1-3a1.074,1.074,0,0,0-.793-.358A3.442,3.442,0,0,0,34,3ZM24,46c-.387-.391-.214-1.493,0-2s.45,0,1,0c.365-.019.743-.259,1,0s.022.636,0,1c0,.55.508.79,0,1a3.524,3.524,0,0,1-1.21.23A1.128,1.128,0,0,1,24,46Z" transform="translate(-0.001 0.001)" fill="#f7971e"/>
</svg>
