<svg xmlns="http://www.w3.org/2000/svg" width="69.001" height="70" viewBox="0 0 69.001 70">
  <path id="Union_12" data-name="Union 12" d="M6,70A6,6,0,0,1,6,58a6,6,0,0,1,.029,12ZM4,61a4.148,4.148,0,0,0-1,4,3.236,3.236,0,0,0,3,2,2.667,2.667,0,0,0,2-1,2.673,2.673,0,0,0,1-2,3.236,3.236,0,0,0-2-3,4.961,4.961,0,0,0-1.794-.55A1.655,1.655,0,0,0,4,61Zm53,3a6,6,0,1,1,6,6h-.008A6.035,6.035,0,0,1,57,64Zm3,0a3,3,0,1,0,6,0c0-1.783-1.217-4-3-4S60,62.217,60,64ZM11,34a24,24,0,1,1,48,0c0,13.351-10.657,25-24,25S11,47.355,11,34ZM36,56h1c2.2-.59,4.3-2.835,6-6a25.166,25.166,0,0,0,1-3H36Zm-8-6c1.7,3.152,3.771,5.436,6,6V47H26C26.387,48.014,27.491,49.042,28,50Zm15,5a22.419,22.419,0,0,0,10-8H47A24.18,24.18,0,0,1,43,55ZM28,55c-1.849-2.277-4.132-5.2-5-8H18A22.424,22.424,0,0,0,28,55ZM48,44h6c1.327-2.609,2.813-5.08,3-8H49A37.066,37.066,0,0,1,48,44ZM36,44h9a34.183,34.183,0,0,0,1-8H36ZM26,44h8V36H24C24.077,38.829,25.294,41.26,26,44ZM16,44h7a37.01,37.01,0,0,1-1-8H14A19.4,19.4,0,0,0,16,44ZM49,33h8a20.909,20.909,0,0,0-3-9H47C47.782,26.986,48.931,29.915,49,33ZM36,33H46c-.076-3.092-1.149-6.026-2-9H36ZM24,33H34V24H26C25.151,26.974,24.078,29.908,24,33ZM14,33h8a38.126,38.126,0,0,1,1-9H16C14.419,26.8,14.2,29.789,14,33ZM46,21h6a20.768,20.768,0,0,0-9-7C44.68,16.042,45.138,18.5,46,21ZM36,21h8a19.637,19.637,0,0,0-1-2,12.639,12.639,0,0,0-7-6Zm-8-2a19.825,19.825,0,0,0-1,2h7V13C31.8,13.589,29.7,15.835,28,19ZM18,21h6a23.329,23.329,0,0,1,4-7A23.685,23.685,0,0,0,18,21ZM12,57c-.382-.405-.235-1.5,0-2a2.794,2.794,0,0,1,2-1c.72.041,1,1.279,1,2,0,.557-.482.8-1,1a3.682,3.682,0,0,1-1.227.234A1.067,1.067,0,0,1,12,57Zm43-1c0-.751.25-2,1-2s1,1.249,1,2-.249,1-1,1S55,56.75,55,56ZM14,15c-.749-.005-2-.252-2-1a2.723,2.723,0,0,1,2-2c.75,0,1,1.25,1,2s-.248,1-.981,1Zm41-1c-.016-.742.259-1.972,1-2,.362,0,.744.744,1,1s0,.639,0,1c-.007.742-.258,1-1,1h-.015C55.255,15,55.016,14.736,55,14ZM6,12A6.039,6.039,0,0,1,0,6,6.039,6.039,0,0,1,6,0a6.05,6.05,0,0,1,6,6,6.039,6.039,0,0,1-5.987,6ZM4,4c-.928.924-1.5,1.791-1,3A3.243,3.243,0,0,0,6,9,2.859,2.859,0,0,0,9,6,3.245,3.245,0,0,0,7,3a2.213,2.213,0,0,0-.863-.187A3.176,3.176,0,0,0,4,4ZM57,6A6,6,0,1,1,69,6,6,6,0,0,1,57,6Zm4-2c-.926.923-1.5,1.792-1,3a3.255,3.255,0,0,0,3,2,2.861,2.861,0,0,0,3-3,3.255,3.255,0,0,0-2-3,2.222,2.222,0,0,0-.861-.186A3.173,3.173,0,0,0,61,4Z" transform="translate(0.001)" fill="#f7971e"/>
</svg>
