<svg xmlns="http://www.w3.org/2000/svg" width="66.599" height="69.363" viewBox="0 0 66.599 69.363">
  <path id="Path_4128" data-name="Path 4128" d="M144.18,324.51h-4v-5c0-.75-1.25-1-2-1s-1,.25-1,1v6l-6,5a29.971,29.971,0,0,0-43,1,31.171,31.171,0,0,0,1,44,38.367,38.367,0,0,0,3,3l-8,7c-.271.243,0,.636,0,1s-.271.757,0,1c.253.254.642,0,1,0s.747.254,1,0l8-8a31.546,31.546,0,0,0,34,0l7,8a1.414,1.414,0,0,0,2-2l-7-7a38.982,38.982,0,0,0,3-3,30.379,30.379,0,0,0,6-35c-.323-.675-1.324-1.32-2-1s-1.321,1.32-1,2a26.963,26.963,0,0,1,3,12c-.006,13.369-9.922,25.223-23,28s-25.562-3.787-31-16-1.814-27.139,9-35a28.91,28.91,0,0,1,36,2l-5,5c-8.848-7.758-22.971-7.6-31,1s-7.349,22.707,1,31,21.451,8.087,30,0,9.817-21.2,2-30l5-6h0l7-7h5c.75,0,2-.25,2-1S144.93,324.51,144.18,324.51Zm-15,24a20.053,20.053,0,0,1-11,23c-8.553,3.768-18-.1-23-8s-4.066-17.881,3-24a19.37,19.37,0,0,1,25,0l-6,5c-4.653-3.582-11.14-2.424-15,2s-3.18,10.876,1,15,10.627,4.919,15,1,4.644-11.4,1-16l6-5A16.827,16.827,0,0,1,129.18,348.51Zm-19,6a1.471,1.471,0,0,0,2,0l5-6c2.561,3.481,2.259,9.162-1,12s-7.9,2.015-11-1-3.75-7.666-1-11,7.452-4.467,11-2l-5,6c-.255.255-1,.639-1,1S109.925,354.255,110.18,354.51Z" transform="translate(-79.58 -318.51)" fill="#f7971e"/>
</svg>
