<svg width="152" height="41" viewBox="0 0 152 41" fill="none" xmlns="http://www.w3.org/2000/svg">
<path fill-rule="evenodd" clip-rule="evenodd" d="M0.0449121 39.1682C0.0947121 38.7691 -0.261338 38.1874 0.458842 38.0418C1.02527 37.93 1.59046 37.7991 2.16001 37.7065C3.39745 37.5067 4.14875 36.7302 4.59878 35.5833C5.13471 34.2213 5.31211 32.7801 5.33763 31.3376C5.43847 25.4859 5.55549 19.6329 5.53557 13.7806C5.5281 11.2666 5.23057 8.75265 5.01831 6.24058C4.97225 5.701 4.76995 5.16015 4.56641 4.65058C4.00931 3.25407 2.93247 2.59125 1.49647 2.45843C1.1174 2.43736 0.739572 2.39394 0.364852 2.3288C0.213592 2.27516 0.0965721 2.15064 0.0505121 1.99356C9.20682e-05 1.69983 9.20682e-05 1.39971 0.0505121 1.10597C0.0766521 0.96421 0.249702 0.81032 0.392242 0.74391C0.534782 0.67814 0.712802 0.72731 0.875892 0.72731H29.772C30.5258 0.72731 30.5433 0.72731 30.5576 1.49421C30.6018 3.87154 30.6292 6.25079 30.6665 8.62876C30.6815 9.46335 30.7063 10.2979 30.7555 11.1313C30.7754 11.4799 30.6323 11.6185 30.3285 11.7168C29.0911 12.1191 29.0992 12.1261 28.6435 10.8822C28.0173 9.17472 27.2853 7.52342 26.1101 6.12244C24.704 4.44624 22.9369 3.50054 20.7651 3.46415C19.2893 3.43861 17.8135 3.44116 16.3376 3.44372C15.727 3.44436 15.1164 3.44564 14.5064 3.445C14.3875 3.44245 14.2624 3.46416 14.0993 3.4731C14.0569 3.67233 14.0277 3.87411 14.0109 4.07717C13.9225 7.73544 13.8378 11.3943 13.7582 15.0539C13.7308 16.2601 13.7264 17.467 13.6866 18.6738C13.6698 19.1553 13.8609 19.276 14.3041 19.2415C15.4238 19.1547 16.548 19.0417 17.6684 19.0608C19.6484 19.094 20.8597 18.0551 21.57 16.2818C21.8395 15.5756 22.0524 14.8483 22.2073 14.1069C22.2802 13.7832 22.3847 13.6599 22.6966 13.6772C23.0365 13.6938 23.3769 13.6772 23.7529 13.6772V26.7062C23.6987 26.733 23.6408 26.7528 23.5817 26.7649C22.376 26.8307 22.3742 26.832 22.0692 25.6475C21.7947 24.5837 21.4374 23.5607 20.7327 22.7012C20.096 21.8953 19.143 21.4222 18.1328 21.4081C16.8486 21.359 15.5645 21.2894 14.2798 21.198C13.816 21.1661 13.6741 21.3443 13.6909 21.7996C13.7961 24.7867 13.892 27.7739 13.9791 30.7623C14.0239 32.3261 14.1503 33.8676 14.6501 35.3579C15.1412 36.8215 16.1085 37.6497 17.6379 37.787C18.1751 37.8349 18.7036 37.9818 19.237 38.0718C19.9578 38.195 19.57 38.7685 19.6366 39.1401C19.7076 39.536 19.3895 39.5124 19.1324 39.5124C12.9471 39.5124 6.76178 39.5124 0.576462 39.5124C0.514762 39.5124 0.445982 39.5173 0.378792 39.5173C0.186362 39.5173 0.00705207 39.4773 0.0448821 39.1682L0.0449121 39.1682ZM69.1217 39.5149H54.4909C53.8299 39.5149 53.4551 38.8444 53.795 38.2506C53.8622 38.1701 53.9544 38.1171 54.0564 38.0999C54.3919 38.0239 54.7287 37.9505 55.0686 37.9058C56.1267 37.7646 56.8369 37.1299 57.0461 36.1178C57.2963 34.9065 57.4388 33.6747 57.4731 32.4372C57.5596 29.095 57.5963 25.7522 57.582 22.4075C57.5801 20.7753 57.4787 19.1451 57.277 17.5264C57.0025 15.3923 56.3788 14.8444 54.3091 14.6209C53.945 14.582 53.7533 14.4907 53.7427 14.0622C53.7315 13.6344 53.8579 13.4332 54.2874 13.3464C57.8434 12.621 61.3964 11.8758 64.9506 11.1402C65.0427 11.1313 65.1355 11.1313 65.2276 11.1402V17.1854L65.3135 17.2282C65.476 16.9108 65.6347 16.5903 65.8015 16.2735C66.823 14.3387 68.1469 12.6983 70.1195 11.7162C71.8617 10.8509 73.6506 10.7213 75.4769 11.4601C75.9431 11.6491 76.1068 11.8509 75.8934 12.4032C75.0817 14.5028 74.3291 16.626 73.5523 18.7396C73.4863 18.9088 73.4141 19.0749 73.3512 19.2505C72.6591 18.9344 72.0242 18.58 71.3482 18.3475C69.6271 17.7709 67.9035 17.7377 66.2198 18.5263C65.5152 18.8616 65.11 19.3086 65.1199 20.2217C65.1504 23.3602 65.0272 26.5006 65.0751 29.6378C65.1181 31.6205 65.2587 33.6 65.4978 35.568C65.6808 37.195 66.5522 37.893 68.1731 37.9913C68.6959 38.0252 69.2175 38.0801 69.8282 38.1325C69.8282 38.5066 69.8468 38.8713 69.8163 39.2308C69.8076 39.3291 69.6638 39.4543 69.5574 39.4945C69.466 39.5145 69.3728 39.5243 69.2796 39.5243C69.2268 39.5243 69.1741 39.5211 69.1217 39.5149H69.1217ZM136.852 40.0832C134.962 39.8597 133.106 39.4887 131.312 38.824C131.002 38.7122 130.855 38.5513 130.852 38.1848C130.829 35.9748 130.778 33.7647 130.743 31.5541C130.731 30.45 130.738 30.45 131.835 30.2042C132.3 31.2495 132.707 32.2782 133.208 33.2616C133.949 34.7296 134.876 36.0731 136.329 36.8853C138.257 37.9645 140.251 38.2263 142.188 36.9358C144.126 35.6453 144.872 32.0905 142.297 30.3006C141.128 29.4884 139.792 28.9092 138.478 28.3415C136.977 27.6902 135.437 27.1436 134.108 26.1392C131.886 24.463 131.087 22.1412 131.264 19.4114C131.494 15.8827 133.808 12.9722 137.205 11.7928C139.436 11.0189 141.715 11.0055 144.02 11.1964C145.715 11.3382 147.386 11.7021 148.991 12.28C149.444 12.4422 149.634 12.66 149.633 13.1906C149.633 15.029 149.695 16.8674 149.727 18.7051C149.745 19.7958 149.737 19.7971 148.611 20.0582C148.463 19.6572 148.317 19.2447 148.161 18.836C147.563 17.2716 146.877 15.755 145.656 14.5897C144.349 13.3375 142.784 12.8023 141.009 13.1695C139.473 13.4869 138.412 14.7997 138.177 16.3846C137.923 18.1266 138.556 19.419 139.905 20.4171C141.403 21.5256 143.103 22.2216 144.79 22.9438C146.504 23.6756 148.16 24.4981 149.454 25.924C150.568 27.1525 151.058 28.6321 151.135 30.2751C151.244 32.6786 150.708 34.8726 149.139 36.7334C147.639 38.5098 145.69 39.4568 143.496 39.9383C142.347 40.1906 141.187 40.2903 140.024 40.2904C138.968 40.2904 137.91 40.2081 136.852 40.0832ZM37.684 13.7876C36.8605 14.5398 36.4261 15.5456 36.0962 16.5954C35.5223 18.4248 35.3088 20.3143 35.2011 22.2248C35.0156 25.5127 35.0199 28.7879 35.6604 32.0324C36.0034 33.7679 36.5088 35.4416 37.5396 36.9C38.9551 38.9115 41.5028 39.0386 43.1019 37.1874C43.8395 36.3336 44.2466 35.3069 44.5422 34.2283C45.2836 31.5241 45.3545 28.7438 45.4535 25.09C45.3446 23.9725 45.2269 21.9975 44.9506 20.0384C44.6804 18.1253 44.1457 16.2761 43.0359 14.6605C42.2226 13.4772 41.0923 12.8565 39.9592 12.8564C39.1664 12.8563 38.3723 13.1601 37.684 13.7876L37.684 13.7876ZM35.2029 39.5424C31.5933 38.2768 29.2591 35.6919 27.9887 32.056C27.2592 29.9628 27.0065 28.1889 27.0003 25.7318C26.9859 22.3659 27.7397 19.2223 29.6731 16.4574C31.8156 13.3879 34.7703 11.6938 38.403 11.2296C40.744 10.9307 43.067 11.0342 45.3153 11.8324C48.7058 13.0354 51.0755 15.391 52.3061 18.8226C54.1237 23.8889 54.1056 28.9405 51.5206 33.7577C49.4565 37.6082 46.132 39.6509 41.8987 40.1618C41.1908 40.2473 40.4852 40.2936 39.7835 40.2936C38.2338 40.2936 36.7026 40.0681 35.203 39.5424L35.2029 39.5424ZM115.993 13.4032C115.321 13.9869 114.762 14.6963 114.349 15.4938C113.284 17.4983 112.955 19.7211 112.77 21.9669C112.738 22.3589 112.957 22.3896 113.241 22.3825C115.47 22.3289 117.698 22.281 119.928 22.2261C120.251 22.2184 120.569 22.1814 120.955 22.1533H120.96C120.96 21.5231 120.988 20.9656 120.953 20.4139C120.901 19.5825 120.844 18.7466 120.719 17.9254C120.501 16.5711 120.238 15.2256 119.469 14.0545C118.957 13.2749 118.214 12.8417 117.447 12.8416C116.953 12.8416 116.45 13.0211 115.993 13.4032V13.4032ZM111.939 38.824C108.261 36.893 106.084 33.7366 105.238 29.6614C104.329 25.2809 104.81 21.0505 107.121 17.1713C109.191 13.6925 112.26 11.7193 116.212 11.2232C118.643 10.9192 121.026 11.0553 123.245 12.2525C125.728 13.5929 127.197 15.7742 128.074 18.4382C128.639 20.1578 128.812 21.9426 128.945 23.7382C128.984 24.2541 128.784 24.3506 128.326 24.3493C123.393 24.3346 118.46 24.3404 113.527 24.3404C112.734 24.3404 112.716 24.3404 112.742 25.1347C112.835 27.9386 113.298 30.6371 115.006 32.9455C116.507 34.9735 118.54 35.9882 120.997 36.227C123.454 36.4665 125.675 35.9716 127.655 34.4397C127.724 34.3918 127.798 34.3503 127.876 34.3165C128.666 35.047 128.679 35.0738 128.042 35.8337C126.165 38.0686 123.764 39.4217 120.97 39.9938C119.958 40.2008 118.952 40.3087 117.959 40.3088C115.89 40.3088 113.872 39.8408 111.939 38.824L111.939 38.824ZM86.0611 14.8527C85.9435 14.8962 85.8433 15.1688 85.8433 15.3355C85.8314 18.0864 85.8314 20.834 85.8314 23.5773C85.8314 26.1028 85.8159 28.6276 85.8314 31.1531C85.8476 33.2692 85.8968 35.386 85.959 37.5022C85.9665 37.7359 86.1246 38.1388 86.2684 38.1727C87.888 38.4945 89.4435 38.423 90.7507 37.1893C91.7883 36.2104 92.4649 34.9946 92.9747 33.6715C94.1847 30.5273 94.5084 27.2387 94.3709 23.8991C94.2862 21.8577 93.9352 19.8494 93.0805 17.9765C92.5315 16.7607 91.8219 15.6752 90.6623 14.9734C89.9316 14.5318 89.1912 14.3544 88.4469 14.3544C87.6544 14.3543 86.8572 14.5554 86.0611 14.8527V14.8527ZM84.1975 40.0647C82.3556 39.8163 80.5294 39.4485 78.6913 39.158C78.2058 39.082 78.0564 38.8744 78.0632 38.3604C78.1516 31.3376 78.235 24.3154 78.2811 17.2926C78.2973 14.3955 78.2381 11.4959 78.1578 8.59938C78.1329 7.62112 78.0103 6.64733 77.7918 5.69397C77.437 4.1723 76.6446 3.52225 75.1246 3.36198C74.6154 3.30834 74.3216 3.12444 74.4567 2.57975C74.5015 2.39776 74.6876 2.14426 74.8445 2.11297C78.1784 1.45718 81.5172 0.8282 84.8542 0.19412C85.1835 0.12069 85.519 0.06449 85.8912 0V13.0322C86.081 12.946 86.251 12.8745 86.4153 12.7934C89.2275 11.4039 92.15 10.9314 95.1489 11.9818C98.3564 13.1056 100.306 15.573 101.502 18.723C102.461 21.2453 102.641 23.8723 102.416 26.5453C102.213 28.9552 101.654 31.2559 100.49 33.3759C98.4983 37.0118 95.4166 39.0948 91.4958 39.9236C90.2151 40.1941 88.9268 40.3094 87.6366 40.3094C86.4907 40.3094 85.3432 40.2185 84.1975 40.0647L84.1975 40.0647Z" fill="#808080"/>
</svg>
