<svg width="221" height="41" viewBox="0 0 221 41" fill="none" xmlns="http://www.w3.org/2000/svg">
<path fill-rule="evenodd" clip-rule="evenodd" d="M168.04 10.5131C166.115 10.477 164.574 8.98155 164.582 7.16094C164.598 6.24461 164.979 5.37208 165.639 4.73601C166.3 4.10104 167.187 3.754 168.103 3.7737C170.073 3.7737 171.598 5.27354 171.583 7.17845C171.57 9.05984 170.049 10.5136 168.109 10.5138C168.086 10.5138 168.063 10.5135 168.04 10.5131ZM162.463 11.5751C161.888 10.5307 161.182 9.46762 160.994 8.31811C160.247 3.78574 163.589 0 168.967 0C170.98 0.08211 173.149 1.29293 174.488 3.76056C175.808 6.19315 175.647 8.63998 174.221 11.0036C174.106 11.1952 173.996 11.4557 173.82 11.5247C173.445 11.6418 173.06 11.7272 172.671 11.7776C172.657 11.4087 172.536 11.0003 172.653 10.6784C172.973 9.79496 173.562 8.98154 173.743 8.08054C174.253 5.54394 172.888 3.06318 170.551 1.98264C168.193 0.86925 165.379 1.48452 163.701 3.48139C162.051 5.4071 161.895 8.19878 163.318 10.2975C163.423 10.4562 163.622 10.6051 163.63 10.7649C163.621 11.112 163.584 11.4579 163.518 11.7995C163.155 11.7316 162.576 11.7798 162.463 11.5751H162.463ZM176.393 39.7458V35.8244C176.881 35.8244 177.351 35.8452 177.818 35.8244C178.747 35.7707 179.303 35.231 179.304 34.307C179.318 29.4747 179.318 24.6412 179.304 19.8089C179.304 18.8072 178.69 18.2762 177.668 18.251C177.193 18.251 176.71 18.251 176.174 18.251V13.9135H180.006C181.569 13.9135 183.132 13.9431 184.693 13.9135C185.554 13.8927 186.015 14.2967 186.18 15.0773C186.344 15.8567 186.454 16.6329 186.599 17.4869C187.299 16.8223 187.941 16.1458 188.656 15.5382C190.314 14.127 192.251 13.5621 194.422 13.7263C195.073 13.7756 195.395 13.9814 195.38 14.705C195.334 16.1611 195.366 17.6215 195.366 19.1268C193.931 19.2221 192.559 19.2133 191.224 19.4312C189.918 19.6436 188.643 20.0716 187.361 20.4329C186.778 20.5982 186.542 20.9814 186.546 21.6383C186.576 26.0557 186.576 30.4753 186.546 34.8949C186.546 35.6908 186.85 35.8824 187.563 35.8528C188.382 35.7937 189.207 35.8244 190.148 35.8244V39.7459L176.393 39.7458ZM130.938 39.817C128.705 39.7787 126.47 39.7787 124.232 39.817C123.56 39.8302 123.315 39.6156 123.156 38.962C120.919 29.8732 118.665 20.7876 116.391 11.7053C115.928 9.84312 115.648 9.5979 113.752 9.35047V5.36439H127.706V9.44462H123.733L128.635 31.0347C128.8 30.5869 128.907 30.3592 128.966 30.1195C130.945 22.3006 132.92 14.4839 134.89 6.66827C135.237 5.29323 135.227 5.29104 136.602 5.28885C137.815 5.28885 139.028 5.3195 140.242 5.2779C140.917 5.25491 141.231 5.43445 141.409 6.15701C143.336 13.9836 145.309 21.797 147.271 29.6159C147.369 29.9991 147.476 30.3822 147.577 30.7654L147.837 30.7577L151.942 13.9847C152.244 13.9682 152.517 13.9376 152.798 13.9376C158.546 13.9266 164.287 13.9201 170.022 13.9179C171.346 13.9179 171.728 14.2299 171.767 15.5962C171.833 17.6916 171.816 19.7913 171.818 21.8911C171.818 25.8028 171.818 29.7155 171.818 33.6271C171.818 35.4357 172.201 35.809 173.992 35.8298C174.303 35.8298 174.613 35.8627 174.965 35.8835V39.7732H161.517V35.8244C162.034 35.8244 162.501 35.8375 162.966 35.8244C163.965 35.7904 164.54 35.2704 164.542 34.2917C164.557 29.4593 164.557 24.6248 164.542 19.7892C164.542 18.7864 163.927 18.2423 162.905 18.2357C161.469 18.228 160.034 18.228 158.599 18.2357C157.389 18.2357 156.771 18.7229 156.442 19.9599C155.23 24.5306 154.028 29.1046 152.834 33.6808C152.304 35.7017 151.776 37.7205 151.239 39.7666H142.794C141.015 32.7097 139.236 25.6539 137.457 18.6024L137.21 18.5904C136.8 20.191 136.39 21.7871 135.98 23.38C134.658 28.5769 133.321 33.7705 132.031 38.9762C131.872 39.6196 131.616 39.8176 131 39.8176C130.979 39.8176 130.959 39.8174 130.938 39.817V39.817ZM104.788 37.6198C103.242 35.0317 101.426 32.6024 99.7202 30.1074C99.5811 29.9005 99.4202 29.7078 99.1596 29.3608C98.1743 30.3187 96.9405 31.0851 96.3734 32.1919C95.906 33.1017 96.2026 34.4143 96.2431 35.5463C96.2431 35.658 96.8179 35.8265 97.1266 35.8375C97.3883 35.8463 97.6083 35.8452 97.7923 35.843C98.7721 35.8342 98.7436 35.8255 98.7458 37.5081C98.7458 39.8072 98.7458 39.8072 96.4468 39.8072C93.2894 39.8072 90.1244 39.7842 86.977 39.8247C86.2281 39.8247 85.9172 39.6134 85.9906 38.8668C86.0267 38.4836 85.9906 38.1004 85.9906 37.7172C85.9906 36.0488 85.9906 36.0619 87.5846 35.832C88.456 35.7061 88.9541 35.1861 88.9673 34.2884C88.9848 33.1389 88.9673 31.9992 88.9673 30.8552C88.9673 24.5602 88.9388 18.2652 88.9848 11.9714C88.9979 10.1978 88.6454 9.21473 86.5456 9.44026C86.3398 9.44464 86.1329 9.4315 85.9293 9.40304V5.37974C86.2314 5.35675 86.5347 5.31405 86.839 5.31405C89.4216 5.31405 92.0042 5.31405 94.5857 5.31405C95.814 5.31405 96.1435 5.64796 96.1457 6.91571C96.1457 13.0191 96.1457 19.1236 96.1457 25.228V26.5374C96.3887 26.3885 96.6219 26.2254 96.8431 26.0469C98.7962 24.1727 100.743 22.2951 102.684 20.4121C102.848 20.261 102.991 20.0902 103.111 19.903C103.669 18.9889 103.291 18.2893 102.218 18.2269C102.027 18.2171 101.845 18.204 101.508 18.181C101.508 16.8968 101.49 15.6378 101.529 14.381C101.602 14.1664 101.783 14.0044 102.004 13.954C105.695 13.9299 109.385 13.9354 113.142 13.9354V18.077C113.076 18.1251 113.024 18.1974 112.979 18.1919C111.117 17.9467 109.832 18.9232 108.679 20.1943C107.287 21.7269 105.893 23.2542 104.494 24.7759L104.198 24.5843C104.339 24.8219 104.464 25.0693 104.62 25.2959C106.679 28.242 108.748 31.1803 110.797 34.1308C111.441 35.0318 112.094 35.8824 113.367 35.901V39.8094C111.874 39.8094 110.401 39.6594 108.971 39.8455C108.721 39.8776 108.484 39.8935 108.259 39.8935C106.674 39.8936 105.674 39.1031 104.788 37.6198L104.788 37.6198ZM67.3794 24.1387H77.8115C77.4196 22.6268 77.1765 21.2649 76.6992 19.9698C76.2394 18.7283 75.2048 18.0332 73.8615 17.8438C73.563 17.8014 73.2685 17.7808 72.9805 17.7807C69.6613 17.7805 67.1316 20.5142 67.3794 24.1387V24.1387ZM68.6373 39.5795C64.0392 38.5296 61.2048 35.5737 60.237 30.9581C59.5046 27.4734 59.5758 24.0008 61.0362 20.6803C62.8098 16.6461 66.0164 14.4565 70.3134 13.746C72.5839 13.3672 74.9081 13.4603 77.1415 14.0175C81.4078 15.0696 83.7101 17.9675 84.4447 22.1419C84.7392 23.8147 84.6932 25.5488 84.7797 27.2556C84.7819 27.5314 84.6757 27.8073 84.6089 28.1785H67.3246C66.6141 32.7251 70.39 36.4167 74.9465 35.8222C76.7408 35.589 78.2352 34.9124 79.3847 33.4969C79.573 33.2528 79.8467 33.0907 80.151 33.0404C81.3564 32.9911 82.5628 33.0174 83.893 33.0174C83.893 34.5139 83.9236 35.9361 83.8623 37.3516C83.8503 37.5968 83.4792 37.8968 83.2197 38.0501C80.6075 39.539 77.7294 40.1115 74.791 40.1367C74.654 40.138 74.5166 40.1387 74.3792 40.1387C72.4564 40.1387 70.4968 40.0045 68.6373 39.5795L68.6373 39.5795ZM42.2597 19.9676C41.5602 21.1708 41.2 22.5677 40.5869 24.1387C41.3281 24.1803 41.6696 24.2154 42.0101 24.2154C44.4668 24.2154 46.9224 24.2154 49.378 24.2154C51.2938 24.2154 51.3442 24.2154 51.0398 22.3323C50.7596 20.6081 50.2899 18.9353 48.4912 18.1175C47.8594 17.8324 47.1697 17.6957 46.4801 17.6957C44.7965 17.6956 43.1117 18.5099 42.2597 19.9676H42.2597ZM40.9974 39.2423C37.3398 37.9274 34.9816 35.3952 34.0062 31.6467C33.0658 28.0219 33.1063 24.4026 34.5481 20.9048C36.2593 16.7556 39.4877 14.3908 43.8668 13.7986C45.9163 13.549 47.9898 13.5895 50.0283 13.9179C54.5705 14.6076 57.1432 17.5066 57.9993 21.8955C58.331 23.5946 58.3091 25.3649 58.4285 27.1023C58.4799 27.8686 58.1876 28.1938 57.3195 28.1861C52.2178 28.1401 47.1161 28.1631 42.0167 28.1631L40.9164 28.1609C40.357 32.8181 43.961 36.3608 48.489 35.8244C50.3249 35.6065 51.8445 34.9223 53.017 33.4739C53.2392 33.2232 53.548 33.0655 53.883 33.0327C55.0314 32.9834 56.1809 33.0141 57.4804 33.0141C57.4804 34.5336 57.5067 36.0127 57.4475 37.4873C57.4475 37.6921 57.0414 37.9274 56.783 38.0731C54.1643 39.5488 51.2883 40.0294 48.3401 40.1652C47.9078 40.1851 47.4758 40.1961 47.0448 40.1961C44.9927 40.1961 42.9607 39.948 40.9974 39.2423ZM202.688 24.1234H212.802C212.802 22.4221 212.633 20.8161 211.652 19.5122C211.11 18.7831 210.355 18.2401 209.491 17.9587C209.04 17.8338 208.588 17.7749 208.145 17.7749C205.004 17.7746 202.27 20.7346 202.688 24.1234L202.688 24.1234ZM203.25 39.4623C199.39 38.2843 196.841 35.7959 195.704 31.9237C194.778 28.8298 194.754 25.5368 195.635 22.4298C197.111 17.1245 201.493 13.7208 207.093 13.5785C208.812 13.5161 210.532 13.653 212.22 13.9847C216.478 14.8736 219.181 17.9445 219.79 22.4966C220.037 24.3303 220.03 26.2079 220.144 28.185H202.576C201.914 32.6583 205.56 36.282 210.046 35.8112C211.921 35.6196 213.477 34.9332 214.66 33.4432C214.826 33.221 215.071 33.0699 215.345 33.0239C216.579 32.9812 217.817 33.0042 219.177 33.0042C219.177 34.5139 219.21 35.9393 219.146 37.3592C219.135 37.6056 218.763 37.9066 218.491 38.0643C216.205 39.3671 213.702 39.9166 211.104 40.1181C210.313 40.1791 209.524 40.2155 208.738 40.2155C206.889 40.2155 205.055 40.0146 203.25 39.4623ZM8.11145 38.3872C4.59941 36.7057 2.36387 33.7903 1.19575 30.1195C-0.348979 25.2685 -0.438749 20.3322 1.17057 15.4988C3.18167 9.43916 7.62099 6.13075 13.8448 5.17282C16.885 4.70097 19.9394 4.9046 22.9928 5.24726C24.5386 5.42133 26.1172 5.34688 27.6773 5.29871C28.4973 5.27353 28.7075 5.57897 28.6976 6.34641C28.6637 9.2399 28.6637 12.1334 28.6976 15.0291C28.6976 15.8261 28.4185 16.0976 27.639 16.0636C26.5563 16.0155 25.4702 16.0385 24.382 16.0636C23.8259 16.0636 23.5215 15.9465 23.458 15.2973C23.3376 14.035 23.0749 12.7881 22.9238 11.5269C22.8548 10.9521 22.6424 10.6073 22.0556 10.4507C19.8431 9.86173 17.6043 9.58804 15.3512 10.0676C12.4774 10.6784 10.5813 12.498 9.4449 15.1418C8.30852 17.7857 7.98337 20.6212 8.19576 23.4545C8.35669 25.5882 8.65557 27.769 9.29711 29.8009C10.613 33.9698 13.7594 35.8572 18.121 35.416C19.0395 35.3405 19.9526 35.2003 20.8514 34.9945C21.1349 34.9245 21.5137 34.4756 21.5214 34.1899C21.5805 32.2532 21.5411 30.3111 21.5597 28.3722C21.5597 27.7975 21.3364 27.5807 20.7649 27.6059C19.9394 27.619 19.1118 27.596 18.1637 27.596V23.5388C18.4889 23.5158 18.7669 23.4775 19.0428 23.4753C22.9358 23.4753 26.8267 23.4928 30.7186 23.4567C31.5003 23.4567 31.8418 23.6592 31.7575 24.4683C31.7094 24.9062 31.7575 25.3572 31.7575 25.8093C31.7455 26.3162 31.8747 26.9162 31.6448 27.2993C31.4849 27.5654 30.8149 27.503 30.3935 27.6486C29.5472 27.9398 29.1115 28.566 29.0983 29.455C29.0775 30.6636 29.0808 31.8722 29.0797 33.0809C29.0797 35.0526 29.0644 37.0243 29.0797 38.997C29.0797 39.597 28.8881 39.8685 28.2521 39.8269C27.5547 39.7809 26.8497 39.7995 26.1446 39.8269C25.5239 39.8477 25.0083 39.805 24.5868 39.1996C24.1653 38.5942 23.5423 38.8416 22.9413 39.066C20.6979 39.8954 18.4643 40.3093 16.2527 40.3094C13.4986 40.3095 10.7783 39.6678 8.11147 38.3873L8.11145 38.3872Z" fill="#808080"/>
</svg>
