<svg xmlns="http://www.w3.org/2000/svg" width="69.41" height="68.061" viewBox="0 0 69.41 68.061">
  <path id="Union_14" data-name="Union 14" d="M1,68c.07.045.065.06.037.06C.981,68.061.834,68,1,68Zm.321.019C1.19,68.009,1.072,68,1,68c-.416-.233-1.013-.525-1-1V43c-.014-.554.491-.78,1-1l9-4a2.026,2.026,0,0,1,2,0c.664.251,1.6.417,2,1l7-3a15.465,15.465,0,0,1,12,0l14,5c2.574,1.006,3.919,3.393,3,6s-4.364,3.831-7,3L33,47a2.449,2.449,0,0,1-1-1,1.25,1.25,0,0,1,0-1,2.47,2.47,0,0,1,1-1,1.26,1.26,0,0,1,1,0l10,4c1.227.357,2.574-.795,3-2a2.232,2.232,0,0,0-1-3L32,38c-3.349-1.245-6.737-.458-10,1l-7,3,5,11a12.689,12.689,0,0,1,11,0l7,3c2.81,1.4,6.129,2.272,9,1l18-8c1.317-.577,2.577-2.684,2-4s-2.684-1.577-4-1l-9,4c-.683.314-.685-.318-1-1s-.683-1.685,0-2l9-4a5.128,5.128,0,0,1,4,0,5.744,5.744,0,0,1,3,3,5.439,5.439,0,0,1-3,7L48,59a12.689,12.689,0,0,1-11,0l-7-3c-2.81-1.4-6.129-2.272-9-1a6.255,6.255,0,0,1,0,3c-.323.841-1.181.625-2,1L2,68a.776.776,0,0,1-.291.039C1.586,68.039,1.447,68.029,1.321,68.019ZM7,54a3.273,3.273,0,0,1,1,2c-.046.5-.532.808-1,1L3,59v6l15-8a1.168,1.168,0,0,1,.452.024c.249.038.508.076.548-.024a2.4,2.4,0,0,0,0-1l-1-1L12,41a4.357,4.357,0,0,0-1-1L3,44V56l3-2a1.093,1.093,0,0,1,.514-.2A.933.933,0,0,1,7,54Zm3,0c0-.751.25-2,1-2s1,1.249,1,2-.249,1-1,1S10,54.75,10,54ZM59,39c-2.105-3.782-6.732-7.287-11-8a11.5,11.5,0,0,0-2,0,13.629,13.629,0,0,0-8,3c-.608.439-1.561.608-2,0s-.608-1.562,0-2a17.048,17.048,0,0,1,10-3h1V15H39c-5.338-.007-9-4.662-9-10V1c0-.75.25-1,1-1h9A10.252,10.252,0,0,1,50,10v4a8.452,8.452,0,0,1,5-2h8c.361,0,.744-.256,1,0s0,.638,0,1v4c-.007,4.117-2.884,7.993-7,8H50v4a16.542,16.542,0,0,1,11,8c.364.655-.347,1.635-1,2-.329.008-.563.2-.748.2C59.157,39.2,59.076,39.15,59,39ZM50,20v2h7c2.619,0,4-2.381,4-5V15H55A5.2,5.2,0,0,0,50,20ZM33,5a7.041,7.041,0,0,0,7,7h7V10a7.04,7.04,0,0,0-7-7H33ZM60,39c.154,0,.013.049-.039.049C59.935,39.05,59.932,39.038,60,39Z" transform="translate(0)" fill="#f7971e"/>
</svg>
