<svg xmlns="http://www.w3.org/2000/svg" width="159" height="12" viewBox="0 0 159 12">
  <path id="Union_46" data-name="Union 46" d="M154.719,10.476a5.686,5.686,0,0,0-6-6c-3.583,0-7,2.417-7,6a2,2,0,0,1-4,0c0-5.789,5.211-10,11-10a9.68,9.68,0,0,1,10,10,2,2,0,0,1-4,0Zm-28,0a5.686,5.686,0,0,0-6-6c-3.583,0-7,2.417-7,6a2,2,0,0,1-4,0c0-5.789,5.212-10,11-10a9.68,9.68,0,0,1,10,10,2,2,0,0,1-4,0Zm-27,0a5.686,5.686,0,0,0-6-6c-3.584,0-7,2.417-7,6a2,2,0,0,1-4,0c0-5.789,5.211-10,11-10a9.679,9.679,0,0,1,10,10,2,2,0,0,1-4,0Zm-28,0a5.686,5.686,0,0,0-6-6c-3.584,0-7,2.417-7,6a2,2,0,1,1-4,0c0-5.789,5.211-10,11-10a9.679,9.679,0,0,1,10,10,2,2,0,0,1-4,0Zm-27,0a5.686,5.686,0,0,0-6-6c-3.584,0-7,2.417-7,6a2,2,0,1,1-4,0c0-5.789,5.211-10,11-10a9.679,9.679,0,0,1,10,10,2,2,0,1,1-4,0Zm-28,0a5.686,5.686,0,0,0-6-6c-3.583,0-7,2.417-7,6a2,2,0,0,1-4,0c0-5.789,5.211-10,11-10a9.679,9.679,0,0,1,10,10,2,2,0,1,1-4,0Z" transform="translate(0.281 -0.475)" fill="#f7971e" opacity="0.4"/>
</svg>
