<svg width="80" height="83" viewBox="0 0 80 83" fill="none" xmlns="http://www.w3.org/2000/svg">
<path fill-rule="evenodd" clip-rule="evenodd" d="M53.0059 46.3806L53.0069 45.0095C50.6279 44.9436 48.7314 43 48.724 40.6199C48.724 39.7281 49.4473 39.0049 50.339 39.0049C51.2318 39.0049 51.955 39.7281 51.955 40.6199C51.9666 40.9391 52.1078 41.2385 52.3475 41.4489C52.5872 41.6592 52.9023 41.7618 53.2194 41.7325H55.9626C56.7455 41.7325 57.3798 41.0982 57.3798 40.3153V38.8678C57.3798 38.0849 56.7455 37.4496 55.9626 37.4496H53.479C50.9147 37.4412 48.8391 35.3657 48.8308 32.8014V31.3539C48.8695 28.955 50.7221 26.9779 53.1126 26.7822V25.3797C53.1126 24.4879 53.8358 23.7647 54.7287 23.7647C55.6204 23.7647 56.3436 24.4879 56.3436 25.3797V26.7204C58.7143 26.7864 60.6035 28.7237 60.6108 31.0954C60.6108 31.9871 59.8876 32.7104 58.9958 32.7104C58.103 32.7104 57.3798 31.9871 57.3798 31.0954C57.3725 30.4611 56.8554 29.9514 56.2222 29.9514H53.479C52.6961 29.9514 52.0618 30.5867 52.0618 31.3696V32.8171C52.0618 33.6 52.6961 34.2343 53.479 34.2343H55.9019L55.9323 34.3253C58.4662 34.3756 60.4967 36.4396 60.5041 38.9746V40.4221C60.4664 42.8147 58.6222 44.7908 56.2369 44.9938V46.3806C56.2369 47.2734 55.5136 47.9967 54.6219 47.9967C53.7301 47.9967 53.0059 47.2734 53.0059 46.3806L53.0059 46.3806ZM73.4804 47.6167C72.999 47.1635 72.844 46.4612 73.0869 45.8469C73.3307 45.2314 73.9252 44.8274 74.5867 44.8264C75.4471 44.817 76.1609 45.491 76.2017 46.3503C76.2394 47.0107 75.871 47.6272 75.2712 47.9067C75.0533 48.0082 74.8208 48.0577 74.5901 48.0577C74.1859 48.0577 73.7869 47.9059 73.4804 47.6167ZM11.142 65.6139C11.142 64.7221 11.8653 63.9989 12.757 63.9989C13.6488 63.9989 14.372 64.7221 14.372 65.6139C14.372 66.5067 13.6488 67.2299 12.757 67.2299C11.8653 67.2299 11.142 66.5067 11.142 65.6139ZM47.3833 4.42471L50.248 9.56061H58.2339L61.175 4.54612L58.3867 3.28177L54.7129 4.60787C54.3445 4.74393 53.9395 4.74393 53.57 4.60787L50.294 3.29642L47.3833 4.42471ZM50.8571 16.1294H57.5023V12.8063H50.8571V16.1294ZM7.76136 66.5663C8.17165 66.7066 8.50343 67.0143 8.67299 67.412C9.06862 68.2116 8.74102 69.1808 7.94138 69.5765L3.36857 71.8016V78.34L20.8957 69.4854H20.9711L21.0025 69.4697C21.3919 69.296 21.5687 68.8396 21.3981 68.4482L14.0528 51.7908L13.6718 50.9535C13.5933 50.7619 13.4384 50.6122 13.2448 50.5411C13.0574 50.473 12.8523 50.473 12.6659 50.5411L3.39997 54.5958V68.2054L6.52422 66.6804C6.75438 66.5512 7.01182 66.4854 7.27089 66.4854C7.43594 66.4854 7.60169 66.5121 7.76136 66.5663V66.5663ZM1.61649 82.7443C1.32134 82.7443 1.03246 82.6648 0.77812 82.5151C0.30085 82.2221 0.00674 81.704 0.00046 81.144V53.7114C-0.01524 53.052 0.37097 52.4481 0.97594 52.1875L11.187 47.7067C12.9632 46.9333 15.0387 47.5351 16.1251 49.1396L24.0347 45.6491C26.5016 44.5595 29.1716 44.0089 31.8678 44.0341V35.4076C31.8793 26.1741 38.4596 18.2562 47.535 16.5554V11.6937L43.5274 4.45507C43.2898 4.05316 43.2511 3.56437 43.4207 3.12897C43.5756 2.68833 43.9147 2.3377 44.3501 2.16919L49.5928 0.14183C49.9706 -0.00261 50.3882 -0.00261 50.766 0.14183L54.0577 1.45223L57.7765 0.12717C58.1648 -0.04239 58.6075 -0.04239 58.9958 0.12717L63.9946 2.39735C64.408 2.58575 64.7241 2.94056 64.8633 3.37283C65.0026 3.81033 64.9523 4.28446 64.7262 4.68323L60.6422 11.6633V16.5711C69.636 18.3451 76.1253 26.2253 76.141 35.3929V39.6141C76.141 40.5069 75.4177 41.2301 74.526 41.2301C73.6332 41.2301 72.91 40.5069 72.91 39.6141V35.3929C72.9016 26.5833 65.7624 19.4441 56.9538 19.4357H51.056C42.2505 19.4525 35.1155 26.5875 35.0988 35.3929V44.3229C36.1684 44.526 37.2182 44.8159 38.2387 45.1917L53.616 50.7703C56.3101 51.7625 57.9052 54.5435 57.4028 57.3705C56.9004 60.1964 54.445 62.2573 51.574 62.2615C50.9262 62.2656 50.2825 62.162 49.6691 61.9569L37.8577 57.8572C37.0183 57.5683 36.5693 56.6556 36.8519 55.8141C36.9639 55.3923 37.2528 55.0396 37.6432 54.8439C38.0336 54.6481 38.4889 54.6303 38.8939 54.7936L50.7357 58.8012C52.1413 59.2984 53.683 58.5615 54.1802 57.1559C54.6763 55.7502 53.9395 54.2075 52.5338 53.7114L37.2172 48.072C33.3906 46.6632 29.1653 46.7993 25.4371 48.453L17.5726 51.9279L23.2266 64.7148H23.3187C27.4687 62.8748 32.2236 62.9805 36.2877 65.0047L43.9084 68.7988C47.109 70.3887 50.8508 70.4724 54.1184 69.028L74.9373 59.8835C76.4204 59.2293 77.1007 57.5024 76.4612 56.013C76.1451 55.3107 75.5643 54.7633 74.8452 54.4891C74.1293 54.1845 73.3213 54.1845 72.6054 54.4891L62.455 59.1676C61.9264 59.4523 61.2838 59.4198 60.7866 59.0838C60.2895 58.7489 60.0184 58.1649 60.0843 57.5683C60.1492 56.9717 60.5407 56.4609 61.0985 56.2411L71.2646 51.5323C72.7572 50.8551 74.4611 50.808 75.9892 51.4014C77.5173 51.9949 78.7429 53.1797 79.3877 54.6869L79.2652 54.9307C79.9424 56.4243 79.9895 58.1272 79.396 59.6553C78.8026 61.1845 77.6178 62.409 76.1106 63.0538L55.3074 72.1973C51.1554 74.0331 46.4004 73.9211 42.3384 71.8927L34.7178 68.1133C31.5192 66.5171 27.7743 66.4334 24.5067 67.8851H24.3695C24.5841 68.7015 24.537 69.566 24.2324 70.3542C23.8588 71.3296 23.1136 72.1188 22.1601 72.5479L2.34806 82.5759C2.13141 82.6872 1.89171 82.7447 1.64827 82.7447C1.63768 82.7447 1.62706 82.7446 1.61645 82.7444L1.61649 82.7443Z" fill="#F7971E"/>
</svg>
