<svg width="83" height="81" viewBox="0 0 83 81" fill="none" xmlns="http://www.w3.org/2000/svg">
<path fill-rule="evenodd" clip-rule="evenodd" d="M69.6102 8.85883C69.1445 8.39831 69.0032 7.70228 69.2523 7.09732C69.5014 6.49131 70.0917 6.09672 70.7469 6.09568C71.6334 6.09568 72.3535 6.81054 72.3618 7.69601C72.3681 8.35121 71.9788 8.94466 71.3759 9.20004C71.1728 9.28557 70.9591 9.32719 70.7473 9.3272C70.3293 9.32721 69.9186 9.16518 69.6102 8.85884L69.6102 8.85883ZM9.00822 13.2443C8.11648 13.2443 7.39324 12.5211 7.39324 11.6283C7.39324 10.7365 8.11647 10.0133 9.00822 10.0133H43.6795C44.5723 10.0133 45.2955 10.7365 45.2955 11.6283C45.2955 12.5211 44.5723 13.2443 43.6795 13.2443H9.00822ZM62.0597 12.1924H79.433V3.24671H62.0597V12.1924ZM60.4437 15.4234C59.5519 15.4234 58.8287 14.7002 58.8287 13.8074V1.61602C58.8287 0.72323 59.5519 0 60.4437 0H81.049C81.9408 0 82.664 0.72323 82.664 1.61602V13.8074C82.664 14.7002 81.9408 15.4234 81.049 15.4234H60.4437ZM10.7917 24.2781C10.7917 26.2981 12.4297 27.9361 14.4497 27.9361C16.4698 27.9361 18.1067 26.2981 18.1067 24.2781C18.1067 22.258 16.4698 20.62 14.4497 20.62C12.4297 20.62 10.7917 22.258 10.7917 24.2781ZM7.59106 24.2875C7.58583 20.4944 10.6557 17.4131 14.4498 17.4047C16.2751 17.4005 18.0272 18.1227 19.3198 19.4122C20.6114 20.7016 21.3378 22.4527 21.3378 24.278C21.3378 28.0721 18.2637 31.1483 14.4696 31.1514C10.6755 31.1535 7.5963 28.0816 7.59107 24.2875H7.59106ZM65.5649 29.5511C65.5649 28.6593 66.2881 27.9361 67.1799 27.9361C67.6101 27.9319 68.0235 28.1004 68.327 28.4039C68.6305 28.7085 68.8001 29.1219 68.7959 29.5511C68.7959 30.4428 68.0727 31.166 67.1799 31.166C66.2881 31.166 65.5649 30.4428 65.5649 29.5511ZM72.6978 29.5511C72.6978 28.6593 73.421 27.9361 74.3128 27.9361C75.2045 27.9361 75.9278 28.6593 75.9278 29.5511C75.9278 30.4428 75.2045 31.166 74.3128 31.166C73.421 31.166 72.6978 30.4428 72.6978 29.5511ZM50.4775 36.1198C50.4775 35.227 51.2007 34.5038 52.0924 34.5038C52.5226 34.4996 52.936 34.6692 53.2396 34.9727C53.5431 35.2762 53.7127 35.6897 53.7085 36.1198C53.7085 37.0116 52.9852 37.7348 52.0924 37.7348C51.2007 37.7348 50.4775 37.0116 50.4775 36.1198ZM8.23161 37.0336C8.23161 36.1418 8.95484 35.4186 9.84659 35.4186C10.7394 35.4186 11.4626 36.1418 11.4626 37.0336C11.4626 37.9263 10.7394 38.6496 9.84659 38.6496C8.95485 38.6496 8.23161 37.9263 8.23161 37.0336ZM15.3635 37.0336C15.3635 36.1418 16.0867 35.4186 16.9795 35.4186C17.8712 35.4186 18.5945 36.1418 18.5945 37.0336C18.5945 37.9263 17.8712 38.6496 16.9795 38.6496C16.0867 38.6496 15.3635 37.9263 15.3635 37.0336ZM22.6785 37.0336C22.6785 36.1418 23.4017 35.4186 24.2945 35.4186C25.1863 35.4186 25.9095 36.1418 25.9095 37.0336C25.9095 37.9263 25.1863 38.6496 24.2945 38.6496C23.4017 38.6496 22.6785 37.9263 22.6785 37.0336ZM8.23161 67.1184C8.23161 66.2256 8.95484 65.5024 9.84659 65.5024C10.7394 65.5024 11.4626 66.2256 11.4626 67.1184C11.4626 68.0102 10.7394 68.7334 9.84659 68.7334C8.95485 68.7334 8.23161 68.0101 8.23161 67.1184ZM15.3635 67.1184C15.3635 66.2256 16.0867 65.5024 16.9795 65.5024C17.8712 65.5024 18.5945 66.2256 18.5945 67.1184C18.5945 68.0102 17.8712 68.7334 16.9795 68.7334C16.0867 68.7334 15.3635 68.0101 15.3635 67.1184ZM62.0597 41.1636H71.9966C72.8883 41.1636 73.6115 41.8869 73.6115 42.7797V48.8753H79.4341V23.7746H62.0597L62.0597 41.1636ZM50.5842 53.356L66.2054 44.3339H34.963L50.5842 53.356ZM30.7565 66.1126H70.3805L70.3502 45.6443L51.3609 56.6174C50.8606 56.9031 50.2462 56.9031 49.7459 56.6174L30.7565 45.6443V66.1126ZM0.447683 79.9629C0.142063 79.6458 -0.0191271 79.2166 0.00181288 78.777V1.61603C0.00181288 0.72324 0.725043 1e-05 1.61679 1e-05H52.1082C52.9999 1e-05 53.7231 0.72324 53.7231 1.61603V29.5511C53.6425 30.3779 52.9465 31.0091 52.1155 31.0091C51.2844 31.0091 50.5884 30.3779 50.5078 29.5511V3.231H3.26317V77.161H50.5078V69.3425H29.1709C28.2791 69.3425 27.5559 68.6193 27.5559 67.7276V42.7179C27.5559 41.8262 28.2791 41.1029 29.1709 41.1029H58.8287V22.1596C58.8287 21.2668 59.5519 20.5436 60.4447 20.5436H81.049C81.9408 20.5436 82.664 21.2668 82.664 22.1596V50.4913C82.664 51.3831 81.9408 52.1063 81.049 52.1063H73.6115V67.804C73.6115 68.6957 72.8883 69.4189 71.9966 69.4189H53.7085V78.8534C53.7085 79.2805 53.5379 79.6897 53.2344 79.9901C52.9308 80.2905 52.5195 80.4569 52.0925 80.4527H1.61679C1.61044 80.4528 1.60411 80.4528 1.59777 80.4528C1.164 80.4528 0.748903 80.2765 0.447683 79.9629V79.9629Z" fill="#F7971E"/>
</svg>
