<svg xmlns="http://www.w3.org/2000/svg" width="68.999" height="69" viewBox="0 0 68.999 69">
  <path id="Union_13" data-name="Union 13" d="M31,69a5.159,5.159,0,0,1-5-5l-1-3a17.126,17.126,0,0,1-2-1l-3,2a5.065,5.065,0,0,1-7,0L8,57a6.4,6.4,0,0,1,0-8l1-2a30.123,30.123,0,0,1-1-3H5a5.181,5.181,0,0,1-5-5V31a5.181,5.181,0,0,1,5-5l3-1a16.986,16.986,0,0,1,1-2L8,20a5.068,5.068,0,0,1,0-7l5-5a5.088,5.088,0,0,1,7,0l3,1a13.869,13.869,0,0,1,2-1l1-3a5.17,5.17,0,0,1,5-5h7c2.814.175,5.819,2.186,6,5V8a26.457,26.457,0,0,1,3,1l2-1a6.432,6.432,0,0,1,8,0l5,5a5.07,5.07,0,0,1,0,7l-2,3a16.986,16.986,0,0,1,1,2l3,1a5.181,5.181,0,0,1,5,5v7c-.175,2.814-2.186,5.819-5,6H61a30.123,30.123,0,0,1-1,3l2,2a6.4,6.4,0,0,1,0,8l-5,5a6.4,6.4,0,0,1-8,0l-2-2c-.9.423-2.065.667-3,1v3a5.159,5.159,0,0,1-5,5ZM23,57a28.368,28.368,0,0,0,4,2,1.288,1.288,0,0,1,1,1v4a3.507,3.507,0,0,0,3,3h8c1.441-.172,1.972-1.548,2-3l1-4c.06-.531-.508-.837,0-1a28.368,28.368,0,0,0,4-2,2.418,2.418,0,0,1,2,0l3,3a3.1,3.1,0,0,0,4,0l5-5a3.127,3.127,0,0,0,0-4l-2-3c-.331-.421-1.245-1.523-1-2a27.83,27.83,0,0,0,2-4c.1-.322.263-.213.5-.105A.924.924,0,0,0,60,42l4-1c1.449-.034,2.822-.562,3-2V31a3.508,3.508,0,0,0-3-3H60a1.273,1.273,0,0,1-1-1,28.4,28.4,0,0,0-2-4c-.246-.472.669-.584,1-1l2-4c1.019-1.052.909-1.851,0-3L55,9c-1.148-.916-2.957-.033-4,1l-3,2a2.464,2.464,0,0,1-2,0,25.852,25.852,0,0,0-4-2c-.507-.166.064-.47,0-1L41,5c-.028-1.452-.559-1.828-2-2H31c-1.441.173-2.972.549-3,2V9a1.3,1.3,0,0,1-1,1,25.852,25.852,0,0,0-4,2c-.473.239-.581.326-1,0l-3-2c-1.044-1.033-2.852-1.916-4-1L9,15c-.909,1.148-.019,1.948,1,3l2,4c.332.417.247.528,0,1-.654,1.273-.563,2.637-1,4-.166.508-1.471.937-2,1H6a3.509,3.509,0,0,0-3,3v7a3.525,3.525,0,0,0,3,3H9c.531.059,1.837.491,2,1,.435,1.359.343,2.732,1,4a2.421,2.421,0,0,1,0,2l-2,3c-1.019,1.052-1.909,2.851-1,4l6,5a3.1,3.1,0,0,0,4,0l3-3c.143,0,.455-.045.7-.045A.7.7,0,0,1,23,57Zm10-2c0-.75.25-1,1-1s2,.25,2,1a2.712,2.712,0,0,1-2,2C33.25,57,33,55.75,33,55ZM22,57C21.693,57,22.24,56.809,22,57Zm7-1C18.565,52.9,11.455,42.776,13,32A22.465,22.465,0,0,1,35,13,21.759,21.759,0,0,1,57,32c1.416,11.062-6.172,21.328-17,24-.673-.011-.913-.331-1-1s.352-1.817,1-2c9.309-2.414,15.139-10.452,14-20A19.5,19.5,0,0,0,35,16,18.629,18.629,0,0,0,16,32c-1.448,9.507,3.776,18.284,13,21a1.234,1.234,0,0,1,1,1c.155.519.415,1.652,0,2a.714.714,0,0,1-.439.224A1.469,1.469,0,0,1,29,56ZM44,43,34,36c-.333-.263-1-.575-1-1V28c-.049-.515.562-.727,1-1a.713.713,0,0,1,1,0c.438.274,1.05.486,1,1v6l9,7c.289.214.95.644,1,1s.218.714,0,1c-.261.337-.573,1-1,1h0C44.7,44,44.232,43.186,44,43ZM33,22c0-.75,1.25-1,2-1s1,.25,1,1-.249,2-1,2A2.713,2.713,0,0,1,33,22Z" fill="#f7971e"/>
</svg>
