<svg width="115" height="78" viewBox="0 0 115 78" fill="none" xmlns="http://www.w3.org/2000/svg">
<path fill-rule="evenodd" clip-rule="evenodd" d="M83.9439 43.0035L70.4422 29.6898C69.9739 29.1978 69.2958 28.964 68.6238 29.0629L58.9887 28.9584C58.3941 28.9546 57.8226 29.1877 57.4003 29.6063L49.3118 37.6738C48.8214 38.1719 48.1506 38.4508 47.4517 38.4472C46.3846 38.4422 45.4243 37.7987 45.0139 36.8137C44.6035 35.8288 44.8228 34.6937 45.5706 33.9326L57.4421 22.0612H68.1641C68.7518 22.0617 69.3157 21.8286 69.7316 21.4133L72.6995 18.4663L90.9038 36.6706L83.9439 43.0035ZM82.3346 51.6144C81.2349 52.7036 79.4631 52.7036 78.3635 51.6144L73.7654 47.0164C72.8893 46.2554 71.5745 46.2994 70.7512 47.1171C69.928 47.9349 69.8752 49.2494 70.6303 50.1305L75.2284 54.7495C76.2664 55.9286 76.2229 57.7075 75.1287 58.8346C74.0345 59.9617 72.2575 60.0576 71.0483 59.055L66.6174 54.8749C66.0547 54.2688 65.2012 54.0265 64.4039 54.2468C63.6068 54.4669 62.9986 55.1129 62.8267 55.922C62.6549 56.731 62.948 57.5683 63.5868 58.0936L68.394 62.6499C68.868 63.0966 69.146 63.7127 69.1673 64.3637C69.169 65.0193 68.9139 65.6495 68.4567 66.1194C67.51 67.0655 65.9757 67.0655 65.029 66.1194L62.7926 63.883C62.3798 63.4618 61.8149 63.2244 61.2251 63.2244C60.6353 63.2244 60.0703 63.4618 59.6575 63.883C59.246 64.3014 59.0136 64.8637 59.0097 65.4505C59.0179 66.0365 59.2497 66.5973 59.6575 67.018L61.9984 69.338C62.8884 70.2344 62.8884 71.6811 61.9984 72.5775C61.5654 73.0081 60.9788 73.2487 60.3681 73.2464C59.7629 73.2527 59.1813 73.011 58.7588 72.5775L56.0417 69.8605C57.2734 67.5195 57.1968 64.7059 55.8396 62.4353C54.4824 60.1649 52.0405 58.7652 49.3954 58.7414C49.3838 54.5595 45.9904 51.1755 41.8085 51.1755C41.8085 46.9934 38.4244 43.6001 34.2425 43.5886C33.0018 43.5882 31.7807 43.897 30.6895 44.4873L23.7505 37.5692L43.3342 17.9855L46.7619 21.3923C47.1644 21.8147 47.7252 22.0495 48.3085 22.0401H51.1092L42.3519 30.7766C39.7808 33.572 39.8712 37.8974 42.5568 40.583C45.2423 43.2685 49.5678 43.3589 52.3632 40.7879L59.7829 33.3683H67.9132L82.2509 47.5388C82.7892 48.0586 83.0914 48.7762 83.087 49.5243C83.1085 50.3025 82.8145 51.0563 82.2719 51.6144L82.3346 51.6144ZM51.6108 68.502C50.7069 69.388 49.359 69.6436 48.1936 69.15C47.0281 68.6564 46.2738 67.5104 46.2812 66.2448C46.2801 65.4742 46.5628 64.7302 47.0754 64.1548L47.3471 63.9039C47.9171 63.3825 48.6647 63.0984 49.4371 63.1097C50.6933 63.1218 51.8227 63.8779 52.3126 65.0346C52.8025 66.1914 52.5597 67.5286 51.6945 68.4392L51.6108 68.502ZM44.1493 60.8315L43.8985 61.0823C42.8519 61.9959 41.329 62.1116 40.1563 61.367C38.9836 60.6223 38.4408 59.1947 38.8225 57.859C39.2042 56.5233 40.4194 55.598 41.8085 55.5855C43.0541 55.5764 44.187 56.3055 44.6946 57.4429C45.2021 58.5806 44.9881 59.9106 44.1493 60.8315V60.8315ZM34.2216 54.3105C32.9414 54.319 31.7829 53.5532 31.289 52.372C30.7952 51.1909 31.0639 49.8283 31.9691 48.923C32.8744 48.0177 34.2369 47.7491 35.4181 48.2429C36.5993 48.7368 37.3651 49.8953 37.3567 51.1755C37.3453 52.9022 35.9483 54.2991 34.2216 54.3105ZM113.809 23.0607L92.9084 2.1602C92.0383 1.3051 90.6434 1.3051 89.7733 2.1602C89.352 2.57295 89.1146 3.13792 89.1146 3.7277C89.1146 4.31751 89.352 4.88249 89.7733 5.29527L109.19 24.7119L97.8409 36.0817C97.4807 36.4137 96.9261 36.4137 96.566 36.0817L74.1606 13.6555C73.9921 13.4904 73.8971 13.2644 73.8971 13.0284C73.8971 12.7925 73.9921 12.5665 74.1606 12.4014L81.7684 4.77277C82.1897 4.35999 82.4271 3.79502 82.4271 3.20523C82.4271 2.61542 82.1897 2.05048 81.7684 1.63769C80.8983 0.782559 79.5034 0.782559 78.6333 1.63766L70.8374 9.22456C69.293 10.7573 68.8452 13.0795 69.7088 15.0767L67.1171 17.5847H49.0173L45.7777 14.3243C46.2806 12.4805 45.7537 10.5089 44.3983 9.16188L36.9995 1.74216C36.1338 0.876439 34.7302 0.876439 33.8644 1.74216C32.9987 2.60791 32.9987 4.01151 33.8644 4.87723L41.2841 12.276C41.6161 12.6362 41.6161 13.1908 41.2841 13.5509L40.6571 14.157L18.9415 35.9771C18.7705 36.1188 18.5573 36.1995 18.3354 36.207C18.0978 36.2074 17.8707 36.1089 17.7084 35.9353L6.33847 24.5864L26.0268 5.04446C26.8819 4.17431 26.8819 2.77945 26.0268 1.90933C25.614 1.4881 25.049 1.25067 24.4592 1.25067C23.8694 1.25067 23.3045 1.4881 22.8917 1.90939L1.65673 23.1443C1.23545 23.557 0.998047 24.122 0.998047 24.7119C0.998047 25.3016 1.23545 25.8666 1.65673 26.2794L14.5732 39.1959C15.5635 40.206 16.9209 40.7716 18.3354 40.7634C18.9631 40.7577 19.5851 40.6447 20.1746 40.429L27.448 47.7023C26.8649 48.7955 26.5632 50.0165 26.5701 51.2554C26.5816 55.4292 29.9623 58.8099 34.1361 58.8214V58.8214C34.1475 62.9871 37.5156 66.3645 41.6812 66.3874H41.6812C41.6812 70.5694 45.0653 73.9628 49.2472 73.9743C50.4879 73.9749 51.7091 73.666 52.8003 73.0757L55.5173 75.7926C57.4007 77.6806 60.2234 78.2738 62.7075 77.3037C65.1916 76.3337 66.8652 73.9846 66.9708 71.3199C68.6685 71.2351 70.2755 70.5283 71.4853 69.3344C72.7983 68.0338 73.5166 66.2493 73.4709 64.4019C75.3948 64.2946 77.198 63.4305 78.487 61.9982C79.7538 60.6272 80.4557 58.8279 80.4517 56.9612C84.3766 56.8588 87.4982 53.6349 87.4742 49.7087C87.4759 48.5829 87.2109 47.4728 86.7009 46.4692L93.9743 39.8229C96.0903 41.306 98.9668 41.0501 100.788 39.2167L113.704 26.3003C114.559 25.4301 114.559 24.0352 113.704 23.1652L113.809 23.0607Z" fill="#FFA31A"/>
</svg>
