<svg width="160" height="46" viewBox="0 0 160 46" fill="none" xmlns="http://www.w3.org/2000/svg">
<path fill-rule="evenodd" clip-rule="evenodd" d="M124.753 15.4203C123.178 15.4123 122.146 14.2776 122.177 12.5914C122.2 10.8618 123.597 9.47818 125.297 9.50212C126.89 9.51663 127.967 10.6463 127.942 12.2802C127.914 14.1103 126.589 15.4202 124.771 15.4203C124.765 15.4203 124.759 15.4203 124.753 15.4203ZM59.9728 37.134C61.7201 27.8319 63.4609 18.5401 65.1954 9.25907H70.5806C70.3309 10.6136 70.0813 11.9479 69.8317 13.2821C69.4252 15.4529 69.013 17.6244 68.6136 19.7974C68.6101 19.9456 68.6274 20.0938 68.6663 20.2364C68.668 20.2383 68.6697 20.2402 68.6714 20.2422C70.3153 18.1446 72.4355 17.0912 75.0849 17.4235C77.1139 17.6774 78.3292 19.032 78.6287 21.0867C78.8783 22.8533 78.5602 24.5729 78.2543 26.2916C77.9291 28.0931 77.5882 29.8924 77.2558 31.6925C76.9242 33.4932 76.5826 35.2897 76.2381 37.1253H70.8544C70.9977 36.3011 71.1347 35.4848 71.2844 34.6715C71.8371 31.6918 72.4205 28.7164 72.9319 25.7293C73.0709 24.9001 73.0988 24.0548 73.0132 23.2183C72.8983 22.0879 72.0411 21.5851 70.94 21.8536C70.0827 22.0611 69.4715 22.6212 68.9531 23.2952C67.8106 24.7862 67.3463 26.5456 67.0125 28.3623C66.4776 31.2826 65.9185 34.1927 65.3644 37.134H59.9728ZM117.724 37.134L121.343 17.808H126.786C125.557 24.2616 124.339 30.6833 123.116 37.134H117.724ZM127.799 37.163L130.645 21.8833H128.149C128.412 20.4794 128.666 19.1285 128.927 17.742L131.311 17.7471C131.706 16.4005 131.97 15.1112 132.454 13.9133C134.076 9.88592 137.481 8.45372 141.415 8.93112C141.903 8.99061 142.379 9.13282 142.93 9.25253L141.873 13.56C140.688 13.2858 139.518 13.0521 138.473 13.9039C137.294 14.8689 137.03 16.2568 136.769 17.713H140.501C140.245 19.1372 140.002 20.491 139.753 21.871H136.051C135.754 23.4352 135.457 24.9777 135.17 26.5216C134.537 29.9135 133.915 33.309 133.266 36.6986C133.232 36.8749 132.99 37.1405 132.841 37.1427C131.909 37.1614 130.978 37.1655 130.035 37.1655C129.298 37.1655 128.554 37.163 127.799 37.163V37.163ZM45.7657 36.46C45.653 36.4077 45.5432 36.3475 45.4376 36.2808C45.3727 36.2336 45.3121 36.1821 45.2544 36.1262L46.558 32.3034C47.9124 32.9201 49.2624 33.4345 50.7351 33.4461C51.1694 33.4621 51.6037 33.4106 52.0231 33.2937C53.3424 32.8708 53.7618 31.4277 52.8582 30.3633C52.4838 29.9266 51.9846 29.6015 51.5117 29.2547C50.9726 28.8637 50.3885 28.5386 49.8529 28.1388C46.1394 25.3456 47.4146 21.0294 49.8928 19.1336C51.7813 17.6861 53.9586 17.2864 56.2579 17.4097C58.2234 17.5163 59.0906 17.7521 60.0406 18.3072L58.8032 22.167C57.3861 21.6453 56.0118 21.2398 54.5527 21.5322C53.8039 21.6845 53.1798 22.0466 52.9816 22.8751C52.7833 23.7044 53.2091 24.2514 53.7903 24.7187C54.0713 24.932 54.363 25.1308 54.6639 25.3144C55.1018 25.5959 55.5575 25.8512 55.9833 26.1509C57.7655 27.4003 59.0592 28.9442 58.8531 31.3203C58.6213 33.954 57.2449 35.7642 54.8508 36.7052C53.4315 37.2643 52.0107 37.5418 50.5951 37.5418C48.9761 37.5419 47.3637 37.1792 45.7657 36.46L45.7657 36.46ZM88.5853 22.1082C88.3114 22.3005 88.0683 22.5334 87.8629 22.7989C86.0871 25.2541 85.4045 28.0169 85.7725 31.0221C85.8974 32.0712 86.4386 32.9571 87.5384 33.2531C88.6381 33.5491 89.5987 33.1769 90.3247 32.2983C90.717 31.8361 91.0564 31.3304 91.3374 30.7914C92.2567 28.9659 92.6347 26.991 92.7296 24.7927C92.6996 24.4031 92.6489 24.0156 92.5791 23.6318C92.2885 22.3053 91.3084 21.5355 90.2096 21.5355C89.6744 21.5355 89.1109 21.7182 88.5853 22.1082V22.1082ZM85.483 37.3081C82.5155 36.6305 80.7083 34.5975 80.3111 31.6011C79.6685 26.7502 81.0713 22.5363 84.9153 19.4005C87.1276 17.5925 89.7421 17.0302 92.5413 17.496C95.4852 17.9807 97.6497 20.3198 98.089 23.4374C98.1696 24.0178 98.2074 24.6033 98.2431 25.0677C98.0733 29.1227 96.9159 32.6168 93.8756 35.2244C92.0542 36.7892 89.9951 37.576 87.776 37.576C87.0289 37.576 86.2635 37.4868 85.483 37.3081V37.3081ZM108.785 22.106C108.374 22.3056 107.999 22.5718 107.672 22.894C106.82 23.7116 106.225 24.7658 105.96 25.926C105.475 28.0569 105.096 30.2124 104.712 32.3629C104.682 32.529 104.874 32.8185 105.04 32.9244C106.537 33.8713 108.228 33.5397 109.483 32.0262C111.136 30.0187 111.761 27.6263 111.961 24.9735C111.919 24.6132 111.896 24.1476 111.804 23.6979C111.567 22.5425 110.784 21.8635 109.818 21.8635C109.49 21.8635 109.141 21.9417 108.785 22.106ZM96.9758 44.8993C98.6303 35.8483 100.283 26.8097 101.946 17.7064H106.527C106.444 18.6358 106.354 19.5246 106.269 20.4047C107.402 19.1589 108.605 18.1497 110.158 17.6455C113.482 16.5637 116.398 18.2208 117.256 21.7273C118.297 25.9695 116.74 32.508 112.488 35.6931C109.86 37.6622 106.987 38.1055 103.812 36.8575C103.32 39.5159 102.826 42.1895 102.325 44.8993H96.9758ZM22.1055 6.75018H22.1076L24.143 6.11534C23.6053 4.65412 23.0512 3.32205 21.48 2.83231C21.6862 4.13174 21.8873 5.38763 22.1055 6.75018ZM16.1648 8.62278C17.5376 8.19327 18.8991 7.77318 20.257 7.32771C20.4138 7.25878 20.528 7.11731 20.5629 6.94681C20.5515 5.61941 20.4232 4.30794 19.8744 3.02985C18.2222 3.63014 15.9751 7.03682 16.1648 8.62278ZM14.6001 2.94768C12.6396 4.8522 11.4978 7.24355 10.7561 9.85546C10.7325 10.0107 10.7218 10.1682 10.724 10.3249C11.8586 9.96937 12.9263 9.65957 13.9689 9.29027C14.1843 9.21409 14.3904 8.94419 14.4867 8.7142C15.0529 7.36326 15.5101 5.95936 16.1526 4.65123C16.7367 3.45918 17.6853 2.53123 18.9804 1.74258C18.5161 1.6323 18.2251 1.52274 17.9284 1.4988C17.8279 1.49051 17.7288 1.48647 17.6315 1.48646C16.4181 1.48639 15.4551 2.11412 14.6001 2.94768H14.6001ZM7.38561 34.7564C7.3528 34.9088 7.48545 35.1685 7.62024 35.2752C10.1898 37.3219 13.0675 38.0003 16.1541 36.8423C19.9966 35.3999 20.6093 30.6717 19.5623 27.8798C18.9889 26.3562 17.835 25.3318 16.5506 24.4357C15.7647 23.8858 14.9645 23.354 14.1957 22.7852C13.6651 22.389 13.382 21.8521 13.4468 21.1462C13.5431 20.1021 14.384 19.3824 15.6698 19.2337C16.955 19.0857 18.218 19.3041 19.4774 19.7561C19.9417 18.001 20.3896 16.2975 20.8539 14.533C20.5857 14.4488 20.3546 14.3218 20.1214 14.3102C18.8841 14.2507 17.6367 14.0998 16.4108 14.2036C12.4983 14.5351 9.57075 17.224 8.92319 21.0802C8.49386 23.6297 9.10006 25.8549 11.2866 27.4423C11.8094 27.8232 12.3614 28.1744 12.8342 28.6126C13.2871 29.0312 13.7392 29.5014 14.0395 30.0296C14.4082 30.6463 14.3733 31.4284 13.951 32.0088C13.5445 32.6342 12.79 32.923 12.079 32.7249C11.2053 32.5102 10.3517 32.1597 9.51226 31.8158C9.0815 31.6395 8.6971 31.35 8.23069 31.0743C7.93187 32.344 7.63876 33.5498 7.38558 34.7564H7.38561ZM27.4607 45.1794C24.4561 44.6606 21.4522 44.1419 18.4491 43.6231C12.5233 42.5885 6.59827 41.5517 0.67395 40.5113C0.4493 40.4721 0.22465 40.4301 0 40.3844V39.6225C0.16332 38.617 0.35445 37.6143 0.48638 36.6036C1.0291 32.4558 1.56256 28.3021 2.08674 24.1426C2.51964 20.7399 2.97107 17.3386 3.35833 13.9308C3.46816 12.9607 3.85113 12.4072 4.80108 12.1634C6.06553 11.8347 7.29718 11.3762 8.55379 11.0207C8.98169 10.8937 9.1336 10.6652 9.21775 10.2589C9.76333 7.49894 10.9814 4.92258 12.7608 2.7663C13.8491 1.45091 15.1456 0.425012 16.8701 0.0898216C18.1367 -0.164118 19.2549 0.115212 20.2263 0.993832C20.3711 1.1208 20.5679 1.27534 20.7426 1.27824C22.8065 1.31379 24.071 2.50076 24.9396 4.25364C25.1614 4.70202 25.3305 5.17724 25.5123 5.61111L27.4607 5.23132C27.4607 5.23051 27.4607 5.22957 27.4607 5.22876C27.4618 5.22939 27.4629 5.23005 27.464 5.23068L27.4664 5.23021C27.4664 5.23102 27.4664 5.23128 27.4664 5.23209C27.6918 5.36263 27.9067 5.51166 28.1083 5.67714C28.8642 6.39977 29.586 7.1623 30.3619 7.86244C30.6251 8.07575 30.9453 8.20416 31.2805 8.23173C32.1106 8.30356 32.9436 8.33185 33.7766 8.31662C34.2929 8.30937 34.4705 8.57056 34.534 9.02038C34.7914 10.8524 35.0517 12.6843 35.3156 14.5163C35.7421 17.4699 36.1728 20.4243 36.6072 23.3794C37.0443 26.3751 37.4844 29.3701 37.9272 32.3658C38.373 35.4021 38.8166 38.4399 39.258 41.4777C39.2901 41.7048 39.3029 41.9356 39.3315 42.2265C37.8338 42.6074 36.3511 42.9767 34.872 43.3525C32.4829 43.9576 30.093 44.5641 27.7039 45.1707C27.6502 45.1784 27.5961 45.1823 27.542 45.1823C27.5149 45.1823 27.4878 45.1813 27.4607 45.1794L27.4607 45.1794ZM140.148 45.9593C139.658 44.4256 139.166 42.8903 138.721 41.5031C139.956 40.7536 141.21 40.1558 142.264 39.3026C143.137 38.5967 143.82 37.6259 144.489 36.6972C144.722 36.3736 144.785 35.8084 144.712 35.392C143.675 29.5696 142.602 23.7537 141.538 17.9364C141.538 17.919 141.547 17.8973 141.565 17.8283H147.189L148.517 30.9844L148.603 31.0011C148.945 30.0194 149.27 29.0327 149.63 28.059C150.84 24.7927 152.068 21.5329 153.271 18.2651C153.409 17.8907 153.596 17.7638 153.995 17.7688C155.653 17.7942 157.312 17.779 159.014 17.779C159.01 17.8748 158.996 17.9691 158.97 18.0612C156.315 23.7399 153.704 29.4419 150.983 35.0865C149.737 37.7129 148.105 40.1311 146.143 42.2584C144.557 43.9569 142.704 45.2229 140.464 45.8628C140.437 45.8715 140.422 45.9259 140.403 45.9593L140.148 45.9593Z" fill="#808080"/>
</svg>
