<svg xmlns="http://www.w3.org/2000/svg" width="92.224" height="14.447" viewBox="0 0 92.224 14.447">
  <g id="Group_358" data-name="Group 358" transform="translate(-371.78 -5801.774)">
    <path id="Path_4179" data-name="Path 4179" d="M17,8.457c.073-.367-.633-1-1-1l-4-1-2-4c-.073-.147.147.073,0,0-.367-.22-.78-.367-1,0l-2,4-4,1c-.22,0-.927-.147-1,0a.678.678,0,0,0,0,1l3,3-1,4c0,.147.927.853,1,1,.22.367.633.22,1,0l3-2,4,2c.073.073-.147,0,0,0h1c.367-.073.073-.56,0-1l-1-4,3-3C16.147,8.383,17,8.6,17,8.457Z" transform="translate(370 5799.541)" fill="#ffe600"/>
    <path id="Path_4180" data-name="Path 4180" d="M16.479,8.457c.073-.367.367-1,0-1l-5-1-1-4c-.073-.147-.853.073-1,0-.367-.22-.78-.367-1,0l-2,4-4,1c-.22,0,.073-.147,0,0a.678.678,0,0,0,0,1l3,3-1,4a4.557,4.557,0,0,0,0,1c.22.367.633.22,1,0l4-2,4,2c.073.073-.147,0,0,0h0c.367-.073,1.073-.56,1-1l-1-4,3-3C16.625,8.383,16.479,8.6,16.479,8.457Z" transform="translate(389.521 5799.541)" fill="#ffe600"/>
    <path id="Path_4181" data-name="Path 4181" d="M16.934,8.457c.073-.367-.633-1-1-1l-4-1-2-4c-.073-.147.147.073,0,0-.367-.22-.78-.367-1,0l-2,4-4,1c-.22,0-.927-.147-1,0a.678.678,0,0,0,0,1l3,3v4a4.557,4.557,0,0,0,0,1c.22.367.633.22,1,0l3-2,4,2a4.544,4.544,0,0,0,1,0h0c.367-.073.073-.56,0-1v-4l3-3C17.08,8.383,16.934,8.6,16.934,8.457Z" transform="translate(408.067 5799.541)" fill="#ffe600"/>
    <path id="Path_4183" data-name="Path 4183" d="M16.412,8.457c.073-.367.367-1,0-1l-5-1-1-4c-.073-.147-.853.073-1,0-.367-.22-.78-.367-1,0l-2,4-4,1c-.22,0,.073-.147,0,0a.678.678,0,0,0,0,1l3,3-1,4a4.557,4.557,0,0,0,0,1c.22.367.633.22,1,0l4-2,4,2c.073.073-.147,0,0,0h0c.367-.073,1.073-.56,1-1l-1-4,3-3C16.559,8.383,16.412,8.6,16.412,8.457Z" transform="translate(427.588 5799.541)" fill="#ffe600"/>
    <path id="Union_8" data-name="Union 8" d="M10.891,14l-4-2-3,2a5.888,5.888,0,0,1-1,0c-.407,0,0-.593,0-1V9l-3-3a.687.687,0,0,1,0-1h0c.068-.07.366-.046.624-.022C.608,4.985.7,4.993.767,5H.891l4-1,2-4,0,0h0c.212-.365.635-.212,1,0l2,4,4,1c.4.059,1.059.6,1,1-.013.083-.259.047-.506.011-.22-.032-.441-.064-.494-.011l-4-1a3.028,3.028,0,0,0-.364.021c-.274.023-.6.046-.636-.021l-2-4V11a3.007,3.007,0,0,1,1,0l3,2V9l1,4c.068.4.4.932,0,1a5.081,5.081,0,0,1-.637.041A1.021,1.021,0,0,1,10.891,14Zm-8-1,.222-.111L3.89,9Zm1-4h0L2.176,7.283ZM4.891,5Zm-2,8c0-.01,0-.02,0,0s0,.011,0,.011A.035.035,0,0,1,2.888,13ZM10.85,8.989c.007-.027.031-.055.041.009-.016.015-.026.02-.033.02S10.846,9,10.85,8.989ZM10.891,9l3-3Zm-3-9c-.037-.064,0-.038.024-.013s.02.027.011.027A.094.094,0,0,1,7.89,0Z" transform="translate(449.109 5802)" fill="#ffe600"/>
  </g>
</svg>
