<svg width="79" height="78" viewBox="0 0 79 78" fill="none" xmlns="http://www.w3.org/2000/svg">
<path d="M29.628 77.066L31.9 66.371L34.643 66.954L32.371 77.649L29.628 77.066ZM43.677 66.931L46.42 66.348L48.693 77.043L45.95 77.626L43.677 66.931ZM14.968 69.862L21.385 61.02L23.657 62.673L17.24 71.52L14.968 69.862ZM54.647 62.662L56.919 61.009L63.336 69.856L61.064 71.509L54.647 62.662ZM62.983 54.313L64.383 51.877L73.837 57.344L72.437 59.78L62.983 54.313ZM4.492 57.306L13.946 51.838L15.346 54.274L5.9 59.742L4.492 57.306ZM67.159 43.283L67.452 40.483L78.309 41.624L78.016 44.424L67.159 43.283ZM0 41.6L10.857 40.459L11.15 43.259L0.293 44.396L0 41.6ZM1.419 28.1L2.287 25.425L12.67 28.806L11.8 31.481L1.419 28.1ZM65.651 28.775L76.033 25.396L76.901 28.072L66.519 31.452L65.651 28.775ZM59.265 18.92L67.379 11.604L69.257 13.696L61.144 21.012L59.265 18.92ZM9.087 13.681L10.966 11.59L19.079 18.908L17.2 20.998L9.087 13.681ZM49.378 12.426L53.818 2.435L56.384 3.58L51.943 13.57L49.378 12.426ZM21.93 3.577L24.5 2.433L28.94 12.424L26.375 13.568L21.93 3.577ZM37.309 11V0H40.309V11H37.309Z" fill="#FFA31A"/>
</svg>
