<svg width="224" height="41" viewBox="0 0 224 41" fill="none" xmlns="http://www.w3.org/2000/svg">
<path fill-rule="evenodd" clip-rule="evenodd" d="M86.3988 33.5906V20.5264C86.3988 16.9594 86.301 14.0415 82.5874 14.0415C79.2786 14.0415 77.9034 16.174 77.9034 20.8022V33.5906H70.2387V0H77.9034V11.9543C79.0168 10.1009 81.7078 8.11144 85.6553 8.11144C92.06 8.11144 94.06 11.874 94.06 18.6277V33.5906L86.3988 33.5906ZM163.691 33.5906V8.12891H171.021V12.9595C172.176 9.92991 174.253 8.08703 177.799 7.94044H178.351C178.557 7.92997 178.759 7.94742 178.961 7.9893V15.6121C178.274 15.4934 177.579 15.4446 176.885 15.4655C173.195 15.4655 171.307 16.8372 171.307 20.8161V33.5906L163.691 33.5906ZM12.216 33.5976C6.03472 33.5976 3.94403 32.3899 3.94403 26.5996V14.0799H0V8.65595H3.94403V1.83242H11.6122V8.65595H17.1094V14.0729H11.6122V25.2488C11.6122 27.5873 12.3556 28.076 14.921 28.1004H17.1024V33.5976L12.216 33.5976ZM131.315 33.5976C125.141 33.5976 123.043 32.3899 123.043 26.5996V14.0799H119.099V8.65595H123.043V1.83242H130.712L130.722 8.65595H136.219V14.0973H130.722V25.2732C130.722 27.6362 131.469 28.1004 134.02 28.1004H136.202V33.5976L131.315 33.5976ZM43.9986 20.9976C43.9986 13.0781 49.2271 7.94043 56.8255 7.94043C62.0609 7.94043 67.806 10.2859 69.3033 17.8215H62.1098C61.4117 14.9036 59.5863 13.8774 57.2967 13.8774C54.5044 13.8774 51.7995 15.654 51.7995 21.0709C51.7995 26.4879 54.5428 28.2923 57.2967 28.2923C60.1413 28.2923 61.8759 26.8125 62.4553 24.4321H69.6523C67.9002 31.8559 61.8759 34.2014 56.8255 34.2014C48.5605 34.2014 43.9986 28.9206 43.9986 20.9976H43.9986ZM24.7253 18.4253H35.2834C35.1438 15.2805 33.0182 13.7483 30.1596 13.7483C27.4896 13.7483 25.1336 15.1409 24.7253 18.4253ZM30.4703 34.2014C22.5368 34.2014 17.1024 29.2941 17.1024 20.9976C17.1024 13.0328 23.0394 7.94043 30.1666 7.94043C38.2781 7.94043 43.2308 14.1881 42.6968 23.0883H24.6136C24.8404 26.6554 27.5105 28.2714 30.2329 28.2714C33.102 28.2714 34.868 27.2453 35.7301 25.7758H42.627C40.8469 30.8342 36.0701 34.2043 30.7232 34.2039C30.6393 34.2039 30.5544 34.2031 30.4703 34.2014ZM94.6812 25.4687H101.815C102.506 27.877 104.43 28.6309 107.086 28.6309C109.84 28.6309 111.745 27.8875 111.745 26.4041C111.745 25.2977 110.768 24.5891 107.833 24.0761L103.355 23.3326C98.4926 22.5369 95.1873 20.1181 95.1873 15.661C95.1873 10.6873 100.454 7.94742 106.653 7.94742C112.394 7.94742 117.56 10.2231 118.544 15.9402H111.361C110.855 14.0799 108.918 13.5354 106.475 13.5354C103.819 13.5354 102.468 14.202 102.468 15.3678C102.468 16.5336 103.337 17.1793 105.522 17.6016L110.196 18.4253C116.234 19.5631 119.099 21.3292 119.113 25.7514C119.113 31.3743 113.944 34.2084 106.988 34.2084C100.325 34.2084 95.5678 31.3743 94.6812 25.4687V25.4687ZM178.968 25.4687H186.103C186.79 27.877 188.713 28.6309 191.373 28.6309C194.127 28.6309 196.032 27.8875 196.032 26.4041C196.032 25.2977 195.055 24.5891 192.116 24.0761L187.638 23.3326C182.79 22.5369 179.492 20.1181 179.492 15.661C179.492 10.6873 184.762 7.94742 190.961 7.94742C196.696 7.94742 201.872 10.2231 202.852 15.9402H195.659C195.16 14.0799 193.216 13.5354 190.773 13.5354C188.116 13.5354 186.766 14.202 186.766 15.3678C186.766 16.5336 187.628 17.1793 189.82 17.6016L194.479 18.4253C200.521 19.5631 203.386 21.3292 203.397 25.7514C203.397 31.3743 198.231 34.2084 191.275 34.2084C184.612 34.2084 179.851 31.3743 178.968 25.4687L178.968 25.4687ZM144.795 26.3797C144.795 27.9922 146.352 29.0602 148.379 29.0602C151.521 29.0602 153.877 27.7653 153.877 23.186L153.852 22.5857C148.46 23.0918 144.795 23.6502 144.795 26.3797ZM136.799 26.8858C136.799 20.7847 143.828 18.7987 153.681 18.0553V17.0815C153.681 14.1217 152.233 13.1061 149.406 13.1061C146.903 13.1061 145.203 14.3661 144.875 16.7709H137.612C137.992 12.1009 142.516 7.94043 150.065 7.94043C157.384 7.94043 161.524 10.8548 161.384 18.3904L161.287 23.7968V26.4041C161.234 28.8194 161.426 31.2312 161.852 33.6115H154.212L154.121 30.6099C152.222 33.2451 149.235 34.2154 145.57 34.2154C140.764 34.2154 136.799 31.4161 136.799 26.8857V26.8858ZM203.386 40.3094V33.5906H223.539V40.3094H203.386Z" fill="#808080"/>
</svg>
