<svg width="81" height="83" viewBox="0 0 81 83" fill="none" xmlns="http://www.w3.org/2000/svg">
<path fill-rule="evenodd" clip-rule="evenodd" d="M7.0408 54.6642C7.0408 53.7724 7.76403 53.0492 8.65682 53.0492C9.54856 53.0492 10.2718 53.7724 10.2718 54.6642C10.2718 55.557 9.54857 56.2802 8.65682 56.2802C7.76403 56.2802 7.0408 55.557 7.0408 54.6642ZM68.5052 54.6642C68.5052 53.7724 69.2285 53.0492 70.1202 53.0492C71.012 53.0492 71.7352 53.7724 71.7352 54.6642C71.7352 55.557 71.0119 56.2802 70.1202 56.2802C69.2285 56.2802 68.5052 55.557 68.5052 54.6642ZM38.8526 3.35014C35.3997 3.35642 32.6052 6.16144 32.6136 9.61433C32.6303 13.0557 35.4207 15.8387 38.862 15.8471C42.316 15.8471 45.1137 13.0473 45.1105 9.5934C45.1085 6.14367 42.3109 3.35003 38.8623 3.35014C38.8591 3.35014 38.8558 3.35014 38.8526 3.35014H38.8526ZM40.7062 57.0422V79.5671H46.4524V34.3791C46.4524 33.4873 47.1756 32.7641 48.0673 32.7641L48.0066 32.6877C48.4368 32.6835 48.8492 32.8531 49.1537 33.1566C49.4573 33.4601 49.6258 33.8735 49.6227 34.3037V54.8777C52.4005 54.5365 54.5053 52.2045 54.5597 49.4068V33.7542C54.5597 30.968 53.7496 28.2415 52.2277 25.9065C49.3421 21.5974 44.4982 19.0111 39.3121 19.0111C34.126 19.0111 29.2821 21.5974 26.3965 25.9065C24.8631 28.2426 24.0478 30.9754 24.0488 33.7699V49.4215C24.1033 52.3207 26.3546 54.7039 29.2454 54.9237V34.3184C29.2454 33.4266 29.9697 32.7034 30.8615 32.7034C31.7532 32.7034 32.4765 33.4266 32.4765 34.3184V79.5063H37.4753V57.0422C37.4753 56.1494 38.1985 55.4261 39.0913 55.4261C39.983 55.4261 40.7062 56.1494 40.7062 57.0422ZM1.61498 82.7363C0.72324 82.7363 0 82.0131 0 81.1213C0 80.2296 0.72323 79.5063 1.61498 79.5063H14.4176V39.8813C14.4176 38.9896 15.1408 38.2663 16.0326 38.2663C16.9254 38.2663 17.6486 38.9896 17.6486 39.8813V79.5063H21.6259V61.8578C21.6259 60.965 22.3491 60.2417 23.2408 60.2417C24.1336 60.2417 24.8568 60.965 24.8568 61.8578V79.4907H29.3376V58.1547C24.6611 57.9287 20.9686 54.1032 20.91 49.4215V33.7699C20.9058 31.3019 21.426 28.8601 22.4339 26.6067C15.6642 27.0274 10.3556 32.582 10.2415 39.3632V48.5078C10.2415 49.3995 9.51824 50.1228 8.62545 50.1228C7.73371 50.1228 7.01047 49.3995 7.01047 48.5078V39.3632C7.07118 32.7097 11.2211 26.7804 17.4497 24.4432C14.7567 22.1071 13.8001 18.3434 15.0498 15.0046C16.2995 11.6658 19.4938 9.45524 23.0587 9.46152C24.4843 9.46675 25.8868 9.82261 27.1427 10.4977C27.8419 10.9582 28.0743 11.8761 27.6786 12.613C27.2819 13.3498 26.3881 13.6628 25.6188 13.3331C23.6679 12.278 21.2669 12.5449 19.5954 14.0019C17.9228 15.4588 17.3304 17.8002 18.1081 19.8778C18.8857 21.9543 20.8712 23.3307 23.0891 23.3307H24.3084C26.475 20.3341 29.4977 18.066 32.9799 16.8226C29.8891 14.3232 28.6897 10.1575 29.9781 6.39693C31.2665 2.63632 34.7676 0.08145 38.7417 0.00191C42.7169 -0.07764 46.3173 2.33489 47.7544 6.04107C49.1925 9.7483 48.1605 13.9579 45.1723 16.5787C48.9193 17.7489 52.1932 20.0881 54.5147 23.2542H54.971C57.9058 23.2375 60.2754 20.8543 60.2754 17.9205C60.2754 16.0627 59.3031 14.3399 57.7132 13.3802C56.1234 12.4204 54.1463 12.3618 52.503 13.2263C51.7117 13.6471 50.7289 13.3467 50.3082 12.5554C49.8874 11.7641 50.1878 10.7813 50.978 10.3606C52.1953 9.73365 53.5413 9.39976 54.9103 9.38616C58.4103 9.37674 61.5597 11.5056 62.8575 14.7565C64.1553 18.0063 63.3369 21.7188 60.7935 24.123C63.1265 24.9038 65.2554 26.1943 67.0263 27.9024C70.1317 30.8644 71.8932 34.9652 71.9037 39.2565V48.401C71.9079 48.8302 71.7383 49.2436 71.4348 49.5471C71.1313 49.8517 70.7178 50.0202 70.2877 50.016C69.4305 50.017 68.7208 49.3482 68.6727 48.4921V39.3475C68.6685 35.9302 67.2639 32.6636 64.7865 30.3108C62.5037 28.1055 59.5103 26.7877 56.3432 26.592C57.3563 28.8486 57.8765 31.2957 57.8671 33.7699V49.4519C57.8095 54.0341 54.2666 57.8146 49.698 58.1694V79.5064H53.6302V61.8578C53.6302 60.965 54.3535 60.2418 55.2452 60.2418C56.1349 60.2501 56.8529 60.9692 56.8613 61.8578V79.5064H61.5251L61.4487 39.8813C61.4487 38.9896 62.172 38.2663 63.0637 38.2663C63.9565 38.2663 64.6797 38.9896 64.6797 39.8813L64.7561 79.5064H78.6242H78.5635C79.4553 79.5064 80.1785 80.2296 80.1785 81.1214C80.1785 82.0131 79.4553 82.7363 78.5635 82.7363L1.61498 82.7363Z" fill="#F7971E"/>
</svg>
