<svg width="289" height="123" viewBox="0 0 289 123" fill="none" xmlns="http://www.w3.org/2000/svg">
<path fill-rule="evenodd" clip-rule="evenodd" d="M110.132 122.997C100.46 122.997 91.8578 118.421 86.3718 111.315C80.8856 118.421 72.2831 122.997 62.6111 122.997H30.0005C13.4315 122.997 -7e-05 109.566 -7e-05 92.9977V29.9993C-7e-05 13.4314 13.4315 0 30.0005 0H62.6111C72.2831 0 80.8856 4.57631 86.3718 11.6821C91.8578 4.57631 100.46 0 110.132 0H258.999C275.568 0 289 13.4314 289 29.9993V92.9977C289 109.566 275.568 122.997 258.999 122.997H110.132Z" fill="#C77700"/>
<path d="M89.1792 105.434L88.3805 104.374L87.5818 105.434C86.9077 106.329 86.1829 107.183 85.4117 107.993C85.0347 108.389 85.0462 109.014 85.4345 109.396C84.2602 110.55 82.9913 111.608 81.6405 112.558C81.3348 112.107 80.7228 111.984 80.2654 112.283C78.4056 113.5 76.3977 114.51 74.2749 115.278C73.7608 115.464 73.4924 116.028 73.6693 116.543C72.1181 117.046 70.5114 117.426 68.8609 117.672C68.7898 117.132 68.2984 116.747 67.7552 116.809C66.6561 116.936 65.5379 117.001 64.4042 117.001H60.7283C60.1761 117.001 59.7283 117.449 59.7283 118.001H54.3767C54.3767 117.449 53.929 117.001 53.3767 117.001H46.0251C45.4728 117.001 45.0251 117.449 45.0251 118.001H39.6735C39.6735 117.449 39.2257 117.001 38.6735 117.001H34.9976C33.713 117.001 32.4484 116.917 31.2088 116.756C30.6667 116.685 30.1694 117.062 30.0901 117.601C28.1382 117.28 26.2498 116.771 24.4442 116.092C24.6445 115.585 24.4022 115.01 23.8972 114.801C21.5402 113.823 19.3396 112.544 17.3438 111.01C16.9102 110.677 16.2906 110.754 15.9517 111.18C14.4438 109.94 13.059 108.555 11.8185 107.047C12.2449 106.708 12.3221 106.088 11.989 105.655C10.4553 103.659 9.17565 101.458 8.19821 99.1014C7.9888 98.5964 7.41342 98.3541 6.90698 98.5545C6.22828 96.7488 5.71868 94.8604 5.39749 92.9085C5.93635 92.8293 6.31393 92.332 6.24322 91.7899C6.08151 90.5503 5.99804 89.2856 5.99804 88.001V84.6884C5.99804 84.1361 5.55033 83.6884 4.99804 83.6884V79.0633C5.55033 79.0633 5.99804 78.6156 5.99804 78.0633V71.4381C5.99804 70.8858 5.55033 70.4381 4.99804 70.4381V65.813C5.55033 65.813 5.99804 65.3653 5.99804 64.813V58.1878C5.99804 57.6355 5.55033 57.1878 4.99804 57.1878V52.5627C5.55033 52.5627 5.99804 52.115 5.99804 51.5627V44.9375C5.99804 44.3852 5.55033 43.9375 4.99804 43.9375V39.3124C5.55033 39.3124 5.99804 38.8647 5.99804 38.3124V34.9998C5.99804 33.7152 6.08151 32.4505 6.24322 31.2109C6.31393 30.6688 5.93635 30.1715 5.39749 30.0923C5.71868 28.1404 6.22827 26.252 6.90698 24.4463C7.41342 24.6467 7.9888 24.4044 8.19821 23.8994C9.17565 21.5423 10.4553 19.3417 11.989 17.3459C12.3221 16.9123 12.2449 16.2927 11.8185 15.9538C13.059 14.4458 14.4438 13.061 15.9517 11.8205C16.2906 12.247 16.9102 12.3242 17.3438 11.991C19.3396 10.4573 21.5402 9.17766 23.8972 8.2002C24.4022 7.99079 24.6445 7.41541 24.4442 6.90897C26.2498 6.23025 28.1382 5.72065 30.0901 5.39946C30.1694 5.93832 30.6667 6.3159 31.2088 6.24518C32.4484 6.08347 33.713 6 34.9976 6H38.6735C39.2257 6 39.6735 5.55228 39.6735 5H45.0251C45.0251 5.55228 45.4728 6 46.0251 6H53.3767C53.929 6 54.3767 5.55228 54.3767 5H59.7283C59.7283 5.55228 60.1761 6 60.7283 6H64.4042C65.5379 6 66.6561 6.06501 67.7552 6.19143C68.2984 6.2539 68.7898 5.8688 68.8609 5.32878C70.5114 5.57459 72.1181 5.95484 73.6693 6.45803C73.4924 6.97311 73.7608 7.53677 74.2749 7.72282C76.3977 8.49115 78.4056 9.50042 80.2654 10.7178C80.7228 11.0172 81.3348 10.8934 81.6405 10.4426C82.9913 11.3924 84.2602 12.4509 85.4345 13.6052C85.0462 13.9872 85.0347 14.6115 85.4117 15.0075C86.1829 15.8175 86.9077 16.6721 87.5818 17.5669L88.3805 18.6269L89.1792 17.5669C89.8533 16.6721 90.5781 15.8176 91.3492 15.0076C91.7262 14.6116 91.7147 13.9872 91.3263 13.6053C92.5006 12.4509 93.7694 11.3925 95.1202 10.4427C95.4259 10.8935 96.0379 11.0173 96.4953 10.7179C98.3551 9.50049 100.363 8.49121 102.486 7.72288C103 7.53682 103.268 6.97315 103.091 6.45807C104.642 5.95487 106.249 5.57461 107.899 5.32879C107.97 5.86881 108.462 6.25392 109.005 6.19144C110.104 6.06502 111.222 6 112.356 6H115.897C116.449 6 116.897 5.55228 116.897 5H121.979C121.979 5.55228 122.427 6 122.979 6H130.061C130.613 6 131.061 5.55228 131.061 5H136.143C136.143 5.55228 136.591 6 137.143 6H144.225C144.777 6 145.225 5.55228 145.225 5H150.307C150.307 5.55228 150.755 6 151.307 6H158.389C158.941 6 159.389 5.55228 159.389 5H164.471C164.471 5.55228 164.919 6 165.471 6H172.553C173.106 6 173.553 5.55228 173.553 5H178.635C178.635 5.55228 179.083 6 179.635 6H186.717C187.27 6 187.717 5.55228 187.717 5H192.799C192.799 5.55228 193.247 6 193.799 6H200.881C201.434 6 201.881 5.55228 201.881 5H206.963C206.963 5.55228 207.411 6 207.963 6H215.045C215.598 6 216.045 5.55228 216.045 5H221.128C221.128 5.55228 221.575 6 222.128 6H229.21C229.762 6 230.21 5.55228 230.21 5H235.292C235.292 5.55228 235.739 6 236.292 6H243.374C243.926 6 244.374 5.55228 244.374 5H249.456C249.456 5.55228 249.903 6 250.456 6H253.997C255.281 6 256.546 6.08347 257.786 6.24518C258.328 6.3159 258.825 5.93832 258.904 5.39945C260.856 5.72065 262.745 6.23025 264.55 6.90897C264.35 7.41541 264.592 7.99079 265.097 8.2002C267.454 9.17766 269.655 10.4573 271.651 11.991C272.084 12.3242 272.704 12.247 273.043 11.8205C274.551 13.061 275.935 14.4458 277.176 15.9538C276.749 16.2927 276.672 16.9123 277.005 17.3459C278.539 19.3417 279.819 21.5423 280.796 23.8994C281.006 24.4044 281.581 24.6467 282.087 24.4464C282.766 26.252 283.276 28.1404 283.597 30.0923C283.058 30.1715 282.68 30.6688 282.751 31.2109C282.913 32.4505 282.996 33.7152 282.996 34.9998V38.3124C282.996 38.8647 283.444 39.3124 283.996 39.3124V43.9375C283.444 43.9375 282.996 44.3852 282.996 44.9375V51.5627C282.996 52.115 283.444 52.5627 283.996 52.5627V57.1878C283.444 57.1878 282.996 57.6355 282.996 58.1878V64.813C282.996 65.3653 283.444 65.813 283.996 65.813V70.4381C283.444 70.4381 282.996 70.8858 282.996 71.4381V78.0633C282.996 78.6156 283.444 79.0633 283.996 79.0633V83.6884C283.444 83.6884 282.996 84.1361 282.996 84.6884V88.001C282.996 89.2856 282.913 90.5503 282.751 91.7899C282.68 92.332 283.058 92.8293 283.597 92.9085C283.276 94.8604 282.766 96.7488 282.087 98.5545C281.581 98.3541 281.006 98.5964 280.796 99.1014C279.819 101.458 278.539 103.659 277.005 105.655C276.672 106.088 276.749 106.708 277.176 107.047C275.935 108.555 274.551 109.94 273.043 111.18C272.704 110.754 272.084 110.677 271.651 111.01C269.655 112.544 267.454 113.823 265.097 114.801C264.592 115.01 264.35 115.585 264.55 116.092C262.745 116.771 260.856 117.28 258.904 117.601C258.825 117.062 258.328 116.685 257.786 116.756C256.546 116.917 255.281 117.001 253.997 117.001H250.456C249.903 117.001 249.456 117.449 249.456 118.001H244.374C244.374 117.449 243.926 117.001 243.374 117.001H236.292C235.739 117.001 235.292 117.449 235.292 118.001H230.21C230.21 117.449 229.762 117.001 229.21 117.001H222.128C221.575 117.001 221.128 117.449 221.128 118.001H216.045C216.045 117.449 215.598 117.001 215.045 117.001H207.963C207.411 117.001 206.963 117.449 206.963 118.001H201.881C201.881 117.449 201.434 117.001 200.881 117.001H193.799C193.247 117.001 192.799 117.449 192.799 118.001H187.717C187.717 117.449 187.27 117.001 186.717 117.001H179.635C179.083 117.001 178.635 117.449 178.635 118.001H173.553C173.553 117.449 173.106 117.001 172.553 117.001H165.471C164.919 117.001 164.471 117.449 164.471 118.001H159.389C159.389 117.449 158.942 117.001 158.389 117.001H151.307C150.755 117.001 150.307 117.449 150.307 118.001H145.225C145.225 117.449 144.777 117.001 144.225 117.001H137.143C136.591 117.001 136.143 117.449 136.143 118.001H131.061C131.061 117.449 130.613 117.001 130.061 117.001H122.979C122.427 117.001 121.979 117.449 121.979 118.001H116.897C116.897 117.449 116.449 117.001 115.897 117.001H112.356C111.222 117.001 110.104 116.936 109.005 116.809C108.462 116.747 107.97 117.132 107.899 117.672C106.249 117.426 104.642 117.046 103.091 116.543C103.268 116.028 103 115.464 102.486 115.278C100.363 114.51 98.3551 113.5 96.4953 112.283C96.0379 111.983 95.4259 112.107 95.1202 112.558C93.7694 111.608 92.5006 110.55 91.3263 109.395C91.7147 109.014 91.7262 108.389 91.3492 107.993C90.5781 107.183 89.8533 106.329 89.1792 105.434Z" stroke="#FFA31A" stroke-width="2" stroke-linecap="round" stroke-dasharray="7 7"/>
</svg>