<svg width="124" height="61" viewBox="0 0 124 61" fill="none" xmlns="http://www.w3.org/2000/svg">
<path d="M101.999 0.021525C101.886 0.021525 102.077 0.00852499 101.999 0.021525C101.684 0.067525 101.118 -0.029475 100.999 0.021525C100.765 0.121525 100.128 -0.059475 99.9993 0.021525C99.7403 0.185525 100.275 0.809525 99.9993 1.02153C99.4473 1.44653 98.5993 2.45952 97.9993 3.02152C93.5553 7.18752 89.4463 14.8145 94.9993 18.0215C95.3947 13.4024 97.5413 9.10933 100.999 6.02152C101.028 5.99452 100.97 5.04852 100.999 5.02152C101.419 6.32853 101.315 7.65454 101.999 9.02154C102.16 9.34454 102.828 9.70654 102.999 10.0215L105.999 7.02152C105.266 5.50952 104.353 4.42153 103.999 3.02152C103.899 2.62152 104.082 2.31252 103.999 2.02152C103.957 1.87752 104.038 2.14052 103.999 2.02152C103.98 1.96052 104.033 1.10952 103.999 1.02153C103.98 0.977525 104.04 1.10952 103.999 1.02153C103.977 0.977525 104.048 1.10452 103.999 1.02153C103.667 0.982414 103.331 0.982414 102.999 1.02153V0.021525C102.999 0.021525 102.155 0.048525 101.999 0.021525C101.843 -0.00547501 102.109 0.018525 101.999 0.021525ZM114.999 17.0215L111.999 21.0215C115.099 23.5395 117.681 25.7345 118.999 29.0215C120.738 33.3515 120.491 38.3885 118.999 43.0215C118.165 44.7823 117.16 46.457 115.999 48.0215C114.342 50.2467 112.243 52.1058 109.834 53.4823C107.425 54.8589 104.758 55.7234 101.999 56.0215C100.335 56.1429 98.6638 56.1429 96.9993 56.0215C94.9169 55.6338 92.8979 54.9608 90.9993 54.0215C88.6298 52.8563 86.5728 51.1421 84.9993 49.0215C83.3803 51.8275 84.7773 55.8775 88.9993 58.0215C91.2272 59.0134 93.5837 59.6867 95.9993 60.0215C98.3238 60.3085 100.675 60.3085 102.999 60.0215C106.364 59.5984 109.607 58.4934 112.53 56.774C115.453 55.0545 117.995 52.7569 119.999 50.0215C121.282 48.1759 122.293 46.1552 122.999 44.0215C124.609 38.406 124.256 32.4097 121.999 27.0215C120.59 23.1288 118.174 19.6786 114.999 17.0215Z" fill="#FFA31A"/>
<path d="M8.02557 40.0215H1.58026V21.8397H8.07884C9.90767 21.8397 11.482 22.2037 12.8018 22.9316C14.1217 23.6537 15.1367 24.6924 15.8469 26.0478C16.5631 27.4031 16.9212 29.0248 16.9212 30.9128C16.9212 32.8068 16.5631 34.4344 15.8469 35.7956C15.1367 37.1569 14.1158 38.2015 12.7841 38.9295C11.4583 39.6575 9.87216 40.0215 8.02557 40.0215ZM5.42436 36.7278H7.86577C9.00213 36.7278 9.95798 36.5266 10.7333 36.1241C11.5146 35.7157 12.1005 35.0854 12.4911 34.2331C12.8877 33.3749 13.0859 32.2682 13.0859 30.9128C13.0859 29.5693 12.8877 28.4714 12.4911 27.6191C12.1005 26.7669 11.5175 26.1395 10.7422 25.737C9.96686 25.3346 9.01101 25.1333 7.87465 25.1333H5.42436V36.7278ZM25.9122 40.2878C24.5095 40.2878 23.3021 40.0037 22.29 39.4355C21.2839 38.8614 20.5086 38.0506 19.964 37.003C19.4195 35.9495 19.1473 34.7037 19.1473 33.2654C19.1473 31.8627 19.4195 30.6317 19.964 29.5723C20.5086 28.5128 21.275 27.6872 22.2634 27.0953C23.2577 26.5035 24.4237 26.2076 25.7613 26.2076C26.6609 26.2076 27.4984 26.3526 28.2737 26.6426C29.055 26.9267 29.7356 27.3558 30.3156 27.9299C30.9015 28.504 31.3573 29.226 31.6828 30.0961C32.0083 30.9602 32.1711 31.9722 32.1711 33.1323V34.171H20.6565V31.8272H28.6111C28.6111 31.2827 28.4927 30.8004 28.2559 30.3801C28.0192 29.9599 27.6907 29.6315 27.2705 29.3947C26.8562 29.152 26.3738 29.0307 25.8234 29.0307C25.2493 29.0307 24.7403 29.1639 24.2964 29.4302C23.8585 29.6906 23.5152 30.0428 23.2666 30.4867C23.018 30.9247 22.8908 31.4129 22.8849 31.9515V34.1799C22.8849 34.8546 23.0091 35.4376 23.2577 35.9288C23.5122 36.42 23.8703 36.7988 24.3319 37.0652C24.7936 37.3315 25.3411 37.4647 25.9743 37.4647C26.3946 37.4647 26.7793 37.4055 27.1285 37.2871C27.4777 37.1687 27.7765 36.9912 28.0251 36.7544C28.2737 36.5177 28.4631 36.2277 28.5933 35.8844L32.0912 36.1152C31.9136 36.9557 31.5496 37.6896 30.9992 38.3169C30.4547 38.9384 29.7504 39.4237 28.8863 39.7729C28.0281 40.1162 27.0367 40.2878 25.9122 40.2878ZM38.5276 40.2789C37.6576 40.2789 36.8823 40.128 36.2016 39.8262C35.521 39.5184 34.9824 39.0656 34.5858 38.4679C34.1952 37.8642 33.9999 37.1125 33.9999 36.2129C33.9999 35.4553 34.139 34.8191 34.4172 34.3042C34.6953 33.7892 35.0741 33.3749 35.5535 33.0613C36.0329 32.7476 36.5774 32.5108 37.1871 32.351C37.8026 32.1912 38.4477 32.0788 39.1224 32.0137C39.9155 31.9308 40.5547 31.8539 41.04 31.7828C41.5254 31.7059 41.8775 31.5935 42.0965 31.4455C42.3155 31.2975 42.425 31.0785 42.425 30.7885V30.7353C42.425 30.173 42.2474 29.738 41.8923 29.4302C41.5431 29.1225 41.046 28.9686 40.4008 28.9686C39.7202 28.9686 39.1787 29.1195 38.7762 29.4213C38.3737 29.7173 38.1074 30.0901 37.9772 30.54L34.4793 30.2559C34.6569 29.4273 35.0061 28.7111 35.5269 28.1074C36.0477 27.4978 36.7195 27.0302 37.5422 26.7047C38.3708 26.3733 39.3296 26.2076 40.4186 26.2076C41.1762 26.2076 41.9012 26.2963 42.5937 26.4739C43.2921 26.6515 43.9105 26.9267 44.4491 27.2995C44.9936 27.6724 45.4227 28.1518 45.7364 28.7377C46.0501 29.3178 46.2069 30.0132 46.2069 30.824V40.0215H42.6203V38.1305H42.5138C42.2948 38.5566 42.0018 38.9325 41.6349 39.258C41.2679 39.5776 40.827 39.8291 40.3121 40.0126C39.7971 40.1902 39.2023 40.2789 38.5276 40.2789ZM39.6107 37.6689C40.1671 37.6689 40.6583 37.5594 41.0844 37.3404C41.5106 37.1155 41.845 36.8136 42.0876 36.4348C42.3303 36.056 42.4516 35.627 42.4516 35.1475V33.7005C42.3332 33.7774 42.1705 33.8484 41.9633 33.9135C41.7621 33.9727 41.5342 34.0289 41.2797 34.0822C41.0252 34.1296 40.7707 34.1739 40.5162 34.2154C40.2617 34.2509 40.0309 34.2834 39.8238 34.313C39.3799 34.3781 38.9922 34.4817 38.6608 34.6238C38.3293 34.7658 38.0719 34.9582 37.8884 35.2008C37.7049 35.4376 37.6132 35.7335 37.6132 36.0886C37.6132 36.6035 37.7996 36.9971 38.1725 37.2694C38.5513 37.5357 39.0307 37.6689 39.6107 37.6689ZM52.923 21.8397V40.0215H49.1411V21.8397H52.923ZM67.2985 30.2736L63.8361 30.4867C63.7769 30.1908 63.6497 29.9244 63.4544 29.6877C63.2591 29.445 63.0016 29.2527 62.682 29.1106C62.3683 28.9627 61.9925 28.8887 61.5545 28.8887C60.9686 28.8887 60.4744 29.013 60.0719 29.2615C59.6694 29.5042 59.4682 29.8297 59.4682 30.2381C59.4682 30.5636 59.5984 30.8388 59.8588 31.0637C60.1193 31.2886 60.5661 31.4692 61.1994 31.6053L63.6674 32.1025C64.9932 32.3747 65.9816 32.8127 66.6326 33.4164C67.2837 34.0201 67.6092 34.8132 67.6092 35.7956C67.6092 36.6893 67.3458 37.4735 66.8191 38.1483C66.2982 38.823 65.5821 39.3497 64.6706 39.7285C63.7651 40.1014 62.7205 40.2878 61.5368 40.2878C59.7316 40.2878 58.2934 39.912 57.2221 39.1603C56.1568 38.4028 55.5324 37.3729 55.3489 36.0708L59.0687 35.8755C59.1812 36.426 59.4534 36.8462 59.8855 37.1362C60.3175 37.4203 60.8709 37.5623 61.5456 37.5623C62.2085 37.5623 62.7412 37.4351 63.1436 37.1806C63.552 36.9202 63.7592 36.5858 63.7651 36.1774C63.7592 35.8341 63.6142 35.553 63.3301 35.334C63.046 35.1091 62.608 34.9374 62.0162 34.8191L59.6547 34.3485C58.323 34.0822 57.3316 33.6206 56.6806 32.9636C56.0355 32.3066 55.7129 31.4692 55.7129 30.4512C55.7129 29.5752 55.9496 28.8206 56.4231 28.1873C56.9025 27.554 57.5743 27.0658 58.4384 26.7225C59.3084 26.3792 60.3264 26.2076 61.4924 26.2076C63.2147 26.2076 64.57 26.5716 65.5584 27.2995C66.5527 28.0275 67.1328 29.0189 67.2985 30.2736Z" fill="white"/>
<path d="M85.5057 22.5669H89.1534V34.7374C89.1534 35.8624 88.9006 36.8397 88.3949 37.6692C87.8949 38.4988 87.1989 39.138 86.3068 39.5868C85.4148 40.0357 84.3778 40.2601 83.196 40.2601C82.1449 40.2601 81.1903 40.0755 80.3324 39.7061C79.4801 39.3311 78.804 38.763 78.304 38.0016C77.804 37.2346 77.5568 36.2715 77.5625 35.1124H81.2358C81.2472 35.5726 81.3409 35.9675 81.517 36.2971C81.6989 36.6209 81.946 36.8709 82.2585 37.0471C82.5767 37.2175 82.9517 37.3027 83.3835 37.3027C83.8381 37.3027 84.2216 37.2061 84.5341 37.013C84.8523 36.8141 85.0938 36.5243 85.2585 36.1436C85.4233 35.763 85.5057 35.2942 85.5057 34.7374V22.5669ZM95.767 32.4533V40.0215H92.1364V26.9306H95.5966V29.2402H95.75C96.0398 28.4789 96.5256 27.8766 97.2074 27.4334C97.8892 26.9846 98.7159 26.7601 99.6875 26.7601C100.597 26.7601 101.389 26.959 102.065 27.3567C102.741 27.7544 103.267 28.3226 103.642 29.0613C104.017 29.7942 104.205 30.6692 104.205 31.6863V40.0215H100.574V32.334C100.58 31.5328 100.375 30.9078 99.9602 30.459C99.5455 30.0044 98.9744 29.7772 98.2472 29.7772C97.7585 29.7772 97.3267 29.8823 96.9517 30.0925C96.5824 30.3027 96.2926 30.6096 96.0824 31.013C95.8778 31.4107 95.7727 31.8908 95.767 32.4533ZM109.188 40.2431C108.626 40.2431 108.143 40.0442 107.739 39.6465C107.342 39.2431 107.143 38.7601 107.143 38.1976C107.143 37.6408 107.342 37.1635 107.739 36.7658C108.143 36.3681 108.626 36.1692 109.188 36.1692C109.734 36.1692 110.211 36.3681 110.62 36.7658C111.029 37.1635 111.234 37.6408 111.234 38.1976C111.234 38.5726 111.137 38.9164 110.944 39.2289C110.756 39.5357 110.509 39.7828 110.202 39.9703C109.896 40.1522 109.558 40.2431 109.188 40.2431Z" fill="#FFA31A"/>
<path d="M113.994 4.02148L102.994 15.0215H108.994L103.994 24.0215L115.994 11.0215H109.994L113.994 4.02148Z" fill="white"/>
</svg>
