<svg xmlns="http://www.w3.org/2000/svg" width="124.277" height="60.333" viewBox="0 0 124.277 60.333">
  <g id="Group_748" data-name="Group 748" transform="translate(16886.338 1088.188)">
    <path id="path1699" d="M-425.934,248.812a1.787,1.787,0,0,0-.281.027,1.932,1.932,0,0,0-.574.164,2.989,2.989,0,0,0-.481.259c-.259.164-.5.344-.776.556-.552.425-1.2.97-1.8,1.532-4.444,4.166-8.914,12.469-3.36,15.676a19.949,19.949,0,0,1,6.2-12.65c.029-.027.059-.047.088-.074a26.68,26.68,0,0,0,1.507,3.966c.161.323.329.638.5.953l3.04-3.158a21.7,21.7,0,0,1-1.582-4.24c-.1-.4-.2-.764-.281-1.055-.042-.144-.078-.269-.117-.388-.019-.061-.039-.115-.073-.2-.019-.044-.037-.093-.078-.181-.022-.044-.051-.1-.1-.183s-.3-.381-.305-.384-.589-.418-.591-.418a4.542,4.542,0,0,0-.537-.168,2.035,2.035,0,0,0-.4-.032Zm13.226,17.485-2.715,3.138a19.543,19.543,0,0,1,6.288,8.315,19.728,19.728,0,0,1,.391,13.624,30.114,30.114,0,0,1-2.655,5.241,20.237,20.237,0,0,1-13.873,8.276,43.605,43.605,0,0,1-5.663-.146,20.2,20.2,0,0,1-5.619-1.854,20.188,20.188,0,0,1-6.684-5.443c-1.619,2.806.581,6.994,4.8,9.138a24.543,24.543,0,0,0,6.75,2.239,27.843,27.843,0,0,0,6.911.186,24.355,24.355,0,0,0,16.738-9.971,26.721,26.721,0,0,0,3.238-6.4,24.019,24.019,0,0,0-.489-16.438,24.225,24.225,0,0,0-7.421-9.91Z" transform="translate(-16358.479 -1337)" fill="#ffa31a"/>
    <text id="text1703" transform="translate(-16886.338 -1047.188)" fill="#fff" font-size="25" font-family="Montserrat-Bold, Montserrat" font-weight="700"><tspan x="0" y="0">Deals</tspan></text>
    <text id="text1707" transform="translate(-16809.246 -1047.188)" fill="#ffa31a" font-size="24" font-family="Montserrat-Bold, Montserrat" font-weight="700"><tspan x="0" y="0">Jn.</tspan></text>
    <path id="path1709" d="M-417.189,251.748-428.6,263.174h6.454l-5.407,9.366,12.616-13.529h-6.447Z" transform="translate(-16355.046 -1336.335)" fill="#fff"/>
  </g>
</svg>
